SplineFontDB: 3.0
FontName: SPAphaimanee-Bold
FullName: SP Aphaimanee Bold
FamilyName: SP Aphaimanee
Weight: Bold
Copyright: Copyright (c) 2006 by Department of Intellectual Property (DIP), Ministry of Commerce and Software Industry Promotion Agency (Public Organization) (SIPA). All rights reserved.
Version: 2.1
ItalicAngle: 0
UnderlinePosition: -35
UnderlineWidth: 30
Ascent: 800
Descent: 200
LayerCount: 2
Layer: 0 0 "Back" 
Layer: 1 0 "Fore" 
XUID: [1021 375 425136265 1826750]
FSType: 0
OS2Version: 3
OS2_WeightWidthSlopeOnly: 0
OS2_UseTypoMetrics: 1
CreationTime: 1158666840
ModificationTime: 1211186683
PfmFamily: 17
TTFWeight: 700
TTFWidth: 5
LineGap: 60
VLineGap: 0
Panose: 2 0 8 6 0 0 0 2 0 4
OS2TypoAscent: 0
OS2TypoAOffset: 1
OS2TypoDescent: 0
OS2TypoDOffset: 1
OS2TypoLinegap: 0
OS2WinAscent: -43
OS2WinAOffset: 1
OS2WinDescent: -196
OS2WinDOffset: 1
HheadAscent: -43
HheadAOffset: 1
HheadDescent: 196
HheadDOffset: 1
OS2SubXSize: 700
OS2SubYSize: 650
OS2SubXOff: 0
OS2SubYOff: 140
OS2SupXSize: 700
OS2SupYSize: 650
OS2SupXOff: 0
OS2SupYOff: 477
OS2StrikeYSize: 30
OS2StrikeYPos: 250
OS2FamilyClass: 773
OS2Vendor: 'IPTH'
Lookup: 4 0 0 "'frac' Diagonal Fractions in Latin lookup 0"  {"'frac' Diagonal Fractions in Latin lookup 0 subtable"  } ['frac' ('latn' <'dflt' > ) ]
Lookup: 6 0 0 "'liga' Standard Ligatures in Latin lookup 1"  {"'liga' Standard Ligatures in Latin lookup 1 subtable"  } ['liga' ('latn' <'dflt' > ) ]
Lookup: 6 0 0 "'liga' Standard Ligatures in Latin lookup 2"  {"'liga' Standard Ligatures in Latin lookup 2 subtable"  } ['liga' ('latn' <'dflt' > ) ]
Lookup: 6 0 0 "'liga' Standard Ligatures in Latin lookup 3"  {"'liga' Standard Ligatures in Latin lookup 3 subtable"  } ['liga' ('latn' <'dflt' > ) ]
Lookup: 6 0 0 "'liga' Standard Ligatures in Latin lookup 4"  {"'liga' Standard Ligatures in Latin lookup 4 subtable"  } ['liga' ('latn' <'dflt' > ) ]

StartChar: .notdef
Encoding: 65536 -1 0
Width: 733
VWidth: 1467
Flags: W
HStem: 0 51<139 587> 968 52<139 587>
VStem: 92 47<51 968> 587 53<51 968>
LayerCount: 2
Fore
SplineSet
587 51 m 1
 587 968 l 1
 139 968 l 1
 139 51 l 1
 587 51 l 1
640 0 m 1
 92 0 l 1
 89 1020 l 1
 637 1020 l 1
 640 0 l 1
EndSplineSet
EndChar

StartChar: numbersign
Encoding: 35 35 4
Width: 746
VWidth: 1467
Flags: W
HStem: -1 21G<167 246.11 411 489.477> 217 46<73 191 271 436 516 657> 425 46<91 214 295 459 541 672>
VStem: 487 78<623.346 682>
LayerCount: 2
Fore
SplineSet
465 471 m 1
 474 537 483 613 487 682 c 1
 565 682 l 1
 541 471 l 1
 684 471 l 1
 672 425 l 1
 536 425 l 1
 528 357 524 312 516 263 c 1
 668 263 l 1
 657 217 l 1
 514 217 l 1
 487 -1 l 1
 411 -1 l 1
 436 217 l 1
 267 217 l 1
 244 -1 l 1
 167 -1 l 1
 191 217 l 1
 63 217 l 1
 73 263 l 1
 195 263 l 1
 200 328 208 360 214 425 c 1
 79 425 l 1
 91 471 l 1
 220 471 l 1
 245 682 l 1
 318 682 l 1
 295 471 l 1
 465 471 l 1
440 263 m 1
 442 284 456 406 459 425 c 1
 289 425 l 1
 284 360 276 328 271 263 c 1
 440 263 l 1
EndSplineSet
EndChar

StartChar: dollar
Encoding: 36 36 5
Width: 698
VWidth: 1467
Flags: W
HStem: -13 69<221.75 311 384 477.974> 646 67<246.998 311 384 457.065>
VStem: 89 81<448.686 582.958> 311 73<-142 -13 56 318 395 646 715 829> 544 82<113.905 254.598>
LayerCount: 2
Fore
SplineSet
384 380 m 1
 515 362 626 331 626 183 c 0
 626 48 487 -4 384 -13 c 1
 386 -142 l 1
 313 -142 l 1
 311 -13 l 1
 248 -8 121 10 67 141 c 1
 147 141 l 1
 171 84 245 65 311 56 c 1
 311 333 l 1
 169 357 89 409 89 523 c 0
 89 637 207 703 311 713 c 1
 311 829 l 1
 383 829 l 1
 384 715 l 1
 441 710 575 678 597 569 c 1
 521 569 l 1
 506 594 484 629 384 647 c 1
 384 380 l 1
311 646 m 1
 240 631 170 603 170 515 c 0
 176 422 243 409 311 395 c 1
 311 646 l 1
384 54 m 1
 461 59 544 82 544 192 c 0
 544 268 482 294 384 318 c 1
 384 54 l 1
EndSplineSet
EndChar

StartChar: percent
Encoding: 37 37 6
Width: 1018
VWidth: 1467
Flags: W
HStem: 15 61<718.537 819.905> 295 62<175.691 278.614> 361 64<713.301 816.976> 641 63<176.31 274.82>
VStem: 50 80<405.254 589.586> 318 84<402.498 589.057> 582 86<128.217 307.019> 864 85<124.868 308.637>
LayerCount: 2
Fore
SplineSet
747 707 m 1
 321 -4 l 1
 229 -4 l 1
 654 707 l 1
 747 707 l 1
227 704 m 0
 323 704 402 609 402 502 c 0
 402 399 340 295 222 295 c 0
 132 295 50 384 50 502 c 256
 50 611 126 704 227 704 c 0
130 488 m 0
 130 392 190 357 230 357 c 0
 283 357 318 418 318 489 c 0
 318 578 279 641 227 641 c 0
 188 641 130 605 130 488 c 0
762 425 m 0
 874 425 949 333 949 232 c 0
 949 105 877 15 773 15 c 0
 651 15 582 117 582 222 c 256
 582 318 654 425 762 425 c 0
668 210 m 0
 668 110 738 76 770 76 c 0
 826 76 864 141 864 210 c 0
 864 292 828 361 764 361 c 0
 707 361 668 295 668 210 c 0
EndSplineSet
EndChar

StartChar: ampersand
Encoding: 38 38 7
Width: 698
VWidth: 1467
Flags: W
HStem: -6 69<183.919 372.2> 672 59<233.278 377.251>
VStem: 16 90<132.171 278.576> 116 78<528.384 632.628> 408 76<523.758 640.881> 571 83<304.681 383>
LayerCount: 2
Fore
SplineSet
654 383 m 1
 641 310 614 207 544 129 c 1
 554 118 566 107 579 96 c 2
 691 0 l 1
 577 -1 l 1
 493 78 l 1
 431 26 374 -6 266 -6 c 0
 151 -6 16 80 16 194 c 0
 16 311 122 379 182 408 c 1
 124 484 116 528 116 558 c 0
 116 662 199 731 311 731 c 0
 393 731 484 677 484 578 c 0
 484 504 428 442 286 393 c 1
 400 267 l 2
 433 231 462 202 487 179 c 1
 511 212 l 2
 543 256 558 312 571 383 c 1
 654 383 l 1
312 672 m 0
 238 672 194 633 194 563 c 0
 194 534 196 503 254 442 c 1
 314 472 l 2
 383 506 408 537 408 581 c 0
 408 638 369 672 312 672 c 0
224 359 m 1
 170 334 106 288 106 202 c 0
 106 108 201 63 268 63 c 0
 320 63 363 68 434 126 c 1
 356 210 l 1
 224 359 l 1
EndSplineSet
EndChar

StartChar: quotesingle
Encoding: 39 39 8
Width: 201
VWidth: 1467
Flags: W
HStem: 497 207<69 122>
VStem: 53 85<658.719 704 704 704 704 704>
LayerCount: 2
Fore
SplineSet
122 497 m 1
 69 497 l 1
 53 704 l 1
 138 704 l 1
 122 497 l 1
EndSplineSet
EndChar

StartChar: parenleft
Encoding: 40 40 9
Width: 324
VWidth: 1467
Flags: W
VStem: 82 76<173.288 518.276>
LayerCount: 2
Fore
SplineSet
158 343 m 0
 158 172 214 43 321 -85 c 1
 245 -85 l 1
 130 41 82 190 82 343 c 0
 82 544 155 670 244 781 c 1
 323 781 l 1
 203 645 158 507 158 343 c 0
EndSplineSet
EndChar

StartChar: parenright
Encoding: 41 41 10
Width: 325
VWidth: 1467
Flags: W
VStem: 161 77<176.188 521.37>
LayerCount: 2
Fore
SplineSet
161 352 m 0
 161 524 110 646 0 781 c 1
 75 781 l 1
 190 655 238 505 238 352 c 0
 238 152 164 21 76 -85 c 1
 1 -85 l 1
 91 22 161 153 161 352 c 0
EndSplineSet
EndChar

StartChar: asterisk
Encoding: 42 42 11
Width: 466
VWidth: 1467
Flags: W
HStem: 361 381<176 280 280 280> 573 20<34 176 273 424>
VStem: 34 390<524 578 509 593 509 509>
LayerCount: 2
Fore
SplineSet
424 593 m 1x60
 424 511 l 1
 276 524 l 1
 364 411 l 1
 295 370 l 1
 230 494 l 1
 176 361 l 1
 103 395 l 1
 185 524 l 1
 34 509 l 1
 34 591 l 1
 176 580 l 1
 85 697 l 1
 156 738 l 1
 224 603 l 1
 280 742 l 1xa0
 352 707 l 1
 273 578 l 1
 424 593 l 1x60
EndSplineSet
EndChar

StartChar: plus
Encoding: 43 43 12
Width: 641
VWidth: 1467
Flags: W
HStem: 0 21G<275.748 364> 238 80<40 273 361 597>
VStem: 273 88<0 238 318 562>
LayerCount: 2
Fore
SplineSet
361 238 m 1
 364 0 l 1
 276 0 l 1
 273 238 l 1
 40 238 l 1
 40 318 l 1
 273 318 l 1
 273 562 l 1
 361 562 l 1
 361 318 l 1
 597 318 l 1
 597 238 l 1
 361 238 l 1
EndSplineSet
EndChar

StartChar: comma
Encoding: 44 44 13
Width: 206
VWidth: 1467
Flags: W
HStem: -109 214<67 114 114 114> -20 20<68.5 92 114.5 118>
VStem: 25 147<-109 45 -109 -109> 42 130<1.19097 82.9902>
LayerCount: 2
Fore
SplineSet
114 105 m 0x90
 153 105 172 75 172 45 c 0
 172 -47 90 -98 67 -109 c 1
 25 -109 l 1xa0
 103 -60 116 -19 120 0 c 1x60
 109 -8 98 -12 86 -12 c 0
 51 -12 42 8 42 31 c 0
 42 62 67 105 114 105 c 0x90
EndSplineSet
EndChar

StartChar: hyphen
Encoding: 45 45 14
Width: 371
VWidth: 1467
Flags: W
HStem: 235 83<53 310 53 310 53 53>
LayerCount: 2
Fore
SplineSet
53 235 m 1
 53 318 l 1
 310 318 l 1
 310 235 l 1
 53 235 l 1
EndSplineSet
EndChar

StartChar: period
Encoding: 46 46 15
Width: 206
VWidth: 1467
Flags: W
HStem: -16 133<60.0278 139.375>
VStem: 47 106<-3.66783 105.256>
LayerCount: 2
Fore
SplineSet
101 117 m 0
 134 117 153 89 153 51 c 0
 153 15 132 -16 101 -16 c 0
 79 -16 47 -3 47 51 c 0
 47 89 68 117 101 117 c 0
EndSplineSet
EndChar

StartChar: slash
Encoding: 47 47 16
Width: 448
VWidth: 1467
Flags: W
VStem: -10 456<-43 723 -43 -43>
LayerCount: 2
Fore
SplineSet
73 -43 m 1
 -10 -43 l 1
 358 723 l 1
 446 723 l 1
 73 -43 l 1
EndSplineSet
EndChar

StartChar: zero
Encoding: 48 48 17
Width: 642
VWidth: 1467
Flags: W
HStem: 3 59<245.939 392.507> 640 58<248.328 389.595>
VStem: 73 84<176.947 503.139> 480 82<191.476 516.702>
LayerCount: 2
Fore
SplineSet
318 3 m 0
 136 3 73 160 73 326 c 0
 73 630 210 698 324 698 c 0
 514 698 562 509 562 372 c 0
 562 54 416 3 318 3 c 0
157 321 m 0
 157 202 190 62 320 62 c 0
 416 62 480 148 480 369 c 0
 480 476 448 640 319 640 c 0
 222 640 157 550 157 321 c 0
EndSplineSet
EndChar

StartChar: one
Encoding: 49 49 18
Width: 642
VWidth: 1467
Flags: W
HStem: -4 21G<289 365>
VStem: 289 76<-4 602>
LayerCount: 2
Fore
SplineSet
289 -4 m 1
 289 602 l 1
 224 565 l 1
 227 590 226 621 227 649 c 1
 255 660 238 656 310 694 c 1
 365 694 l 1
 365 -4 l 1
 289 -4 l 1
EndSplineSet
EndChar

StartChar: two
Encoding: 50 50 19
Width: 642
VWidth: 1467
Flags: W
HStem: 3 69<217 403.807 403.807 525> 633 64<221.638 433.716>
VStem: 489 76<471.424 588.373>
LayerCount: 2
Fore
SplineSet
319 697 m 0
 515 697 565 608 565 543 c 0
 565 451 413 270 302 157 c 2
 217 72 l 1
 323 72 l 2
 372 72 458 73 525 78 c 2
 536 79 l 1
 537 3 l 1
 89 3 l 1
 91 48 l 1
 123 91 170 123 277 245 c 2
 368 342 l 2
 467 454 489 501 489 541 c 256
 489 615 378 633 327 633 c 0
 270 633 176 612 139 602 c 2
 126 600 l 1
 130 623 130 649 132 673 c 1
 187 685 282 697 319 697 c 0
EndSplineSet
EndChar

StartChar: three
Encoding: 51 51 20
Width: 642
VWidth: 1467
Flags: W
HStem: -2 60<137.998 382.838> 323 69<222.534 394.609> 641 59<195.324 406.847>
VStem: 473 79<458.742 585.234> 485 80<138.76 264.945>
LayerCount: 2
Fore
SplineSet
485 205 m 0xe8
 485 253 449 324 288 324 c 2
 219 323 l 1
 222 395 l 1
 233 392 270 392 279 392 c 0
 429 392 473 469 473 521 c 0
 473 617 371 641 300 641 c 0
 226 641 138 616 138 616 c 1
 145 682 l 1
 184 692 255 700 310 700 c 0
 414 700 552 664 552 543 c 0xf0
 552 434 484 381 412 362 c 1
 431 357 565 333 565 215 c 0
 565 128 513 -2 276 -2 c 0
 166 -2 117 22 85 26 c 1
 79 101 l 1
 121 84 194 58 275 58 c 0
 370 58 485 108 485 205 c 0xe8
EndSplineSet
EndChar

StartChar: four
Encoding: 52 52 21
Width: 642
VWidth: 1467
Flags: W
HStem: -6 21G<399 489> 239 66<169 401 478 582> 681 20G<361.798 480>
VStem: 399 90<-6 71.9545> 401 77<161.045 239 305 463 463 621>
LayerCount: 2
Fore
SplineSet
402 239 m 1xf0
 76 239 l 1
 76 305 l 1
 377 701 l 1
 480 701 l 1
 478 305 l 1
 582 305 l 1
 582 239 l 1
 478 239 l 1xe8
 489 -6 l 1
 399 -6 l 1
 402 239 l 1xf0
169 305 m 1
 401 305 l 1
 395 621 l 1
 169 305 l 1
EndSplineSet
EndChar

StartChar: five
Encoding: 53 53 22
Width: 642
VWidth: 1467
Flags: W
HStem: -20 53<136.671 345.414> 356 64<230.214 391.91> 635 62<213 485.924 488.375 549>
VStem: 476 86<145.316 288.12>
LayerCount: 2
Fore
SplineSet
230 33 m 0
 368 33 476 111 476 217 c 0
 476 328 370 356 251 356 c 0
 222 356 183 353 104 340 c 1
 144 697 l 1
 549 697 l 1
 549 628 l 1
 514 628 480 635 376 635 c 2
 213 635 l 1
 183 409 l 1
 197 409 251 420 319 420 c 0
 511 420 562 309 562 235 c 0
 562 182 524 -20 235 -20 c 0
 139 -20 87 -1 87 -1 c 1
 82 17 79 37 78 59 c 1
 103 48 188 33 230 33 c 0
EndSplineSet
EndChar

StartChar: six
Encoding: 54 54 23
Width: 642
VWidth: 1467
Flags: W
HStem: -21 58<233.506 405.471> 337 64<233.175 423.084> 677 20G<315.505 408>
VStem: 65 80<119.203 264.463> 492 79<124.646 274.282>
LayerCount: 2
Fore
SplineSet
318 -21 m 0
 195 -21 65 25 65 210 c 0
 65 359 200 536 252 600 c 2
 332 697 l 1
 408 697 l 1
 240 466 223 450 194 386 c 1
 249 399 321 401 335 401 c 0
 459 401 571 343 571 204 c 0
 571 104 492 -21 318 -21 c 0
492 208 m 0
 492 285 426 337 324 337 c 0
 200 337 182 312 169 305 c 1
 148 255 145 213 145 197 c 0
 145 70 267 37 324 37 c 0
 427 37 492 121 492 208 c 0
EndSplineSet
EndChar

StartChar: seven
Encoding: 55 55 24
Width: 642
VWidth: 1467
Flags: W
HStem: -12 21G<112 221> 628 69<94 175.87 175.87 456 94 541 94 94>
LayerCount: 2
Fore
SplineSet
112 -12 m 1
 123 12 333 395 344 414 c 2
 456 628 l 1
 260 628 l 2
 194 628 111 626 94 625 c 1
 94 697 l 1
 541 697 l 1
 540 629 l 1
 532 616 499 547 470 493 c 2
 303 180 l 2
 270 119 237 54 205 -12 c 1
 112 -12 l 1
EndSplineSet
EndChar

StartChar: eight
Encoding: 56 56 25
Width: 642
VWidth: 1467
Flags: W
HStem: -16 61<229.812 404.498> 326 86<243.685 394.521> 653 62<235.803 402.227>
VStem: 84 77<108.533 255.585> 107 72<472.125 600.831> 458 75<469.718 600.417> 477 81<114.733 256.571>
LayerCount: 2
Fore
SplineSet
320 412 m 0xec
 396 412 458 469 458 536 c 0
 458 606 397 653 320 653 c 0
 241 653 179 606 179 536 c 0
 179 469 243 412 320 412 c 0xec
320 45 m 0
 406 45 477 105 477 183 c 0
 477 269 406 326 320 326 c 256
 231 326 161 265 161 183 c 0xf2
 161 100 226 45 320 45 c 0
320 715 m 0
 446 715 533 655 533 541 c 0xec
 533 473 494 417 415 374 c 1
 524 340 558 257 558 191 c 0
 558 67 455 -16 323 -16 c 0
 181 -16 84 61 84 191 c 0xf2
 84 270 135 344 222 376 c 1
 145 418 107 470 107 533 c 0xe8
 107 598 131 715 320 715 c 0
EndSplineSet
EndChar

StartChar: nine
Encoding: 57 57 26
Width: 642
VWidth: 1467
Flags: W
HStem: 0 21G<224 313.5> 291 63<219.127 362.013> 635 66<230.397 402.412>
VStem: 75 76<413.416 555.221> 479 72<423.338 560.248>
LayerCount: 2
Fore
SplineSet
75 483 m 0
 75 584 155 701 323 701 c 0
 516 701 551 579 551 500 c 0
 551 454 547 358 436 195 c 2
 372 96 l 2
 352 64 326 29 301 0 c 1
 224 0 l 1
 339 166 l 2
 369 209 396 257 421 307 c 1
 386 297 349 291 310 291 c 0
 170 291 75 368 75 483 c 0
313 635 m 0
 184 635 151 525 151 481 c 0
 151 395 229 354 314 354 c 0
 342 354 404 358 452 383 c 1
 460 407 479 443 479 486 c 0
 479 554 428 635 313 635 c 0
EndSplineSet
EndChar

StartChar: colon
Encoding: 58 58 27
Width: 201
VWidth: 1467
Flags: W
HStem: -16 133<60.3953 139.375> 352 133<60.3953 139>
VStem: 47 106<-4.29297 105.256 364.023 473.315>
LayerCount: 2
Fore
SplineSet
101 117 m 0
 134 117 153 89 153 51 c 0
 153 15 132 -16 101 -16 c 0
 68 -16 47 12 47 49 c 0
 47 87 67 117 101 117 c 0
101 485 m 0
 133 485 153 457 153 420 c 0
 153 384 132 352 101 352 c 0
 68 352 47 381 47 417 c 0
 47 455 67 485 101 485 c 0
EndSplineSet
EndChar

StartChar: semicolon
Encoding: 59 59 28
Width: 215
VWidth: 1467
Flags: W
HStem: -20 20<68.5 92 114.5 118> 352 133<60.3953 139>
VStem: 25 147<-109 45 -109 -109> 42 130<1.19097 82.9902> 47 106<364.023 473.315>
LayerCount: 2
Fore
SplineSet
114 105 m 0xd0
 153 105 172 75 172 45 c 0
 172 -47 90 -98 67 -109 c 1
 25 -109 l 1xe0
 103 -60 116 -19 120 0 c 1
 109 -8 98 -12 86 -12 c 0
 51 -12 42 8 42 31 c 0
 42 62 67 105 114 105 c 0xd0
101 485 m 0
 133 485 153 457 153 420 c 0
 153 384 132 352 101 352 c 0
 68 352 47 381 47 417 c 0xc8
 47 455 67 485 101 485 c 0
EndSplineSet
EndChar

StartChar: less
Encoding: 60 60 29
Width: 632
VWidth: 1467
Flags: W
HStem: -1 21G<495.5 550> 571 20G<498.5 550>
VStem: 75 475<104 292 292 292>
LayerCount: 2
Fore
SplineSet
214 292 m 1
 341 254 470 197 550 104 c 1
 550 -1 l 1
 441 146 196 256 75 292 c 1
 243 352 447 458 550 591 c 1
 550 484 l 1
 449 376 295 320 214 292 c 1
EndSplineSet
EndChar

StartChar: equal
Encoding: 61 61 30
Width: 657
VWidth: 1467
Flags: W
HStem: 147 83<53 599> 343 84<53 599>
LayerCount: 2
Fore
SplineSet
53 147 m 1
 53 230 l 1
 599 230 l 1
 599 147 l 1
 53 147 l 1
53 343 m 1
 53 427 l 1
 599 427 l 1
 599 343 l 1
 53 343 l 1
EndSplineSet
EndChar

StartChar: greater
Encoding: 62 62 31
Width: 629
VWidth: 1467
Flags: W
HStem: -1 21G<70 125> 571 20G<70 111.5>
VStem: 70 476<298 486 486 486>
LayerCount: 2
Fore
SplineSet
406 298 m 1
 286 335 150 392 70 486 c 1
 70 591 l 1
 153 477 367 352 546 298 c 1
 395 244 180 141 70 -1 c 1
 70 106 l 1
 157 193 268 251 406 298 c 1
EndSplineSet
EndChar

StartChar: question
Encoding: 63 63 32
Width: 550
VWidth: 1467
Flags: W
HStem: -16 133<224.369 303.875> 421 48<114.906 172.627> 679 49<212.535 344.203>
VStem: 48 62<483.043 604.317> 205 59<503.546 626.982> 211 106<-3.04959 104.344> 219 89<182 197.162 197.162 300.064> 412 79<463.26 611.286>
LayerCount: 2
Fore
SplineSet
198 666 m 1xf3
 232 651 264 632 264 569 c 0xf9
 264 477 188 421 141 421 c 0
 75 421 48 492 48 540 c 0
 48 653 145 728 265 728 c 0
 381 728 491 647 491 533 c 0
 491 466 446 410 416 385 c 2
 380 356 l 2
 313 303 315 265 308 213 c 2
 308 182 l 1
 222 180 l 1
 220 190 219 201 219 213 c 0
 219 297 260 361 357 424 c 1
 394 458 412 493 412 539 c 0
 412 615 349 679 271 679 c 0
 227 679 210 673 198 666 c 1xf3
205 576 m 0
 205 623 184 630 170 630 c 0
 151 630 110 602 110 525 c 0
 110 509 112 469 139 469 c 0
 156 469 205 506 205 576 c 0
266 117 m 0
 299 117 317 89 317 51 c 0
 317 15 297 -16 266 -16 c 0
 233 -16 211 13 211 50 c 0xf5
 211 87 232 117 266 117 c 0
EndSplineSet
EndChar

StartChar: at
Encoding: 64 64 33
Width: 934
VWidth: 1467
Flags: W
HStem: -163 59<326.61 523.536> -26 50<355.813 517.995> 391 44<372.204 564.861> 519 68<354.687 617.357>
VStem: 57 78<78.1342 316.287> 264 66<48.7185 132.722> 602 63<110 232 270.041 358.897> 791 76<150.173 350.122>
LayerCount: 2
Fore
SplineSet
489 587 m 0
 691 587 867 474 867 251 c 0
 867 83 719 -18 660 -18 c 0
 624 -18 607 18 602 45 c 1
 568 22 l 2
 523 -10 458 -26 421 -26 c 0
 342 -26 267 13 264 100 c 0
 264 218 412 219 506 241 c 2
 532 249 l 2
 551 255 599 271 599 305 c 0
 599 339 582 391 473 391 c 0
 415 391 336 373 286 346 c 1
 293 401 l 1
 352 432 429 435 463 435 c 0
 596 435 665 393 665 304 c 2
 665 58 l 2
 665 53 666 48 668 43 c 1
 735 72 791 156 791 245 c 0
 791 399 677 519 496 519 c 0
 346 519 135 453 135 186 c 0
 135 12 279 -104 440 -104 c 0
 537 -104 579 -87 609 -73 c 1
 654 -106 l 1
 575 -150 478 -163 426 -163 c 0
 233 -163 57 -19 57 182 c 0
 57 506 312 587 489 587 c 0
426 24 m 0
 497 24 562 62 602 110 c 1
 602 232 l 1
 516 164 407 196 345 140 c 0
 335 130 330 118 330 103 c 0
 330 77 341 24 426 24 c 0
EndSplineSet
EndChar

StartChar: A
Encoding: 65 65 34
Width: 698
VWidth: 1467
Flags: W
HStem: 1 21G<53 134.094 556.717 637> 213 58<200 492> 648 61<303.389 378.777>
LayerCount: 2
Fore
SplineSet
506 213 m 1
 183 213 l 1
 129 1 l 1
 53 1 l 1
 186 534 l 2
 214 614 236 709 339 709 c 0
 453 709 481 608 492 563 c 2
 637 1 l 1
 562 1 l 1
 506 213 l 1
492 271 m 1
 430 509 l 2
 404 582 387 648 341 648 c 0
 284 648 273 545 261 509 c 2
 200 271 l 1
 492 271 l 1
EndSplineSet
EndChar

StartChar: B
Encoding: 66 66 35
Width: 736
VWidth: 1467
Flags: W
HStem: 0 60<176 433> 389 67<308 434.732> 641 56<176 465.297>
VStem: 101 75<60 641> 494 69<496.37 612.078> 566 72<124.156 292.597>
LayerCount: 2
Fore
SplineSet
436 418 m 1
 633 372 638 252 638 210 c 0
 638 71 548 8 430 1 c 1
 433 0 l 1
 101 0 l 1
 101 697 l 1
 421 697 l 2
 505 687 563 651 563 558 c 0
 563 467 487 433 436 418 c 1
494 555 m 0
 494 610 456 637 405 641 c 2
 176 641 l 1
 176 60 l 1
 408 60 l 2
 488 60 566 91 566 214 c 0
 566 319 470 379 380 389 c 2
 308 389 l 1
 308 455 l 1
 390 456 l 2
 434 459 494 490 494 555 c 0
EndSplineSet
EndChar

StartChar: C
Encoding: 67 67 36
Width: 654
VWidth: 1467
Flags: W
HStem: -5 59<263.507 449.158> 647 59<262.298 448.231>
VStem: 103 72<129.388 572.339>
LayerCount: 2
Fore
SplineSet
591 98 m 1
 556 27 456 -5 360 -5 c 0
 143 -5 103 150 103 211 c 2
 103 509 l 2
 103 578 168 706 360 706 c 0
 456 706 555 674 591 603 c 1
 552 560 l 1
 516 644 391 647 370 647 c 0
 203 647 175 539 175 512 c 2
 175 189 l 2
 175 126 242 54 370 54 c 0
 394 54 517 58 552 141 c 1
 591 98 l 1
EndSplineSet
EndChar

StartChar: D
Encoding: 68 68 37
Width: 682
VWidth: 1467
Flags: W
HStem: 4 56<170 196.531 196.531 378.949> 647 57<170 328.279>
VStem: 101 69<60 647> 531 74<208.489 464.311>
LayerCount: 2
Fore
SplineSet
224 4 m 2
 188 4 169 3 133 3 c 2
 101 3 l 1
 101 704 l 1
 145 704 l 2
 362 695 605 662 605 344 c 0
 605 5 361 4 279 4 c 2
 224 4 l 2
170 60 m 1
 234 60 l 2
 350 60 531 80 531 338 c 0
 531 585 346 647 170 647 c 1
 170 60 l 1
EndSplineSet
EndChar

StartChar: E
Encoding: 69 69 38
Width: 664
VWidth: 1467
Flags: W
HStem: -4 57<257.519 594> 315 59<173 483> 640 57<261.482 445.6 445.6 545.4 545.4 594>
VStem: 101 72<135.688 315 374 557.126> 101 493<47 53 640 648 252 697 446 446>
LayerCount: 2
Fore
SplineSet
495 698 m 0xf0
 554 698 574 697 594 697 c 1
 594 640 l 1xe8
 396 640 l 2
 256 640 173 602 173 450 c 2
 173 374 l 1
 483 374 l 1
 483 315 l 1
 173 315 l 1
 173 234 l 2xf0
 173 68 289 53 396 53 c 2
 594 53 l 1
 594 -4 l 1xe8
 398 -4 l 2
 222 -1 101 47 101 252 c 2
 101 446 l 2
 101 648 231 692 398 697 c 0
 417 697 437 698 495 698 c 0xf0
EndSplineSet
EndChar

StartChar: F
Encoding: 70 70 39
Width: 660
VWidth: 1467
Flags: W
HStem: 1 21G<103 175> 317 59<175 484> 641 57<262.994 447.1 447.1 547.169 547.169 596>
VStem: 103 72<1 317 376 556.979> 103 493<641 661 1 698 498.169 547>
LayerCount: 2
Fore
SplineSet
497 700 m 0xf0
 546 700 576 698 596 698 c 1
 596 641 l 1xe8
 398 641 l 2
 285 641 175 623 175 457 c 2
 175 376 l 1
 484 376 l 1
 484 317 l 1
 175 317 l 1
 175 1 l 1
 103 1 l 1
 103 448 l 2
 103 661 247 696 399 698 c 0
 419 698 438 700 497 700 c 0xf0
EndSplineSet
EndChar

StartChar: G
Encoding: 71 71 40
Width: 698
VWidth: 1467
Flags: W
HStem: -6 67<270.547 487.18> 641 64<265.295 473.095>
VStem: 101 82<143.616 565.431> 552 73<128.347 294.076>
LayerCount: 2
Fore
SplineSet
625 226 m 0
 625 40 513 -6 381 -6 c 0
 194 -6 101 68 101 254 c 2
 101 524 l 2
 101 601 189 705 361 705 c 0
 458 705 558 674 594 602 c 1
 555 546 l 1
 526 607 449 641 364 641 c 0
 224 641 183 549 183 500 c 2
 183 248 l 2
 183 101 265 61 389 61 c 0
 477 61 552 93 552 222 c 0
 552 329 478 324 399 332 c 1
 399 392 l 1
 415 394 430 395 446 395 c 0
 589 395 625 304 625 226 c 0
EndSplineSet
EndChar

StartChar: H
Encoding: 72 72 41
Width: 735
VWidth: 1467
Flags: W
HStem: 1 21G<103.971 178 559 632> 317 59<178 559> 678 20G<103 178 559 632>
VStem: 104 74<1 317 376 698> 559 73<1 317 376 698>
LayerCount: 2
Fore
SplineSet
559 698 m 1
 632 698 l 1
 632 1 l 1
 559 1 l 1
 559 317 l 1
 178 317 l 1
 178 1 l 1
 104 1 l 1
 103 698 l 1
 178 698 l 1
 178 376 l 1
 559 376 l 1
 559 698 l 1
EndSplineSet
EndChar

StartChar: I
Encoding: 73 73 42
Width: 280
VWidth: 1467
Flags: W
HStem: 1 21G<100 175> 678 20G<100 175>
VStem: 100 75<1 698>
LayerCount: 2
Fore
SplineSet
100 698 m 1
 175 698 l 1
 175 1 l 1
 100 1 l 1
 100 698 l 1
EndSplineSet
EndChar

StartChar: J
Encoding: 74 74 43
Width: 470
VWidth: 1467
Flags: W
HStem: -10 52<134.324 252.141> 677 20G<296 368>
VStem: 23 71<83.1807 144> 296 72<88.4843 697>
LayerCount: 2
Fore
SplineSet
368 147 m 2
 368 45 283 -10 194 -10 c 0
 111 -10 23 38 23 144 c 1
 94 144 l 1
 104 55 169 42 194 42 c 0
 232 42 296 71 296 170 c 2
 296 697 l 1
 368 697 l 1
 368 147 l 2
EndSplineSet
EndChar

StartChar: K
Encoding: 75 75 44
Width: 720
VWidth: 1467
Flags: W
VStem: 100 78<4 280 379 716> 541 74<3 375.375>
LayerCount: 2
Fore
SplineSet
541 247 m 2
 541 318 529 384 493 409 c 0
 477 421 441 446 358 453 c 1
 176 280 l 1
 178 4 l 1
 100 3 l 1
 100 716 l 1
 178 716 l 1
 180 379 l 1
 544 716 l 1
 629 716 l 1
 408 511 l 1
 469 507 525 476 558 449 c 0
 601 411 615 363 615 232 c 2
 615 3 l 1
 541 3 l 1
 541 247 l 2
EndSplineSet
EndChar

StartChar: L
Encoding: 76 76 45
Width: 620
VWidth: 1467
Flags: W
HStem: -1 58<250.713 552> 678 20G<100 173>
VStem: 100 73<135.29 698>
LayerCount: 2
Fore
SplineSet
173 246 m 2
 173 82 255 57 380 57 c 2
 552 57 l 1
 552 -1 l 1
 355 -1 l 2
 188 2 100 50 100 255 c 2
 100 698 l 1
 173 698 l 1
 173 246 l 2
EndSplineSet
EndChar

StartChar: M
Encoding: 77 77 46
Width: 874
VWidth: 1467
Flags: W
HStem: 0 21G<100 173 700 770> 678 20G<100 212 660.5 770>
VStem: 100 73<0 626> 700 70<0 626>
LayerCount: 2
Fore
SplineSet
700 626 m 1
 653 615 468 433 433 352 c 1
 356 487 237 600 173 626 c 1
 173 0 l 1
 100 0 l 1
 100 698 l 1
 173 698 l 1
 251 660 368 553 434 455 c 1
 512 570 626 664 695 698 c 1
 770 698 l 1
 770 0 l 1
 700 0 l 1
 700 626 l 1
EndSplineSet
EndChar

StartChar: N
Encoding: 78 78 47
Width: 760
VWidth: 1467
Flags: W
HStem: -6 21G<92 171 509.716 548.5> 680 20G<92 176.37 588 663>
VStem: 92 79<1 569> 588 75<69.0938 700>
LayerCount: 2
Fore
SplineSet
558 63 m 1
 581 71 588 94 588 163 c 2
 588 700 l 1
 663 700 l 1
 663 131 l 2
 663 35 575 -6 522 -6 c 1
 202 515 l 2
 185 544 174 562 171 569 c 1
 171 1 l 1
 92 1 l 1
 92 700 l 1
 164 700 l 1
 558 63 l 1
EndSplineSet
EndChar

StartChar: O
Encoding: 79 79 48
Width: 724
VWidth: 1467
Flags: W
HStem: -15 62<246.345 476.35> 649 64<248.125 477.006>
VStem: 100 72<111.956 581.519> 552 72<112.038 585.804>
LayerCount: 2
Fore
SplineSet
100 528 m 2
 100 661 252 713 362 713 c 0
 507 713 624 639 624 528 c 2
 624 167 l 2
 624 22 442 -15 348 -15 c 0
 212 -15 100 64 100 167 c 2
 100 528 l 2
361 47 m 256
 451 47 552 75 552 186 c 2
 552 509 l 2
 552 616 465 649 361 649 c 256
 277 649 172 621 172 509 c 2
 172 186 l 2
 172 75 270 47 361 47 c 256
EndSplineSet
EndChar

StartChar: P
Encoding: 80 80 49
Width: 669
VWidth: 1467
Flags: W
HStem: -1 21G<95 172> 267 56<172 463.203> 643 52<172 447.895>
VStem: 95 77<-1 267 323 643> 537 65<389.103 555.825>
LayerCount: 2
Fore
SplineSet
602 465 m 0
 602 349 501 267 374 267 c 2
 172 267 l 1
 172 -1 l 1
 95 -1 l 1
 95 695 l 1
 377 695 l 2
 512 695 602 596 602 465 c 0
537 461 m 0
 537 607 425 643 361 643 c 2
 172 643 l 1
 172 323 l 1
 362 324 l 2
 411 324 537 340 537 461 c 0
EndSplineSet
EndChar

StartChar: Q
Encoding: 81 81 50
Width: 723
VWidth: 1467
Flags: W
HStem: -100 53<587.912 624> -15 62<244.125 418.716> 649 63<249.08 464.504>
VStem: 100 72<110.5 581.519> 552 72<120.798 578.081>
LayerCount: 2
Fore
SplineSet
483 3 m 1
 557 -44 599 -47 624 -47 c 1
 624 -100 l 1
 534 -100 465 -72 425 -10 c 1
 415 -13 399 -15 373 -15 c 2
 337 -15 l 2
 204 -6 100 58 100 167 c 2
 100 528 l 2
 100 661 257 712 360 712 c 0
 442 712 624 675 624 528 c 2
 624 167 l 2
 624 69 538 21 483 3 c 1
172 186 m 2
 172 81 258 47 357 47 c 0
 459 47 552 97 552 186 c 2
 552 509 l 2
 552 613 434 649 365 649 c 0
 276 649 172 621 172 509 c 2
 172 186 l 2
EndSplineSet
EndChar

StartChar: R
Encoding: 82 82 51
Width: 683
VWidth: 1467
Flags: W
HStem: 0 21G<97 173 530.5 607> 321 56<170 416.146> 644 53<172 459.567>
VStem: 97 73<0 87.4153 87.4153 321 377 450.692 450.692 644> 521 75<436.66 588.903> 531 76<0 222.116>
LayerCount: 2
Fore
SplineSet
528 120 m 2xf4
 528 294 407 321 242 321 c 2
 170 321 l 1
 170 174 l 2
 170 122 170 70 173 0 c 1
 97 0 l 1
 97 697 l 1
 346 697 l 2
 553 697 596 582 596 505 c 0xf8
 596 411 494 366 437 351 c 1
 571 297 604 208 604 123 c 2
 607 0 l 1
 531 0 l 1
 528 120 l 2xf4
346 377 m 2
 479 380 521 426 521 499 c 0
 521 615 457 644 346 644 c 2
 172 644 l 1
 172 523 l 2
 172 465 170 465 170 377 c 1
 346 377 l 2
EndSplineSet
EndChar

StartChar: S
Encoding: 83 83 52
Width: 698
VWidth: 1467
Flags: W
HStem: -16 59<230.57 405.686> 656 59<247.801 455.409>
VStem: 88 85<449.416 590.363> 540 85<121.183 246.21>
LayerCount: 2
Fore
SplineSet
625 187 m 0
 625 41 469 -16 348 -16 c 0
 188 -16 101 47 66 139 c 1
 141 139 l 1
 169 74 272 43 331 43 c 0
 362 43 540 56 540 191 c 0
 540 268 456 297 307 320 c 0
 116 350 88 434 88 510 c 0
 88 647 229 715 351 715 c 0
 428 715 569 681 596 568 c 1
 524 568 l 1
 491 625 440 656 349 656 c 0
 247 656 173 604 173 526 c 0
 173 436 220 397 399 376 c 0
 569 357 625 288 625 187 c 0
EndSplineSet
EndChar

StartChar: T
Encoding: 84 84 53
Width: 654
VWidth: 1467
Flags: W
HStem: -1 21G<285 359> 638 59<66 285 359 584>
VStem: 285 74<-1 638>
LayerCount: 2
Fore
SplineSet
584 697 m 1
 584 638 l 1
 359 638 l 1
 359 -1 l 1
 285 -1 l 1
 285 638 l 1
 66 638 l 1
 66 697 l 1
 584 697 l 1
EndSplineSet
EndChar

StartChar: U
Encoding: 85 85 54
Width: 749
VWidth: 1467
Flags: W
HStem: -15 59<253.372 496.301> 678 20G<100 172 578 650>
VStem: 100 72<113.495 698> 578 72<113.495 697>
LayerCount: 2
Fore
SplineSet
375 -15 m 0
 257 -15 100 35 100 169 c 2
 100 698 l 1
 172 698 l 1
 172 188 l 2
 172 73 281 44 376 44 c 0
 470 44 578 73 578 188 c 2
 578 697 l 1
 650 697 l 1
 650 169 l 2
 650 49 516 -15 375 -15 c 0
EndSplineSet
EndChar

StartChar: V
Encoding: 86 86 55
Width: 708
VWidth: 1467
Flags: W
HStem: -15 59<307.343 387.034> 677 20G<57 133.197 565.466 647>
LayerCount: 2
Fore
SplineSet
486 129 m 2
 450 17 409 -15 340 -15 c 0
 256 -15 216 55 201 112 c 2
 57 697 l 1
 128 697 l 1
 260 189 l 2
 289 78 312 44 346 44 c 0
 396 44 407 105 431 191 c 2
 571 697 l 1
 647 697 l 1
 486 129 l 2
EndSplineSet
EndChar

StartChar: W
Encoding: 87 87 56
Width: 878
VWidth: 1467
Flags: W
HStem: 0 21G<174.528 285.5 593 697.587> 677 20G<57 129.736 741.5 819>
LayerCount: 2
Fore
SplineSet
437 367 m 1
 427 194 325 43 246 0 c 1
 178 0 l 1
 57 697 l 1
 126 697 l 1
 242 76 l 1
 369 205 392 405 434 568 c 1
 482 436 510 230 622 78 c 1
 728 591 735 615 748 697 c 1
 819 697 l 1
 694 0 l 1
 626 0 l 1
 560 27 466 181 437 367 c 1
EndSplineSet
EndChar

StartChar: X
Encoding: 88 88 57
Width: 704
VWidth: 1467
Flags: W
HStem: 1 21G<53 149.488 578.512 675> 681 20G<53 149.436 577.631 675>
LayerCount: 2
Fore
SplineSet
134 701 m 1
 364 403 l 1
 593 701 l 1
 675 701 l 1
 403 351 l 1
 675 1 l 1
 594 1 l 1
 364 298 l 1
 134 1 l 1
 53 1 l 1
 323 351 l 1
 53 701 l 1
 134 701 l 1
EndSplineSet
EndChar

StartChar: Y
Encoding: 89 89 58
Width: 691
VWidth: 1467
Flags: W
HStem: -1 21G<304 381> 677 20G<53 161 536 632>
VStem: 304 77<-1 283>
LayerCount: 2
Fore
SplineSet
304 283 m 1
 258 306 195 444 53 697 c 1
 126 697 l 1
 196 565 293 406 311 373 c 0
 324 350 332 339 341 339 c 0
 350 339 358 349 370 368 c 0
 457 510 558 689 563 697 c 1
 632 697 l 1
 440 351 416 301 381 285 c 1
 381 -1 l 1
 304 -1 l 1
 304 283 l 1
EndSplineSet
EndChar

StartChar: Z
Encoding: 90 90 59
Width: 754
VWidth: 1467
Flags: W
HStem: 1 74<207.641 226 226 666> 625 75<95 540>
LayerCount: 2
Fore
SplineSet
195 119 m 1
 205 84 221 75 271 75 c 2
 666 75 l 1
 666 1 l 1
 226 1 l 2
 124 1 88 79 88 129 c 1
 541 624 497 574 540 625 c 1
 95 625 l 1
 95 700 l 1
 666 700 l 1
 666 631 l 1
 195 119 l 1
EndSplineSet
EndChar

StartChar: bracketleft
Encoding: 91 91 60
Width: 322
VWidth: 1467
Flags: W
HStem: -117 45<172 318> -117 840<91 172 91 318 91 91> 679 44<172 318>
VStem: 91 81<-72 679>
LayerCount: 2
Fore
SplineSet
91 -117 m 1x50
 91 723 l 1
 318 723 l 1x50
 318 679 l 1
 172 679 l 1
 172 -72 l 1
 318 -72 l 1
 318 -117 l 1xb0
 91 -117 l 1x50
EndSplineSet
EndChar

StartChar: backslash
Encoding: 92 92 61
Width: 463
VWidth: 1467
Flags: W
VStem: 0 462<-44 722 722 722>
LayerCount: 2
Fore
SplineSet
0 722 m 1
 88 722 l 1
 462 -44 l 1
 373 -44 l 1
 0 722 l 1
EndSplineSet
EndChar

StartChar: bracketright
Encoding: 93 93 62
Width: 322
VWidth: 1467
Flags: W
HStem: -117 45<1 144> 679 44<-1 144>
VStem: 1 225<-117 -72 679 723> 144 82<-72 679>
LayerCount: 2
Fore
SplineSet
1 -117 m 1xe0
 1 -72 l 1xe0
 144 -72 l 1
 144 679 l 1xd0
 -1 679 l 1
 -1 723 l 1
 226 723 l 1
 226 -117 l 1
 1 -117 l 1xe0
EndSplineSet
EndChar

StartChar: asciicircum
Encoding: 94 94 63
Width: 710
VWidth: 1467
Flags: W
LayerCount: 2
Fore
SplineSet
355 571 m 1
 319 416 236 284 176 204 c 1
 75 204 l 1
 183 322 320 558 352 722 c 1
 385 563 520 333 631 204 c 1
 528 204 l 1
 407 365 370 494 355 571 c 1
EndSplineSet
EndChar

StartChar: underscore
Encoding: 95 95 64
Width: 528
VWidth: 1467
Flags: W
HStem: -292 76<1 525>
LayerCount: 2
Fore
SplineSet
1 -292 m 1
 1 -216 l 1
 525 -216 l 1
 525 -292 l 1
 1 -292 l 1
EndSplineSet
EndChar

StartChar: grave
Encoding: 96 96 65
Width: 300
VWidth: 1467
Flags: W
HStem: 566 153<45 169 45 45>
LayerCount: 2
Fore
SplineSet
169 566 m 1
 45 719 l 1
 145 719 l 1
 239 566 l 1
 169 566 l 1
EndSplineSet
EndChar

StartChar: a
Encoding: 97 97 66
Width: 639
VWidth: 1467
Flags: W
HStem: -9 51<191.101 358.97> 463 49<192.25 396.753>
VStem: 72 76<66.778 179.47> 461 73<129 286 325.149 407.283>
LayerCount: 2
Fore
SplineSet
461 129 m 1
 461 286 l 1
 403 243 364 236 282 225 c 0
 210 215 148 187 148 128 c 0
 148 45 216 42 243 42 c 0
 340 42 420 85 461 129 c 1
568 19 m 1
 552 3 526 2 512 -10 c 1
 493 -2 464 39 461 67 c 1
 424 42 l 2
 374 8 304 -9 264 -9 c 0
 214 -9 72 18 72 129 c 0
 72 184 102 247 264 266 c 0
 400 281 458 323 458 361 c 0
 458 391 426 463 291 463 c 0
 212 463 138 439 94 417 c 1
 103 474 l 1
 169 508 254 512 291 512 c 0
 466 512 534 451 534 359 c 2
 534 101 l 2
 534 54 544 38 568 19 c 1
EndSplineSet
Substitution2: "Single Substitution lookup 22 subtable" uni0E38
Substitution2: "Single Substitution lookup 22 subtable" uni0E38
EndChar

StartChar: b
Encoding: 98 98 67
Width: 664
VWidth: 1467
Flags: W
HStem: -3 50<274.958 425.152> 453 56<253.589 425.76> 678 20G<98 172>
VStem: 98 74<123 132 132 361 440 698> 515 77<153.706 357.561>
LayerCount: 2
Fore
SplineSet
343 453 m 0
 282 453 207 418 172 361 c 1
 172 123 l 1
 248 51 305 47 341 47 c 0
 480 47 515 173 515 253 c 0
 515 373 445 453 343 453 c 0
352 -3 m 0
 226 -3 196 49 163 63 c 1
 153 39 131 8 100 -3 c 1
 75 16 l 2
 66 23 57 32 47 43 c 1
 66 57 91 76 98 132 c 2
 98 698 l 1
 172 698 l 1
 172 440 l 1
 207 487 294 509 354 509 c 0
 508 509 592 378 592 257 c 0
 592 150 519 -3 352 -3 c 0
EndSplineSet
Substitution2: "Single Substitution lookup 22 subtable" uni0E39
Substitution2: "Single Substitution lookup 22 subtable" uni0E39
EndChar

StartChar: c
Encoding: 99 99 68
Width: 616
VWidth: 1467
Flags: W
HStem: -8 43<256.19 435.035> 458 50<248.694 442.874>
VStem: 100 76<102.206 396.474>
LayerCount: 2
Fore
SplineSet
329 -8 m 0
 192 -8 100 63 100 141 c 2
 100 359 l 2
 100 442 199 508 329 508 c 0
 425 508 521 476 556 405 c 1
 506 373 l 1
 482 427 423 458 350 458 c 0
 268 458 176 416 176 340 c 2
 176 160 l 2
 176 95 255 35 345 35 c 0
 384 35 467 48 500 128 c 1
 556 95 l 1
 521 25 426 -8 329 -8 c 0
EndSplineSet
Substitution2: "Single Substitution lookup 22 subtable" uni0E3A
Substitution2: "Single Substitution lookup 22 subtable" uni0E3A
EndChar

StartChar: d
Encoding: 100 100 69
Width: 671
VWidth: 1467
Flags: W
HStem: -4 50<238.663 390.668> 452 56<241.114 414.117> 677 20G<494 568>
VStem: 73 78<146.004 350.699> 494 74<122 359 439 697>
LayerCount: 2
Fore
SplineSet
325 46 m 0
 359 46 418 50 494 122 c 1
 494 359 l 1
 416 447 375 452 331 452 c 0
 187 452 151 332 151 256 c 0
 151 172 185 46 325 46 c 0
316 508 m 0
 360 508 456 491 494 439 c 1
 494 697 l 1
 568 697 l 1
 568 131 l 2
 570 76 599 55 618 41 c 1
 601 22 585 9 566 -4 c 1
 535 6 515 34 502 62 c 1
 437 18 382 -4 311 -4 c 0
 159 -4 73 129 73 249 c 0
 73 379 172 508 316 508 c 0
EndSplineSet
EndChar

StartChar: e
Encoding: 101 101 70
Width: 635
VWidth: 1467
Flags: W
HStem: -6 53<247.023 406.615> 220 56<169 478.651> 458 52<250.1 415.675>
VStem: 97 72<112.539 220 276 389.122> 486 64<285.207 394.305>
LayerCount: 2
Fore
SplineSet
547 97 m 1
 496 -5 345 -6 327 -6 c 0
 214 -6 97 33 97 188 c 2
 97 361 l 2
 97 450 208 510 328 510 c 0
 442 510 550 454 550 332 c 0
 550 242 502 220 327 220 c 2
 169 220 l 1
 169 167 l 2
 169 91 263 47 342 47 c 0
 413 47 472 76 503 129 c 1
 547 97 l 1
333 458 m 0
 259 458 169 402 169 336 c 2
 169 276 l 1
 403 276 l 2
 475 276 486 293 486 329 c 0
 486 404 411 458 333 458 c 0
EndSplineSet
EndChar

StartChar: f
Encoding: 102 102 71
Width: 412
VWidth: 1467
Flags: W
HStem: 443 54<173 311> 643 52<213.399 337>
VStem: 100 73<2.88095 22 22 443 497 604.83>
LayerCount: 2
Fore
SplineSet
310 643 m 2
 173 643 173 583 173 497 c 1
 311 497 l 1
 311 443 l 1
 173 443 l 1
 173 22 l 2
 173 -6 143 -54 100 -72 c 1
 76 -53 l 2
 67 -46 58 -37 48 -26 c 1
 85 1 100 24 100 92 c 2
 100 490 l 2
 100 632 153 695 304 695 c 2
 337 695 l 1
 337 643 l 1
 310 643 l 2
EndSplineSet
EndChar

StartChar: g
Encoding: 103 103 72
Width: 657
VWidth: 1467
Flags: W
HStem: -219 58<305 450.375> 0 54<230.606 404.142> 459 53<223.986 382.526>
VStem: 62 76<158.722 363.176> 481 74<-130.176 -34 -34 67 147 386>
LayerCount: 2
Fore
SplineSet
317 54 m 0
 392 54 445 94 481 147 c 1
 481 386 l 1
 401 459 346 459 316 459 c 0
 174 459 138 344 138 255 c 0
 138 147 198 54 317 54 c 0
555 -21 m 2
 555 -145 514 -219 348 -219 c 2
 305 -219 l 1
 305 -161 l 1
 349 -161 l 2
 455 -161 482 -133 482 -46 c 0
 482 -38 481 -30 481 -22 c 2
 481 67 l 1
 444 17 348 0 308 0 c 0
 176 0 62 116 62 266 c 0
 62 381 144 512 277 512 c 0
 405 512 471 460 490 445 c 1
 503 477 524 499 553 512 c 1
 564 504 581 491 606 467 c 1
 587 453 557 432 555 377 c 2
 555 -21 l 2
EndSplineSet
EndChar

StartChar: h
Encoding: 104 104 73
Width: 630
VWidth: 1467
Flags: W
HStem: 0 21G<100 175 458 528> 446 62<266.839 406.036> 677 20G<77.3913 108.5>
VStem: 100 75<0 322.886 373 622.198> 458 70<0 386.992>
LayerCount: 2
Fore
SplineSet
100 533 m 2
 100 600 89 621 48 651 c 1
 100 697 l 1
 117 697 175 641 175 592 c 2
 175 373 l 1
 203 471 258 508 371 508 c 0
 484 508 528 408 528 304 c 2
 528 0 l 1
 458 0 l 1
 458 266 l 2
 458 404 409 446 335 446 c 0
 233 446 175 327 175 178 c 2
 175 0 l 1
 100 0 l 1
 100 533 l 2
EndSplineSet
EndChar

StartChar: i
Encoding: 105 105 74
Width: 278
VWidth: 1467
Flags: W
HStem: -25 21G<165 195.174> 556 142<89.625 172.098>
VStem: 73 115<572.21 683.094> 100 73<49.969 76 76 481>
LayerCount: 2
Fore
SplineSet
100 76 m 2xd0
 100 481 l 1
 173 481 l 1
 173 135 l 2
 173 74 185 50 224 21 c 1
 173 -25 l 1
 157 -25 100 31 100 76 c 2xd0
133 698 m 0
 166 698 188 670 188 628 c 0
 188 591 166 556 134 556 c 0
 97 556 73 589 73 627 c 0xe0
 73 667 97 698 133 698 c 0
EndSplineSet
EndChar

StartChar: j
Encoding: 106 106 75
Width: 353
VWidth: 1467
Flags: W
HStem: -222 58<3 145.416> 556 142<165.892 248.098>
VStem: 150 114<571.552 683.094> 177 71<-132.269 -37 -37 483>
LayerCount: 2
Fore
SplineSet
44 -164 m 2xd0
 150 -164 177 -136 177 -49 c 0
 177 -41 176 -33 176 -25 c 2
 175 483 l 1
 248 483 l 1
 248 -23 l 2
 248 -98 231 -150 198 -179 c 0
 165 -207 116 -222 50 -222 c 2
 3 -222 l 1
 3 -164 l 1
 44 -164 l 2xd0
209 698 m 0
 242 698 264 670 264 628 c 0
 264 591 242 556 210 556 c 0
 175 556 150 586 150 626 c 0xe0
 150 665 172 698 209 698 c 0
EndSplineSet
EndChar

StartChar: k
Encoding: 107 107 76
Width: 595
VWidth: 1467
Flags: W
HStem: 1 21G<100 173 425 499> 476 20G<384.378 496> 678 20G<76.8889 121.5>
VStem: 100 73<0 178 271 624.072> 425 74<1 240.134>
LayerCount: 2
Fore
SplineSet
100 698 m 1
 143 682 173 623 173 599 c 2
 173 271 l 1
 405 496 l 1
 496 496 l 1
 340 343 l 1
 397 336 499 306 499 160 c 2
 499 1 l 1
 425 1 l 1
 425 158 l 2
 425 268 358 287 292 295 c 1
 173 178 l 1
 173 0 l 1
 100 0 l 1
 100 538 l 2
 100 604 85 625 48 653 c 1
 100 698 l 1
EndSplineSet
EndChar

StartChar: l
Encoding: 108 108 77
Width: 278
VWidth: 1467
Flags: W
HStem: -29 21G<151.5 195.667>
VStem: 100 73<45.125 70 70 621.227>
LayerCount: 2
Fore
SplineSet
100 695 m 1
 143 680 173 620 173 596 c 2
 173 117 l 2
 173 51 213 25 224 16 c 1
 173 -29 l 1
 130 -13 100 42 100 70 c 2
 100 537 l 2
 100 601 85 622 48 651 c 1
 100 695 l 1
EndSplineSet
EndChar

StartChar: m
Encoding: 109 109 78
Width: 760
VWidth: 1467
Flags: W
HStem: 0 21G<100 175 340 417 633.5 676.609> 444 60<241.29 313.679 468.371 546.665>
VStem: 100 75<0 369.284> 340 77<-1 368.75> 581 73<37.0335 69 69 375.872>
LayerCount: 2
Fore
SplineSet
340 279 m 2
 340 335 339 444 275 444 c 0
 266 444 238 441 217 411 c 0
 194 376 175 316 175 254 c 2
 175 0 l 1
 100 0 l 1
 100 343 l 2
 100 403 92 423 50 455 c 1
 101 500 l 1
 135 489 159 453 169 421 c 1
 197 482 229 504 269 504 c 0
 338 504 365 460 392 396 c 1
 426 478 459 503 523 503 c 0
 597 503 635 472 646 413 c 0
 651 380 654 343 654 302 c 2
 654 132 l 2
 654 55 666 34 706 15 c 1
 654 -31 l 1
 613 -14 581 29 581 69 c 2
 581 366 l 2
 581 378 580 387 559 424 c 0
 549 440 535 448 516 448 c 0
 437 448 420 301 417 255 c 2
 417 -1 l 1
 340 -1 l 1
 340 279 l 2
EndSplineSet
EndChar

StartChar: n
Encoding: 110 110 79
Width: 620
VWidth: 1467
Flags: W
HStem: 0 21G<100 175 506 538.609> 449 60<298.09 396.221>
VStem: 100 75<0 258.576 342 429.227> 443 73<40.0627 72 72 394.375>
LayerCount: 2
Fore
SplineSet
443 282 m 2
 443 359 422 449 339 449 c 0
 316 449 272 446 225 341 c 0
 196 275 175 179 175 138 c 2
 175 0 l 1
 100 0 l 1
 100 346 l 2
 100 411 84 431 48 458 c 1
 101 503 l 1
 150 485 175 422 175 403 c 2
 175 342 l 1
 223 486 278 509 345 509 c 0
 448 509 516 423 516 305 c 2
 516 135 l 2
 516 58 528 37 568 18 c 1
 516 -28 l 1
 496 -20 448 9 443 72 c 2
 443 282 l 2
EndSplineSet
EndChar

StartChar: o
Encoding: 111 111 80
Width: 677
VWidth: 1467
Flags: W
HStem: -13 47<250.929 419.754> 458 51<252.096 418.489>
VStem: 97 75<111.427 376.677> 502 73<116.613 375.096>
LayerCount: 2
Fore
SplineSet
341 -13 m 0
 177 -13 97 88 97 170 c 2
 97 328 l 2
 98 453 226 509 338 509 c 0
 450 509 575 452 575 326 c 2
 575 170 l 2
 575 46 452 -13 341 -13 c 0
336 458 m 0
 253 458 172 403 172 293 c 2
 172 200 l 2
 172 87 253 34 334 34 c 0
 417 34 502 90 502 200 c 2
 502 292 l 2
 502 405 415 458 336 458 c 0
EndSplineSet
EndChar

StartChar: p
Encoding: 112 112 81
Width: 683
VWidth: 1467
Flags: W
HStem: -6 64<283.072 426.01> 446 60<274.207 431.177>
VStem: 100 73<-183 63 164 371> 511 81<156.416 357.394>
LayerCount: 2
Fore
SplineSet
345 58 m 0
 421 58 511 106 511 243 c 0
 511 333 483 446 341 446 c 0
 302 446 250 442 173 371 c 1
 173 164 l 1
 203 99 273 58 345 58 c 0
342 -6 m 0
 317 -6 215 7 173 63 c 1
 173 -183 l 1
 100 -183 l 1
 100 371 l 2
 96 427 67 447 48 461 c 1
 58 472 67 480 76 487 c 2
 101 506 l 1
 130 493 151 471 164 440 c 1
 198 466 l 2
 237 496 290 506 364 506 c 256
 487 506 592 398 592 258 c 0
 592 142 502 -6 342 -6 c 0
EndSplineSet
EndChar

StartChar: q
Encoding: 113 113 82
Width: 667
VWidth: 1467
Flags: W
HStem: -226 21G<539 582.609> -6 71<230.116 412.581> 446 60<253.099 396.678>
VStem: 65 82<146.952 337.613> 487 73<-150.906 -126 -126 63 150 376>
LayerCount: 2
Fore
SplineSet
147 235 m 0
 147 126 222 65 320 65 c 0
 376 65 440 86 487 150 c 1
 487 376 l 1
 408 445 361 446 344 446 c 0
 226 446 147 356 147 235 c 0
560 -226 m 1
 518 -208 487 -154 487 -126 c 2
 487 63 l 1
 454 19 366 -6 306 -6 c 0
 164 -6 65 116 65 247 c 0
 65 366 155 506 296 506 c 256
 416 506 462 471 496 440 c 1
 507 468 528 493 559 506 c 1
 584 487 l 2
 593 480 601 472 610 461 c 1
 593 448 564 427 560 371 c 2
 560 -62 l 2
 560 -128 573 -150 612 -180 c 1
 560 -226 l 1
EndSplineSet
EndChar

StartChar: r
Encoding: 114 114 83
Width: 404
VWidth: 1467
Flags: W
HStem: 440 59<244.552 337>
VStem: 100 74<31.0135 57 57 345.068 414 497>
LayerCount: 2
Fore
SplineSet
173 414 m 1
 216 489 274 499 313 499 c 2
 337 499 l 1
 337 440 l 1
 311 440 l 2
 196 440 174 295 174 220 c 2
 174 57 l 2
 174 32 139 -29 100 -43 c 1
 48 1 l 1
 85 29 100 52 100 120 c 2
 100 497 l 1
 173 497 l 1
 173 414 l 1
EndSplineSet
EndChar

StartChar: s
Encoding: 115 115 84
Width: 550
VWidth: 1467
Flags: W
HStem: -16 49<170.217 362.149> 459 53<186.059 361.608>
VStem: 73 77<318.12 424.798> 384 59<406 440.954> 406 75<71.7782 184.299>
LayerCount: 2
Fore
SplineSet
123 97 m 1xe8
 152 54 201 33 257 33 c 0
 311 33 406 46 406 125 c 0xe8
 406 170 390 217 240 238 c 0
 97 258 73 318 73 371 c 0
 73 470 193 512 271 512 c 0
 343 512 435 480 443 406 c 1
 384 406 l 1xf0
 380 422 363 459 267 459 c 0
 201 459 150 425 150 375 c 0
 150 328 166 291 315 272 c 0
 452 254 481 186 481 129 c 0
 481 24 356 -16 270 -16 c 0
 166 -16 81 28 53 97 c 1
 123 97 l 1xe8
EndSplineSet
EndChar

StartChar: t
Encoding: 116 116 85
Width: 412
VWidth: 1467
Flags: W
HStem: -3 53<210.908 337> 442 54<173 311>
VStem: 100 73<85.9661 442 496 622.345>
LayerCount: 2
Fore
SplineSet
100 695 m 1
 147 677 173 620 173 600 c 2
 173 496 l 1
 311 496 l 1
 311 442 l 1
 173 442 l 1
 173 183 l 2
 173 93 187 50 310 50 c 2
 337 50 l 1
 337 -3 l 1
 313 -3 l 2
 173 -3 100 38 100 201 c 2
 100 547 l 2
 96 611 77 629 48 650 c 1
 65 668 81 682 100 695 c 1
EndSplineSet
EndChar

StartChar: u
Encoding: 117 117 86
Width: 657
VWidth: 1467
Flags: W
HStem: -13 51<238.423 402.87> 479 20G<100 172 472 544>
VStem: 100 72<106.898 175 175 499> 472 72<106.821 145 145 499>
LayerCount: 2
Fore
SplineSet
326 38 m 0
 369 38 472 63 472 194 c 2
 472 499 l 1
 544 499 l 1
 544 145 l 2
 544 77 557 55 596 25 c 1
 578 8 561 -7 544 -19 c 1
 514 -8 491 21 481 44 c 1
 433 3 373 -13 321 -13 c 0
 229 -13 100 51 100 175 c 2
 100 499 l 1
 172 499 l 1
 172 194 l 2
 172 69 259 38 326 38 c 0
EndSplineSet
EndChar

StartChar: v
Encoding: 118 118 87
Width: 520
VWidth: 1467
Flags: W
HStem: -10 60<234.791 289.798> 476 20G<59 136.286 387.893 459>
VStem: 59 400<479.636 496 496 496 496 496>
LayerCount: 2
Fore
SplineSet
386 151 m 2
 378 117 343 -10 261 -10 c 0
 179 -10 145 94 136 136 c 2
 59 496 l 1
 132 496 l 1
 204 160 l 2
 218 95 236 50 261 50 c 256
 286 50 309 95 323 160 c 2
 392 496 l 1
 459 496 l 1
 386 151 l 2
EndSplineSet
EndChar

StartChar: w
Encoding: 119 119 88
Width: 735
VWidth: 1467
Flags: W
HStem: -3 21G<147.48 260 476 575.88> 477 20G<63 138.953 576 669>
LayerCount: 2
Fore
SplineSet
368 214 m 1
 338 107 300 43 220 -3 c 1
 151 -3 l 1
 63 497 l 1
 135 497 l 1
 220 67 l 1
 286 105 326 258 367 386 c 1
 408 267 442 109 508 69 c 1
 540 241 555 282 597 497 c 1
 669 497 l 1
 572 -3 l 1
 511 -3 l 1
 441 33 404 82 368 214 c 1
EndSplineSet
EndChar

StartChar: x
Encoding: 120 120 89
Width: 603
VWidth: 1467
Flags: W
HStem: 0 496<138 550 138 138>
LayerCount: 2
Fore
SplineSet
138 496 m 1
 299 298 l 1
 461 496 l 1
 547 496 l 1
 355 248 l 1
 550 0 l 1
 464 0 l 1
 299 200 l 1
 141 0 l 1
 54 0 l 1
 248 248 l 1
 51 496 l 1
 138 496 l 1
EndSplineSet
EndChar

StartChar: y
Encoding: 121 121 90
Width: 661
VWidth: 1467
Flags: W
HStem: -242 57<295 438.391> -15 53<239.54 404.482> 477 20<100 172 522.5 548>
VStem: 100 72<105.507 497> 471 73<-154.912 37 106.926 434.519>
LayerCount: 2
Fore
SplineSet
339 -185 m 2
 452 -185 471 -158 471 -45 c 2
 471 37 l 1
 424 0 366 -15 321 -15 c 0
 231 -15 100 47 100 175 c 2
 100 497 l 1
 172 497 l 1
 172 192 l 2
 172 92 234 38 326 38 c 0
 399 38 471 88 471 192 c 2
 471 414 l 2
 471 442 501 491 544 509 c 1
 552 503 560 496 568 489 c 2
 596 464 l 1
 557 433 544 411 544 345 c 2
 544 -47 l 2
 543 -170 501 -242 337 -242 c 2
 295 -242 l 1
 295 -185 l 1
 339 -185 l 2
EndSplineSet
EndChar

StartChar: z
Encoding: 122 122 91
Width: 625
VWidth: 1467
Flags: W
HStem: -1 64<170.785 536> 434 62<91 428>
VStem: 91 445<436 496>
LayerCount: 2
Fore
SplineSet
163 103 m 1
 172 71 182 63 236 63 c 2
 536 63 l 1
 536 -1 l 1
 220 -1 l 2
 111 -1 84 93 84 131 c 1
 124 171 400 400 428 434 c 1
 91 434 l 1
 91 496 l 1
 536 496 l 1
 536 436 l 1
 163 103 l 1
EndSplineSet
EndChar

StartChar: braceleft
Encoding: 123 123 92
Width: 334
VWidth: 1467
Flags: W
HStem: 697 63<224.558 281.017>
VStem: 125 76<7.64594 261 364 629.754>
LayerCount: 2
Fore
SplineSet
201 257 m 2
 201 139 l 2
 201 1 235 -40 291 -59 c 1
 291 -122 l 1
 220 -119 125 -60 125 153 c 2
 125 261 l 1
 94 281 58 298 23 311 c 1
 56 324 90 341 125 364 c 1
 125 486 l 2
 125 686 210 747 291 760 c 1
 291 697 l 1
 236 681 201 648 201 499 c 2
 201 365 l 2
 201 334 122 318 98 314 c 1
 164 296 201 292 201 257 c 2
EndSplineSet
EndChar

StartChar: bar
Encoding: 124 124 93
Width: 296
VWidth: 1467
Flags: W
VStem: 103 88<-261 791>
LayerCount: 2
Fore
SplineSet
103 -261 m 1
 101 791 l 1
 191 791 l 1
 191 -261 l 1
 103 -261 l 1
EndSplineSet
EndChar

StartChar: braceright
Encoding: 125 125 94
Width: 331
VWidth: 1467
Flags: W
HStem: -119 63<23 76.3366>
VStem: 112 76<90.2225 277 380 632.854>
LayerCount: 2
Fore
SplineSet
112 384 m 2
 112 502 l 2
 112 639 78 683 22 701 c 1
 22 763 l 1
 93 760 188 699 188 489 c 2
 188 380 l 1
 207 368 237 350 289 330 c 1
 257 317 223 300 188 277 c 1
 188 156 l 2
 188 105 186 -93 25 -119 c 1
 23 -56 l 1
 76 -40 112 -5 112 137 c 2
 112 276 l 2
 112 314 197 318 214 327 c 1
 123 350 112 355 112 384 c 2
EndSplineSet
EndChar

StartChar: asciitilde
Encoding: 126 126 95
Width: 735
VWidth: 1467
Flags: W
HStem: 200 79<446.393 570.734> 323 82<164.615 282.661>
VStem: 70 69<227 295.48> 590 70<298.515 374>
LayerCount: 2
Fore
SplineSet
215 405 m 0
 346 405 417 279 522 279 c 0
 567 279 590 311 590 374 c 1
 660 374 l 1
 660 352 l 2
 660 265 606 200 525 200 c 0
 341 200 308 323 220 323 c 0
 187 323 139 304 139 227 c 1
 70 227 l 1
 70 238 l 2
 70 296 106 405 215 405 c 0
EndSplineSet
EndChar

StartChar: uni0E33.alt1
Encoding: 65537 -1 96
Width: 523
VWidth: 1467
Flags: W
HStem: 0 21<339 418> 502 21<53.3333 66.5> 539 49<118.401 278.727> 698 34<-411.329 -345.659> 864 37<-411.904 -343.98>
VStem: -477 52<742.889 853.237> -333 53<758.035 854.424> 339 79<0 474.602>
LayerCount: 2
Back
SplineSet
185 588 m 0
 215 588 244.167 583.167 272.5 573.5 c 128
 300.833 563.833 325.833 550.167 347.5 532.5 c 128
 369.167 514.833 386.333 494.333 399 471 c 128
 411.667 447.667 418 422.333 418 395 c 2
 418 -3 l 1
 339 -3 l 1
 339 367 l 2
 339 395 337.833 418.333 335.5 437 c 128
 333.167 455.667 324.667 473.333 310 490 c 0
 296 506 278.167 518 256.5 526 c 128
 234.833 534 212.167 538.333 188.5 539 c 128
 164.833 539.667 140.667 536.833 116 530.5 c 128
 91.3333 524.167 69.3333 514.667 50 502 c 1
 57 544 l 1
 67 554 78.6667 562 92 568 c 128
 105.333 574 118.333 578.333 131 581 c 128
 143.667 583.667 155 585.5 165 586.5 c 128
 175 587.5 181.667 588 185 588 c 0
-472 737 m 0
 -473.333 765 -464 788.5 -444 807.5 c 128
 -424 826.5 -400.667 836 -374 836 c 0
 -348.667 836 -326 826.333 -306 807 c 128
 -286 787.667 -276.333 763.667 -277 735 c 0
 -275 707 -284.333 683.167 -305 663.5 c 128
 -325.667 643.833 -348.667 634 -374 634 c 0
 -402.667 634 -426.167 644.167 -444.5 664.5 c 128
 -462.833 684.833 -472 709 -472 737 c 0
-423 737 m 0
 -423 720.333 -419 704.833 -411 690.5 c 128
 -403 676.167 -390.667 668.667 -374 668 c 0
 -359.333 668 -348.167 675.333 -340.5 690 c 128
 -332.833 704.667 -328.333 720.333 -327 737 c 0
 -327 751.667 -331 765.5 -339 778.5 c 128
 -347 791.5 -358.667 798.667 -374 800 c 0
 -390 798.667 -402.167 791.167 -410.5 777.5 c 128
 -418.833 763.833 -423 750.333 -423 737 c 0
EndSplineSet
Fore
Refer: 284 3661 N 1 0 0 1 -192 0 2
Refer: 261 3634 N 1 0 0 1 0 0 2
EndChar

StartChar: quotedbl
Encoding: 34 34 97
Width: 380
VWidth: 1467
Flags: W
HStem: 497 207<87 139 239 291>
VStem: 70 238<662.971 704 704 706 704 704>
LayerCount: 2
Fore
SplineSet
291 497 m 1
 239 497 l 1
 222 704 l 1
 308 706 l 1
 291 497 l 1
139 497 m 1
 87 497 l 1
 70 704 l 1
 156 706 l 1
 139 497 l 1
EndSplineSet
EndChar

StartChar: exclam
Encoding: 33 33 98
Width: 250
VWidth: 1467
Flags: W
HStem: -3 21G<123.5 147.5>
VStem: 72 116<15.8864 137.181> 79 101<611.206 716> 94 69<207 311.794>
LayerCount: 2
Fore
SplineSet
94 207 m 1x90
 79 716 l 1
 180 716 l 1xa0
 163 207 l 1
 94 207 l 1x90
72 78 m 0xc0
 72 118 96 154 129 154 c 0
 164 154 188 119 188 78 c 0
 188 33 166 1 129 -3 c 1
 118 -2 72 11 72 78 c 0xc0
EndSplineSet
EndChar

StartChar: exclamdown
Encoding: 161 161 100
Width: 227
VWidth: 1467
Flags: W
HStem: 352 157<68.3712 147.733>
VStem: 50 116<369.586 490.664> 59 101<-210 -98.6562> 75 69<187.656 299>
LayerCount: 2
Fore
SplineSet
144 299 m 1x90
 160 -210 l 1
 59 -210 l 1xa0
 75 299 l 1
 144 299 l 1x90
166 430 m 0xc0
 166 390 142 352 109 352 c 0
 74 352 50 389 50 430 c 256
 50 472 74 508 109 509 c 0
 144 508 166 474 166 430 c 0xc0
EndSplineSet
EndChar

StartChar: cent
Encoding: 162 162 101
Width: 627
VWidth: 1467
Flags: W
HStem: 0 21G<296 381> 91 57<260.068 296 381 443.358> 555 48<386.655 473.345>
VStem: 100 76<205.546 489.777> 296 85<0 91 148 547 604 720>
LayerCount: 2
Fore
SplineSet
556 194 m 1
 527 134 458 104 381 94 c 1
 381 0 l 1
 296 0 l 1
 296 91 l 1
 183 101 100 166 100 239 c 2
 100 458 l 2
 100 526 176 596 296 604 c 1
 296 720 l 1
 381 720 l 1
 381 603 l 1
 444 595 524 567 556 503 c 1
 506 471 l 1
 485 521 440 548 381 555 c 1
 381 141 l 1
 458 153 487 194 500 226 c 1
 556 194 l 1
176 258 m 2
 176 190 277 152 296 148 c 1
 296 547 l 1
 256 538 176 499 176 439 c 2
 176 258 l 2
EndSplineSet
EndChar

StartChar: sterling
Encoding: 163 163 102
Width: 613
VWidth: 1467
Flags: W
HStem: 0 51<205 538> 308 66<92 213 304 433> 643 55<329.05 477.473>
VStem: 197 85<436.856 590.678> 229 84<138.128 276.645>
LayerCount: 2
Fore
SplineSet
313 226 m 0xe8
 313 136 269 82 205 51 c 1
 538 53 l 1
 541 0 l 1
 97 0 l 1
 94 48 l 1
 207 97 229 158 229 236 c 0xe8
 229 265 228 258 220 308 c 1
 92 308 l 1
 92 374 l 1
 213 374 l 1
 199 433 197 472 197 496 c 0
 197 610 274 698 390 698 c 0
 444 698 468 689 514 671 c 1
 492 615 l 1
 444 635 432 643 392 643 c 0
 348 643 282 617 282 494 c 0xf0
 282 445 286 418 295 381 c 1
 433 381 l 1
 433 314 l 1
 304 313 l 1
 306 300 l 2
 311 272 313 254 313 226 c 0xe8
EndSplineSet
EndChar

StartChar: currency
Encoding: 164 164 103
Width: 713
VWidth: 1467
Flags: W
HStem: 82 65<274.871 452.939> 536 65<273.319 424.697>
VStem: 95 74<213.255 465.643> 533 71<213.093 462.329>
LayerCount: 2
Fore
SplineSet
604 267 m 2
 604 231 600 214 584 188 c 1
 649 122 l 1
 610 85 l 1
 552 145 l 1
 510 106 440 82 356 82 c 0
 307 82 215 92 157 141 c 1
 94 82 l 1
 59 123 l 1
 117 183 l 1
 99 211 95 228 95 267 c 2
 95 420 l 2
 95 458 102 481 129 514 c 1
 75 566 l 1
 113 604 l 1
 166 550 l 1
 221 593 303 601 348 601 c 0
 397 601 488 592 543 544 c 1
 600 600 l 1
 643 559 l 1
 580 502 l 1
 599 473 604 449 604 414 c 2
 604 267 l 2
352 536 m 0
 251 536 169 482 169 402 c 2
 169 273 l 2
 169 198 253 147 351 147 c 0
 450 147 533 200 533 270 c 2
 533 395 l 2
 533 480 450 536 352 536 c 0
EndSplineSet
EndChar

StartChar: yen
Encoding: 165 165 104
Width: 641
VWidth: 1467
Flags: W
HStem: 0 21G<276 354> 91 81<50 276 354 596> 248 84<50 232 398 596> 678 20G<25 109.42 524.171 604>
VStem: 276 78<0 91 172 248>
LayerCount: 2
Fore
SplineSet
398 332 m 1
 596 332 l 1
 596 248 l 1
 354 248 l 1
 354 172 l 1
 596 172 l 1
 596 91 l 1
 354 91 l 1
 354 0 l 1
 276 0 l 1
 276 91 l 1
 50 91 l 1
 50 172 l 1
 276 172 l 1
 276 248 l 1
 50 248 l 1
 50 332 l 1
 232 332 l 1
 178 408 93 578 25 698 c 1
 98 698 l 1
 283 374 l 2
 297 348 307 340 313 340 c 0
 320 340 330 350 342 370 c 2
 536 698 l 1
 604 698 l 1
 600 691 399 333 398 332 c 1
EndSplineSet
EndChar

StartChar: brokenbar
Encoding: 166 166 105
Width: 247
VWidth: 1467
Flags: W
HStem: 340 372<87 164 87 164 87 87>
VStem: 87 77<-183 189 340 712>
LayerCount: 2
Fore
SplineSet
87 340 m 1
 87 712 l 1
 164 712 l 1
 164 340 l 1
 87 340 l 1
87 -183 m 1
 87 189 l 1
 164 189 l 1
 164 -183 l 1
 87 -183 l 1
EndSplineSet
EndChar

StartChar: section
Encoding: 167 167 106
Width: 591
VWidth: 1467
Flags: W
HStem: -50 57<196.604 379.284> 673 53<205.47 383.673>
VStem: 88 82<284.25 396.851 531.88 639.352> 419 90<45.2882 148.584> 427 78<288.062 394.175>
LayerCount: 2
Fore
SplineSet
403 220 m 1xe8
 449 201 509 167 509 94 c 0
 509 8 413 -50 297 -50 c 0
 214 -50 85 -18 70 65 c 1
 163 65 l 1
 183 25 222 7 296 7 c 0
 387 7 419 61 419 96 c 0xf0
 419 172 319 192 264 201 c 0
 122 224 88 286 88 343 c 0
 88 403 154 460 204 468 c 1
 98 503 87 552 87 590 c 0
 87 667 180 726 289 726 c 0
 390 726 480 681 493 619 c 1
 411 619 l 1
 391 654 367 673 301 673 c 0
 195 673 165 624 165 591 c 0
 165 535 196 519 273 497 c 1
 473 472 505 401 505 337 c 0
 505 271 428 233 403 220 c 1xe8
291 434 m 2
 237 434 170 408 170 343 c 0
 170 263 231 266 314 252 c 1
 404 264 427 304 427 338 c 0xe8
 427 361 413 408 359 422 c 2
 317 434 l 1
 291 434 l 2
EndSplineSet
EndChar

StartChar: dieresis
Encoding: 168 168 107
Width: 416
VWidth: 1467
Flags: W
HStem: 541 157<60.6744 138.733 280.674 358.733>
VStem: 43 114<558.837 680.224> 263 114<558.837 680.224>
LayerCount: 2
Fore
SplineSet
157 619 m 256
 157 579 133 541 100 541 c 0
 66 541 43 576 43 619 c 256
 43 660 66 697 100 698 c 0
 135 697 157 661 157 619 c 256
377 619 m 256
 377 579 353 541 320 541 c 0
 286 541 263 576 263 619 c 256
 263 660 286 697 320 698 c 0
 355 697 377 661 377 619 c 256
EndSplineSet
EndChar

StartChar: copyright
Encoding: 169 169 108
Width: 893
VWidth: 1467
Flags: W
HStem: -23 60<306.517 584.072> 99 48<355.661 525.137> 555 44<350.22 516.577> 660 61<304.467 584.199>
VStem: 101 75<132.47 164 164 569.893> 233 69<194.097 509.483> 713 76<130.166 164 164 569.372>
LayerCount: 2
Fore
SplineSet
101 534 m 2
 101 648 252 721 453 721 c 0
 638 721 789 646 789 534 c 2
 789 164 l 2
 789 52 640 -23 450 -23 c 0
 311 -23 101 22 101 164 c 2
 101 534 l 2
445 37 m 0
 583 37 713 91 713 195 c 2
 713 506 l 2
 713 600 595 660 445 660 c 0
 342 660 176 625 176 506 c 2
 176 195 l 2
 176 90 309 37 445 37 c 0
603 480 m 1
 573 551 464 555 449 555 c 0
 328 555 302 499 302 434 c 2
 302 252 l 2
 302 226 314 147 461 147 c 0
 532 147 590 174 612 227 c 1
 656 200 l 1
 608 102 471 99 447 99 c 0
 310 99 233 178 233 242 c 2
 233 453 l 2
 233 518 304 599 442 599 c 0
 510 599 615 578 656 496 c 1
 603 480 l 1
EndSplineSet
EndChar

StartChar: ordfeminine
Encoding: 170 170 109
Width: 422
VWidth: 1467
Flags: W
HStem: 276 41<110.529 235.309> 586 35<126.585 272.236>
VStem: 47 54<329.844 402.788> 302 52<368 464 493.859 534.177>
LayerCount: 2
Fore
SplineSet
101 361 m 0
 101 344 118 317 183 317 c 0
 206 317 249 324 283 352 c 2
 302 368 l 1
 302 464 l 1
 236 410 101 445 101 361 c 0
376 299 m 1
 366 287 352 289 337 280 c 1
 323 286 306 305 302 324 c 1
 265 295 209 276 170 276 c 0
 123 276 47 302 47 368 c 0
 47 474 220 460 274 490 c 0
 290 499 301 509 301 521 c 0
 301 534 280 586 197 586 c 0
 148 586 97 566 75 555 c 1
 79 596 l 1
 124 617 178 621 203 621 c 0
 288 621 354 580 354 519 c 2
 354 349 l 2
 354 323 357 313 376 299 c 1
EndSplineSet
EndChar

StartChar: guillemotleft
Encoding: 171 171 110
Width: 660
VWidth: 1467
Flags: W
HStem: 67 364<271 355 271 271>
LayerCount: 2
Fore
SplineSet
38 245 m 1
 107 276 204 338 271 431 c 1
 355 431 l 1
 299 349 196 267 148 248 c 1
 196 229 310 134 355 67 c 1
 274 67 l 1
 183 176 91 232 38 245 c 1
273 245 m 1
 342 276 439 338 506 431 c 1
 590 431 l 1
 526 337 419 262 383 248 c 1
 428 230 546 133 590 67 c 1
 509 67 l 1
 482 99 371 221 273 245 c 1
EndSplineSet
EndChar

StartChar: logicalnot
Encoding: 172 172 111
Width: 693
VWidth: 1467
Flags: W
HStem: 134 286<563 629 56 563 629 629> 354 66<56 563>
VStem: 563 66<134 354>
LayerCount: 2
Fore
SplineSet
563 134 m 1xa0
 563 354 l 1
 56 354 l 1x60
 56 420 l 1
 629 420 l 1
 629 134 l 1
 563 134 l 1xa0
EndSplineSet
EndChar

StartChar: registered
Encoding: 174 174 112
Width: 710
VWidth: 1467
Flags: W
HStem: 202 51<260.387 463.898> 445 54<361 407.057> 587 39<364 428.675> 672 53<248.573 454.592>
VStem: 100 70<329.08 601.633> 425 46<359 427.024> 434 41<508.092 580.928> 544 68<321.062 599.425>
LayerCount: 2
Fore
SplineSet
359 202 m 0xf9
 221 202 100 277 100 387 c 2
 100 540 l 2
 100 660 222 725 356 725 c 0
 479 725 612 667 612 540 c 2
 612 387 l 2
 612 267 488 202 359 202 c 0xf9
352 672 m 0
 265 672 170 630 170 533 c 2
 170 396 l 2
 170 297 277 253 364 253 c 0
 445 253 544 295 544 387 c 2
 544 534 l 2
 544 627 441 672 352 672 c 0
471 359 m 2xfd
 471 428 454 451 408 465 c 1
 443 474 475 496 475 537 c 0xfb
 475 573 459 626 362 626 c 2
 263 626 l 1
 263 313 l 1
 308 313 l 1
 308 445 l 1
 324 445 l 2
 387 445 425 439 425 358 c 2
 425 313 l 1
 471 313 l 1
 471 359 l 2xfd
434 537 m 0
 434 512 421 505 361 499 c 2
 308 499 l 1
 308 587 l 1
 364 587 l 2
 413 587 434 581 434 537 c 0
EndSplineSet
EndChar

StartChar: macron
Encoding: 175 175 113
Width: 346
VWidth: 1467
Flags: W
HStem: 609 70<53 286 53 286 53 53>
LayerCount: 2
Fore
SplineSet
53 609 m 1
 53 679 l 1
 286 679 l 1
 286 609 l 1
 53 609 l 1
EndSplineSet
EndChar

StartChar: degree
Encoding: 176 176 114
Width: 321
VWidth: 1467
Flags: W
HStem: 483 39<116.473 191.315> 673 43<116.84 193.586>
VStem: 40 60<556.392 656.724> 210 60<539.021 658.522>
LayerCount: 2
Fore
SplineSet
156 483 m 0
 86 483 40 541 40 602 c 0
 40 670 96 716 156 716 c 0
 213 716 270 666 270 600 c 0
 270 529 208 483 156 483 c 0
156 673 m 0
 119 673 100 632 100 602 c 0
 100 576 111 522 156 522 c 0
 194 522 210 576 210 602 c 0
 210 632 191 673 156 673 c 0
EndSplineSet
EndChar

StartChar: plusminus
Encoding: 177 177 115
Width: 657
VWidth: 1467
Flags: W
HStem: 0 75<51 594> 327 76<48 280 354 593>
VStem: 280 74<139 327 403 599>
LayerCount: 2
Fore
SplineSet
354 327 m 1
 354 139 l 1
 280 139 l 1
 280 327 l 1
 48 327 l 1
 48 403 l 1
 280 403 l 1
 280 599 l 1
 354 599 l 1
 354 403 l 1
 593 403 l 1
 593 327 l 1
 354 327 l 1
51 0 m 1
 50 75 l 1
 594 75 l 1
 596 0 l 1
 51 0 l 1
EndSplineSet
EndChar

StartChar: twosuperior
Encoding: 178 178 116
Width: 435
VWidth: 1467
Flags: W
HStem: 280 52<141 357> 660 47<142.568 293.226>
VStem: 56 301<280 332 280 609 280 280> 305 59<557.612 647.024>
LayerCount: 2
Fore
SplineSet
141 332 m 1xd0
 357 332 l 1
 357 280 l 1
 56 280 l 1
 56 332 l 1xe0
 217 475 l 2
 265 527 305 581 305 607 c 0
 305 628 292 660 230 660 c 0
 178 660 117 631 75 597 c 1
 75 649 l 1
 116 684 169 707 220 707 c 0
 282 707 364 687 364 609 c 0
 364 554 321 501 270 450 c 0
 206 387 141 332 141 332 c 1xd0
EndSplineSet
EndChar

StartChar: threesuperior
Encoding: 179 179 117
Width: 407
VWidth: 1467
Flags: W
HStem: 281 427<153 248 185 191 185 185> 281 54<98.4801 247.116> 477 70<114 208.256> 659 49<136.031 247.293>
VStem: 62 285<342 358 358 410 301 301> 264 67<583.948 640.48> 271 76<358.117 454.678>
LayerCount: 2
Fore
SplineSet
210 514 m 1x84
 247 514 347 494 347 410 c 0
 347 342 282 281 191 281 c 0
 153 281 82 288 62 301 c 1x88
 59 358 l 1
 102 343 127 335 173 335 c 0
 253 335 271 379 271 408 c 0x42
 271 473 201 477 140 477 c 2
 114 477 l 1
 114 547 l 1
 183 547 264 572 264 609 c 0
 264 627 243 659 166 659 c 0x74
 131 659 99 648 67 638 c 1
 70 690 l 1
 90 695 142 708 185 708 c 0
 248 708 331 682 331 608 c 0
 331 591 329 539 210 515 c 1
 210 514 l 1x84
EndSplineSet
EndChar

StartChar: acute
Encoding: 180 180 118
Width: 325
VWidth: 1467
Flags: W
HStem: 514 206<144 166 100 239 144 144>
LayerCount: 2
Fore
SplineSet
166 514 m 1
 100 514 l 1
 144 720 l 1
 239 720 l 1
 166 514 l 1
EndSplineSet
EndChar

StartChar: mu
Encoding: 181 181 119
AltUni2: 0003bc.ffffffff.0
Width: 699
VWidth: 1467
Flags: W
HStem: -10 66<289.34 423.65> 491 20G<107 194 508 596>
VStem: 107 87<-245 65 150.935 511> 512 84<1 95 139.414 511>
LayerCount: 2
Fore
SplineSet
351 56 m 0
 447 56 508 142 508 216 c 2
 508 511 l 1
 596 511 l 1
 596 1 l 1
 512 1 l 1
 512 95 l 1
 463 24 407 -10 337 -10 c 0
 306 -10 239 -6 194 65 c 1
 194 -245 l 1
 107 -245 l 1
 107 511 l 1
 194 511 l 1
 194 264 l 2
 194 166 238 56 351 56 c 0
EndSplineSet
EndChar

StartChar: paragraph
Encoding: 182 182 120
Width: 607
VWidth: 1467
Flags: W
HStem: 631 79<315 427>
VStem: 42 463<363 593> 42 273<365.355 552.219> 239 76<-54 315> 427 78<-54 631>
LayerCount: 2
Fore
SplineSet
174 301 m 0x98
 95 301 42 363 42 453 c 0xc0
 42 593 159 710 273 710 c 2
 505 710 l 1
 505 -54 l 1
 427 -54 l 1
 427 631 l 1
 315 631 l 1
 315 -54 l 1
 239 -54 l 1
 239 315 l 1
 217 306 195 301 174 301 c 0x98
EndSplineSet
EndChar

StartChar: periodcentered
Encoding: 183 183 121
Width: 388
VWidth: 1467
Flags: W
HStem: 232 233<121.941 255.781>
VStem: 70 235<280.975 414.463>
LayerCount: 2
Fore
SplineSet
188 465 m 0
 258 465 305 410 305 348 c 256
 305 284 257 232 188 232 c 0
 127 232 70 279 70 348 c 0
 70 415 128 465 188 465 c 0
EndSplineSet
EndChar

StartChar: cedilla
Encoding: 184 184 122
Width: 393
VWidth: 1467
Flags: W
HStem: -200 35<110.854 212.96> -79 34<159.596 237.006>
VStem: 238 68<-140.44 -82.7056>
LayerCount: 2
Fore
SplineSet
230 -45 m 0
 264 -45 306 -58 306 -99 c 0
 306 -134 262 -200 163 -200 c 0
 155 -200 112 -200 85 -186 c 1
 92 -158 l 1
 102 -162 113 -165 128 -165 c 0
 189 -165 238 -138 238 -105 c 0
 238 -89 221 -79 192 -79 c 0
 163 -79 115 -90 100 -98 c 1
 166 7 l 1
 239 7 l 1
 198 -47 l 1
 208 -46 218 -45 230 -45 c 0
EndSplineSet
EndChar

StartChar: onesuperior
Encoding: 185 185 123
Width: 272
VWidth: 1467
Flags: W
HStem: 280 411<125 179 125 179 125 125>
VStem: 116 63<280 634>
LayerCount: 2
Fore
SplineSet
116 634 m 1
 75 609 l 1
 75 663 l 1
 125 691 l 1
 179 691 l 1
 179 280 l 1
 116 280 l 1
 116 634 l 1
EndSplineSet
EndChar

StartChar: ordmasculine
Encoding: 186 186 124
Width: 450
VWidth: 1467
Flags: W
HStem: 273 45<141.762 299.439> 586 42<144.261 298.984>
VStem: 38 63<356.107 545.399> 340 63<354.953 548.327>
LayerCount: 2
Fore
SplineSet
222 273 m 0
 121 273 38 323 38 399 c 2
 38 503 l 2
 38 578 117 628 220 628 c 0
 300 628 403 594 403 503 c 2
 403 399 l 2
 403 309 299 273 222 273 c 0
225 586 m 0
 182 586 101 566 101 487 c 2
 101 412 l 2
 101 336 180 318 221 318 c 0
 263 318 340 337 340 412 c 2
 340 487 l 2
 340 566 266 586 225 586 c 0
EndSplineSet
EndChar

StartChar: guillemotright
Encoding: 187 187 125
Width: 607
VWidth: 1467
Flags: W
HStem: 84 363<254 337 254 254>
LayerCount: 2
Fore
SplineSet
571 270 m 1
 501 239 405 177 337 84 c 1
 254 84 l 1
 309 163 413 249 461 267 c 1
 413 285 293 387 254 447 c 1
 335 447 l 1
 364 410 476 294 571 270 c 1
336 270 m 1
 267 239 170 177 103 84 c 1
 19 84 l 1
 74 163 178 249 226 267 c 1
 194 279 73 369 19 447 c 1
 100 447 l 1
 129 410 241 294 336 270 c 1
EndSplineSet
EndChar

StartChar: onequarter
Encoding: 188 188 126
Width: 883
VWidth: 1467
Flags: W
HStem: -6 21G<134 211.966> 92 61<519 669 731 779> 681 20G<115.286 205 547.062 626>
VStem: 142 63<291 644> 669 62<7 92 153 268.5 268.5 327.791 327.791 384>
LayerCount: 2
Fore
SplineSet
142 644 m 1
 101 619 l 1
 101 673 l 1
 151 701 l 1
 205 701 l 1
 205 291 l 1
 142 291 l 1
 142 644 l 1
732 418 m 1
 732 359 731 329 731 270 c 2
 731 153 l 1
 779 153 l 1
 779 92 l 1
 731 92 l 1
 731 7 l 1
 669 7 l 1
 669 92 l 1
 450 92 l 1
 450 144 l 1
 468 171 595 362 629 418 c 1
 732 418 l 1
669 153 m 1
 669 245 671 292 671 384 c 1
 519 153 l 1
 669 153 l 1
626 706 m 1
 200 -6 l 1
 134 -6 l 1
 559 706 l 1
 626 706 l 1
EndSplineSet
LCarets2: 2 0 0 
Ligature2: "'frac' Diagonal Fractions in Latin lookup 0 subtable" one fraction four
Ligature2: "'frac' Diagonal Fractions in Latin lookup 0 subtable" one slash four
EndChar

StartChar: onehalf
Encoding: 189 189 127
Width: 883
VWidth: 1467
Flags: W
HStem: -15 21G<119 196.994> 21 51<572 785> 400 47<595.069 720.325> 677 20G<532.062 612>
VStem: 125 63<279 632> 733 59<297.729 386.487>
LayerCount: 2
Fore
SplineSet
658 400 m 0
 592 400 508 342 503 337 c 1
 503 389 l 1
 560 437 618 447 649 447 c 0
 712 447 792 427 792 347 c 0
 792 310 775 261 670 162 c 2
 572 72 l 1
 785 72 l 1
 785 21 l 1
 484 21 l 1
 484 72 l 1
 646 216 l 2
 683 253 733 321 733 347 c 0
 733 368 720 400 658 400 c 0
125 632 m 1
 84 607 l 1
 84 662 l 1
 134 690 l 1
 188 690 l 1
 188 279 l 1
 125 279 l 1
 125 632 l 1
612 697 m 1
 185 -15 l 1
 119 -15 l 1
 544 697 l 1
 612 697 l 1
EndSplineSet
LCarets2: 2 0 0 
Ligature2: "'frac' Diagonal Fractions in Latin lookup 0 subtable" one fraction two
Ligature2: "'frac' Diagonal Fractions in Latin lookup 0 subtable" one slash two
EndChar

StartChar: threequarters
Encoding: 190 190 128
Width: 883
VWidth: 1467
Flags: W
HStem: -12 21G<220 297.994> 92 61<536 685 747 795> 274 53<152.163 265.597> 470 70<135 229.162> 651 49<91.8461 269.216>
VStem: 285 67<577.089 633.023> 292 74<351.749 448.923> 685 62<7 92 153 269.5 269.5 327.791 327.791 349 349 384>
LayerCount: 2
Fore
SplineSet
352 601 m 0xfd
 352 585 351 531 230 508 c 1
 230 506 l 1
 263 506 366 489 366 401 c 0
 366 331 296 274 213 274 c 0
 160 274 105 283 82 293 c 1
 79 351 l 1
 121 334 157 327 191 327 c 0
 248 327 292 352 292 401 c 0xfb
 292 466 223 470 160 470 c 2
 135 470 l 1
 135 540 l 1
 208 540 285 565 285 602 c 0
 285 622 261 651 184 651 c 0
 146 651 126 641 88 631 c 1
 91 682 l 1
 116 690 154 700 205 700 c 0
 293 700 352 660 352 601 c 0xfd
748 418 m 1
 748 359 747 329 747 270 c 2
 747 153 l 1
 795 153 l 1
 795 92 l 1
 747 92 l 1
 747 7 l 1
 685 7 l 1
 685 92 l 1
 467 92 l 1
 467 144 l 1
 646 418 l 1
 748 418 l 1
685 190 m 2
 685 254 687 285 687 349 c 2
 687 384 l 1
 536 153 l 1
 685 153 l 1
 685 190 l 2
713 700 m 1
 286 -12 l 1
 220 -12 l 1
 646 700 l 1
 713 700 l 1
EndSplineSet
LCarets2: 2 0 0 
Ligature2: "'frac' Diagonal Fractions in Latin lookup 0 subtable" three fraction four
Ligature2: "'frac' Diagonal Fractions in Latin lookup 0 subtable" three slash four
EndChar

StartChar: questiondown
Encoding: 191 191 129
Width: 616
VWidth: 1467
Flags: W
HStem: -229 49<229.455 362.445> 30 48<402.512 459.194> 382 133<272 350.734>
VStem: 87 77<-112.8 34.1151> 258 106<393.685 502.977> 268 89<258.671 312.849 308.977 316.721> 312 59<-129.361 -5.42342> 466 60<-101.274 13.851>
LayerCount: 2
Fore
SplineSet
377 -167 m 1xf5
 324 -147 312 -114 312 -71 c 0xf3
 312 38 400 78 434 78 c 0
 496 78 526 12 526 -43 c 0
 526 -192 383 -229 310 -229 c 0
 178 -229 87 -139 87 -32 c 0
 87 26 122 85 160 114 c 2
 196 142 l 2
 240 179 250 194 262 252 c 0
 265 267 268 282 268 301 c 0
 268 306 267 311 267 317 c 1
 354 318 l 1
 356 309 357 298 357 286 c 0
 357 257 345 190 309 152 c 0
 289 132 253 97 219 75 c 1
 179 36 164 0 164 -43 c 0
 164 -117 228 -180 304 -180 c 0
 348 -180 365 -174 377 -167 c 1xf5
403 -132 m 0
 430 -132 466 -90 466 -27 c 0
 466 -7 460 30 437 30 c 0
 411 30 371 -19 371 -77 c 0
 371 -121 390 -132 403 -132 c 0
310 382 m 0
 278 382 258 410 258 447 c 0
 258 483 279 515 310 515 c 0
 342 515 364 486 364 450 c 0xf9
 364 396 332 382 310 382 c 0
EndSplineSet
EndChar

StartChar: Aring
Encoding: 197 197 134
Width: 764
VWidth: 1467
Flags: W
HStem: 0 21G<91 171.929 594.408 675> 211 59<235 527> 647 84<343.436 414.797> 882 42<341.517 418.833>
VStem: 264 62<764.846 867.371> 434 60<765.66 867.424>
LayerCount: 2
Fore
SplineSet
494 806 m 0
 494 742 445 710 423 700 c 1
 449 691 497 674 527 562 c 2
 675 0 l 1
 600 0 l 1
 541 211 l 1
 219 211 l 1
 167 0 l 1
 91 0 l 1
 222 533 l 2
 245 618 274 685 333 701 c 1
 296 719 264 759 264 810 c 0
 264 868 313 924 380 924 c 0
 448 924 494 864 494 806 c 0
380 882 m 0
 349 882 326 850 326 811 c 0
 326 786 337 731 380 731 c 0
 424 731 434 789 434 811 c 0
 434 852 410 882 380 882 c 0
527 270 m 1
 465 508 l 2
 442 576 424 647 376 647 c 0
 320 647 309 546 296 508 c 2
 235 270 l 1
 527 270 l 1
EndSplineSet
EndChar

StartChar: AE
Encoding: 198 198 135
Width: 1113
VWidth: 1467
Flags: W
HStem: 1 77<723.971 1043> 230 69<257 550> 314 69<647 932> 644 76<712.819 1043> 655 71<432.787 538.988>
VStem: 550 76<1 79> 552 95<146.46 230 301 314 383 585.093>
LayerCount: 2
Fore
SplineSet
619 638 m 1xec
 641 670 685 718 844 720 c 2
 1043 720 l 1
 1043 644 l 1
 841 644 l 2
 701 644 647 603 647 500 c 2
 647 383 l 1
 932 383 l 1
 932 314 l 1
 647 314 l 1
 647 235 l 2xf2
 647 116 723 81 841 78 c 2
 1043 78 l 1
 1043 1 l 1
 844 1 l 2
 714 5 663 30 626 79 c 1
 626 1 l 1
 550 1 l 1
 550 230 l 1
 220 230 l 1
 101 1 l 1
 18 1 l 1
 295 546 l 2
 357 678 416 726 497 726 c 0
 567 726 612 673 619 638 c 1xec
552 301 m 1
 552 574 l 2
 552 636 529 655 493 655 c 0xea
 408 655 386 561 362 521 c 2
 257 299 l 1
 552 301 l 1
EndSplineSet
EndChar

StartChar: Eth
Encoding: 208 208 145
Width: 782
VWidth: 1467
Flags: W
HStem: -9 66<185 209.523 209.523 408.431> 308 69<0 98 185 392> 643 66<185 388.222>
VStem: 98 87<57 308 377 643> 578 88<216.815 488.266>
LayerCount: 2
Fore
SplineSet
98 709 m 1
 402 709 666 684 666 352 c 0
 666 56 474 -9 224 -9 c 2
 98 -9 l 1
 98 308 l 1
 0 308 l 1
 0 377 l 1
 98 377 l 1
 98 709 l 1
578 369 m 0
 578 588 448 643 199 643 c 2
 185 643 l 1
 185 377 l 1
 392 377 l 1
 392 308 l 1
 185 308 l 1
 185 57 l 1
 202 56 218 56 234 56 c 0
 469 56 578 119 578 369 c 0
EndSplineSet
EndChar

StartChar: multiply
Encoding: 215 215 152
Width: 660
VWidth: 1467
Flags: W
HStem: -6 21G<63.5714 122.55 518.877 575.714>
LayerCount: 2
Fore
SplineSet
538 -6 m 1
 320 222 l 1
 103 0 l 1
 34 35 l 1
 270 271 l 1
 34 521 l 1
 100 556 l 1
 327 315 l 1
 560 553 l 1
 619 514 l 1
 373 267 l 1
 604 29 l 1
 538 -6 l 1
EndSplineSet
EndChar

StartChar: Oslash
Encoding: 216 216 153
Width: 752
VWidth: 1467
Flags: W
HStem: -15 62<318.865 488.914> 649 64<262.862 421.013>
VStem: 100 85<152.145 579.385> 565 85<114.53 585.716>
LayerCount: 2
Fore
SplineSet
370 713 m 0
 413 713 469 701 493 694 c 1
 511 729 l 1
 599 729 l 1
 566 662 l 1
 610 637 650 594 650 528 c 2
 650 167 l 2
 650 30 469 -15 361 -15 c 0
 338 -15 302 -12 246 4 c 1
 226 -37 l 1
 136 -37 l 1
 175 41 l 1
 125 76 100 118 100 167 c 2
 100 528 l 2
 100 661 270 713 370 713 c 0
374 649 m 0
 291 649 185 621 185 509 c 2
 185 186 l 2
 185 153 193 128 207 109 c 1
 467 638 l 1
 439 645 408 649 374 649 c 0
374 47 m 0
 466 47 565 75 565 186 c 2
 565 509 l 2
 565 545 555 574 534 597 c 1
 274 62 l 1
 311 48 354 47 374 47 c 0
EndSplineSet
EndChar

StartChar: Thorn
Encoding: 222 222 159
Width: 701
VWidth: 1467
Flags: W
HStem: 94 59<280.309 438.153> 553 60<260.092 424.627> 681 20G<100 178>
VStem: 100 78<6 157 229 459 546 701> 530 86<252.319 450.958>
LayerCount: 2
Fore
SplineSet
346 613 m 0
 508 613 616 513 616 343 c 0
 616 193 495 94 370 94 c 0
 252 94 213 133 178 157 c 1
 178 6 l 1
 100 6 l 1
 100 701 l 1
 178 701 l 1
 178 546 l 1
 209 592 302 613 346 613 c 0
347 153 m 0
 493 153 530 275 530 357 c 0
 530 497 414 553 340 553 c 0
 288 553 210 514 178 459 c 1
 178 229 l 1
 253 156 315 153 347 153 c 0
EndSplineSet
EndChar

StartChar: uni00DF
Encoding: 223 223 160
Width: 793
VWidth: 1467
Flags: W
HStem: -125 59<3 95.6145> -3 68<298 529.666> 376 96<336 372.5 372.5 458.639> 643 66<230.348 503.206>
VStem: 114 87<-48.0253 5 5 613.433> 527 86<514.235 618.233> 600 91<130.371 291.258>
LayerCount: 2
Fore
SplineSet
201 58 m 2xfc
 201 -35 202 -125 25 -125 c 2
 3 -125 l 1
 3 -66 l 1
 25 -66 l 2
 100 -66 114 -35 114 5 c 2
 114 528 l 2
 120 609 145 709 267 709 c 2
 424 709 l 2
 514 709 613 680 613 565 c 0xfc
 613 476 542 445 461 424 c 1
 526 410 l 2
 612 391 691 330 691 210 c 0
 691 48 561 -3 412 -3 c 2
 298 -3 l 1
 298 65 l 1
 423 65 l 2
 580 65 600 159 600 214 c 0xfa
 600 344 465 370 409 376 c 2
 336 376 l 1
 336 468 l 1
 409 472 l 2
 464 472 527 510 527 568 c 0
 527 628 474 643 428 643 c 2
 303 643 l 2
 223 643 201 607 201 524 c 2
 201 58 l 2xfc
EndSplineSet
EndChar

StartChar: ae
Encoding: 230 230 167
Width: 999
VWidth: 1467
Flags: W
HStem: -16 56<169.565 366.946 589.716 774.419> 220 54<521 841.05> 464 51<162.164 381.962 603.036 778.435>
VStem: 63 73<70.5401 182.97> 443 78<129 220 274 276 331.201 397.817> 860 67<293.643 392.044>
LayerCount: 2
Fore
SplineSet
521 138 m 1
 541 68 615 40 699 40 c 0
 787 40 845 72 869 126 c 1
 923 95 l 1
 869 -12 719 -14 694 -14 c 0
 568 -14 490 44 477 75 c 1
 477 75 413 -16 279 -16 c 0
 166 -16 63 38 63 128 c 0
 63 216 131 257 232 275 c 0
 351 296 440 318 440 362 c 0
 440 404 394 464 285 464 c 0
 228 464 155 445 94 415 c 1
 117 477 l 1
 164 498 220 515 284 515 c 0
 357 515 452 494 487 434 c 1
 526 480 591 510 679 510 c 0
 795 510 927 456 927 335 c 0
 927 245 884 220 746 220 c 2
 521 220 l 1
 521 138 l 1
860 335 m 0
 860 376 815 460 696 460 c 0
 647 460 546 443 521 358 c 1
 521 274 l 1
 707 274 l 2
 806 274 860 281 860 335 c 0
136 128 m 0
 136 75 169 40 271 40 c 0
 387 40 434 116 443 129 c 1
 443 276 l 1
 406 255 368 244 320 236 c 2
 272 228 l 2
 183 212 136 188 136 128 c 0
EndSplineSet
EndChar

StartChar: eth
Encoding: 240 240 177
Width: 729
VWidth: 1467
Flags: W
HStem: 4 65<246.464 470.648> 370 66<224.108 435.384>
VStem: 78 69<156.163 299.703> 554 70<147.87 271.834 260.058 283.611 283.611 289>
LayerCount: 2
Fore
SplineSet
357 719 m 1
 400 665 410 658 442 616 c 1
 563 672 l 1
 590 619 l 1
 472 568 l 1
 504 531 592 415 619 301 c 0
 622 284 624 265 624 246 c 0
 624 152 582 4 349 4 c 0
 203 4 78 85 78 235 c 0
 78 315 136 436 324 436 c 0
 376 436 439 422 524 371 c 1
 515 389 488 441 418 544 c 1
 280 483 l 1
 248 538 l 1
 377 594 l 1
 341 645 318 673 274 719 c 1
 357 719 l 1
331 370 m 0
 175 370 147 275 147 227 c 0
 147 168 191 69 367 69 c 0
 517 69 554 160 554 241 c 0
 554 260 554 256 549 289 c 1
 489 349 402 370 331 370 c 0
EndSplineSet
EndChar

StartChar: divide
Encoding: 247 247 184
Width: 652
VWidth: 1467
Flags: W
HStem: 29 157<275.865 354.232> 246 74<48 594> 384 157<266.865 344.593>
VStem: 248 116<402.279 522.757> 257 116<48.0468 167.757>
LayerCount: 2
Fore
SplineSet
364 463 m 0xf0
 364 424 340 384 305 384 c 0
 271 384 248 419 248 462 c 256
 248 505 274 541 305 541 c 0
 339 541 364 503 364 463 c 0xf0
314 186 m 0
 348 186 373 148 373 108 c 0
 373 68 348 29 314 29 c 0
 280 29 257 64 257 107 c 256xe8
 257 150 283 186 314 186 c 0
594 320 m 1
 594 246 l 1
 48 246 l 1
 48 320 l 1
 594 320 l 1
EndSplineSet
EndChar

StartChar: oslash
Encoding: 248 248 185
Width: 625
VWidth: 1467
Flags: W
HStem: -15 49<265.709 389.884> 456 52<218.013 346.015>
VStem: 66 73<113.763 377.386> 471 72<116.094 374.73>
LayerCount: 2
Fore
SplineSet
456 471 m 1
 533 422 543 363 543 324 c 2
 543 169 l 2
 543 43 416 -15 306 -15 c 0
 279 -15 252 -11 226 -4 c 1
 210 -37 l 1
 128 -37 l 1
 157 23 l 1
 103 57 66 111 66 169 c 2
 66 330 l 2
 66 437 173 508 305 508 c 0
 334 508 362 504 389 497 c 1
 405 530 l 1
 486 530 l 1
 456 471 l 1
304 456 m 0
 221 456 139 401 139 292 c 2
 139 198 l 2
 139 146 158 107 185 81 c 1
 364 446 l 1
 345 453 325 456 304 456 c 0
305 34 m 0
 395 34 471 99 471 198 c 2
 471 291 l 2
 471 340 452 381 425 408 c 1
 248 43 l 1
 266 37 285 34 305 34 c 0
EndSplineSet
EndChar

StartChar: thorn
Encoding: 254 254 191
Width: 711
VWidth: 1467
Flags: W
HStem: -212 21G<100 178> -15 60<280.426 436.468> 444 61<260.288 425.142> 684 20G<100 178>
VStem: 100 78<-212 48 120 351 437 704> 530 86<143.892 337.911>
LayerCount: 2
Fore
SplineSet
348 505 m 0
 505 505 616 407 616 234 c 0
 616 98 513 -15 362 -15 c 0
 265 -15 222 18 178 48 c 1
 178 -212 l 1
 100 -212 l 1
 100 704 l 1
 178 704 l 1
 178 437 l 1
 209 482 294 505 348 505 c 0
348 45 m 0
 493 45 530 168 530 248 c 0
 530 381 423 444 343 444 c 0
 291 444 214 409 178 351 c 1
 178 120 l 1
 253 47 318 45 348 45 c 0
EndSplineSet
EndChar

StartChar: Lslash
Encoding: 321 321 193
Width: 595
VWidth: 1467
Flags: W
HStem: 0 79<175 533> 690 20G<95 175>
VStem: 95 80<79 295 412 710>
LayerCount: 2
Fore
SplineSet
95 0 m 1
 95 295 l 1
 78 284 62 273 46 260 c 2
 0 226 l 1
 0 308 l 1
 95 377 l 1
 95 710 l 1
 175 710 l 1
 175 412 l 1
 251 464 l 2
 276 483 302 500 327 516 c 1
 327 433 l 1
 175 330 l 1
 175 79 l 1
 533 79 l 1
 533 0 l 1
 95 0 l 1
EndSplineSet
EndChar

StartChar: lslash
Encoding: 322 322 194
Width: 269
VWidth: 1467
Flags: W
HStem: 0 21G<88 167>
VStem: 88 79<0 329 456 756>
LayerCount: 2
Fore
SplineSet
167 368 m 1
 167 0 l 1
 88 0 l 1
 88 329 l 1
 13 266 l 1
 13 351 l 1
 88 411 l 1
 88 756 l 1
 167 756 l 1
 167 456 l 1
 204 487 213 491 242 516 c 1
 242 431 l 1
 167 368 l 1
EndSplineSet
EndChar

StartChar: OE
Encoding: 338 338 195
Width: 1065
VWidth: 1467
Flags: W
HStem: 0 57<253.296 484.042 662.059 999> 320 59<578 888> 644 57<263.536 480.616 672.413 801 803 850.6 850.6 950.4 950.4 999>
VStem: 100 72<126.389 573.002> 506 72<141.061 320 379 558.865>
LayerCount: 2
Fore
SplineSet
578 247 m 2
 578 88 665 57 801 57 c 2
 999 57 l 1
 1002 0 l 1
 805 0 l 2
 649 2 600 39 569 69 c 1
 519 10 422 -6 358 -6 c 0
 145 -6 100 143 100 210 c 2
 100 508 l 2
 100 579 170 706 359 706 c 0
 423 706 519 690 569 631 c 1
 600 661 645 694 803 701 c 0
 822 701 842 703 900 703 c 0
 959 703 979 701 999 701 c 1
 999 644 l 1
 801 644 l 2
 679 644 578 621 578 454 c 2
 578 379 l 1
 888 379 l 1
 888 320 l 1
 578 320 l 1
 578 247 l 2
172 188 m 2
 172 145 214 53 368 53 c 0
 437 53 503 73 536 116 c 1
 516 152 506 199 506 257 c 2
 506 445 l 2
 506 502 516 548 536 584 c 1
 498 632 425 647 370 647 c 0
 249 647 172 581 172 511 c 2
 172 188 l 2
EndSplineSet
EndChar

StartChar: oe
Encoding: 339 339 196
Width: 1022
VWidth: 1467
Flags: W
HStem: -8 51<257.802 418.986 639.714 811.157> 219 55<562 871.831> 458 51<259.411 448.84 644.146 808.286>
VStem: 100 76<109.545 141 141 389.682> 490 72<138.699 219 274 389.053> 879 64<283.877 390.323>
LayerCount: 2
Fore
SplineSet
943 330 m 0
 943 235 886 219 720 219 c 2
 562 219 l 1
 562 166 l 2
 562 75 677 44 744 44 c 0
 784 44 865 53 896 128 c 1
 940 95 l 1
 905 25 814 -8 718 -8 c 0
 651 -8 562 14 530 59 c 1
 477 6 389 -8 331 -8 c 0
 190 -8 100 63 100 141 c 2
 100 359 l 2
 100 447 206 509 332 509 c 0
 390 509 476 495 530 442 c 1
 582 494 660 511 720 511 c 0
 872 511 943 414 943 330 c 0
796 274 m 2
 861 274 879 288 879 323 c 0
 879 406 801 457 730 457 c 0
 648 457 562 399 562 335 c 2
 562 274 l 1
 796 274 l 2
496 392 m 1
 469 437 414 458 354 458 c 0
 261 458 176 396 176 340 c 2
 176 160 l 2
 176 96 272 43 355 43 c 0
 385 43 464 50 497 122 c 1
 492 141 490 163 490 186 c 2
 490 359 l 2
 490 372 492 383 496 392 c 1
EndSplineSet
EndChar

StartChar: florin
Encoding: 402 402 202
Width: 410
VWidth: 1467
Flags: W
HStem: 359 53<21 116 200 304> 364 331<198 200 21 368 755.681 954.062> 640 55<261.057 359>
LayerCount: 2
Fore
SplineSet
89 -94 m 1x40
 84 -87 43 -80 28 -65 c 1
 54 -45 64 -32 70 13 c 2
 116 359 l 1
 21 359 l 1
 21 412 l 1
 120 412 l 1x80
 131 489 l 2
 150 649 198 695 343 695 c 2
 368 695 l 1x40
 359 640 l 1
 333 640 l 2
 260 640 228 609 211 494 c 2
 200 412 l 1
 304 412 l 1xa0
 304 364 l 1
 194 364 l 1
 145 -32 l 2
 143 -50 120 -84 89 -94 c 1x40
EndSplineSet
EndChar

StartChar: circumflex
Encoding: 710 710 203
Width: 478
VWidth: 1467
Flags: W
HStem: 697 197<56 236 236 236>
VStem: 56 364<697 697 697 697>
LayerCount: 2
Fore
SplineSet
56 697 m 1
 121 742 218 832 236 894 c 1
 261 826 350 744 420 697 c 1
 336 697 l 1
 272 756 246 792 238 804 c 1
 205 758 185 737 145 697 c 1
 56 697 l 1
EndSplineSet
EndChar

StartChar: caron
Encoding: 711 711 204
Width: 507
VWidth: 1467
Flags: W
HStem: 676 197<251 349 349 349>
VStem: 67 364<873 873 873 873>
LayerCount: 2
Fore
SplineSet
251 753 m 1
 281 806 304 832 349 873 c 1
 431 873 l 1
 356 821 268 736 251 676 c 1
 234 723 159 810 67 873 c 1
 147 873 l 1
 190 833 222 804 251 753 c 1
EndSplineSet
EndChar

StartChar: breve
Encoding: 728 728 205
Width: 440
VWidth: 1467
Flags: W
HStem: 612 45<151.816 283.026>
VStem: 31 75<704.491 775> 329 76<704.937 775>
LayerCount: 2
Fore
SplineSet
217 657 m 256
 284 657 329 709 329 775 c 1
 405 775 l 1
 405 660 292 612 217 612 c 0
 104 612 31 677 31 775 c 1
 106 775 l 1
 106 710 150 657 217 657 c 256
EndSplineSet
EndChar

StartChar: dotaccent
Encoding: 729 729 206
Width: 231
VWidth: 1467
Flags: W
HStem: 606 133<72.9158 152.375>
VStem: 60 106<618.023 727.255>
LayerCount: 2
Fore
SplineSet
114 739 m 0
 147 739 166 711 166 673 c 0
 166 638 145 606 114 606 c 0
 81 606 60 635 60 672 c 0
 60 709 80 739 114 739 c 0
EndSplineSet
EndChar

StartChar: ring
Encoding: 730 730 207
Width: 404
VWidth: 1467
Flags: W
HStem: 577 39<164.76 238.202> 767 43<163.653 240.347>
VStem: 87 60<631.802 750.386> 257 60<633.054 752.053>
LayerCount: 2
Fore
SplineSet
202 577 m 0
 132 577 87 636 87 695 c 0
 87 764 143 810 202 810 c 0
 261 810 317 759 317 694 c 0
 317 617 249 577 202 577 c 0
202 767 m 0
 169 767 147 729 147 695 c 0
 147 656 167 616 202 616 c 0
 242 616 257 671 257 696 c 0
 257 732 235 767 202 767 c 0
EndSplineSet
EndChar

StartChar: tilde
Encoding: 732 732 209
Width: 368
VWidth: 1467
Flags: W
HStem: 596 57<192.134 266.025> 638 58<94.7874 179.302>
VStem: 23 56<594 631.875> 279 51<655.787 697>
LayerCount: 2
Fore
SplineSet
246 653 m 0xb0
 253 653 274 656 279 697 c 1
 330 697 l 1
 330 642 297 596 247 596 c 0xb0
 208 596 146 638 116 638 c 0
 109 638 83 633 79 594 c 1
 23 594 l 1
 23 646 67 696 115 696 c 0x70
 163 696 230 653 246 653 c 0xb0
EndSplineSet
EndChar

StartChar: uni0E01
Encoding: 3585 3585 212
Width: 669
VWidth: 1467
Flags: W
HStem: -1 21G<100 176 491.694 563> 523 58<183.469 205.581 205.581 256.5 231.04 413.611>
VStem: 100 76<-1 357.154> 492 71<-1 162.5 162.5 456.187>
LayerCount: 2
Fore
SplineSet
299 526 m 0
 265 526 248 523 214 523 c 0
 203 523 193 523 183 524 c 1
 195 512 238 468 244 462 c 1
 244 417 l 1
 234 409 182 387 176 280 c 2
 176 -1 l 1
 100 -1 l 1
 100 239 l 2
 100 328 128 405 192 446 c 1
 95 538 l 1
 94 538 l 1
 92 578 l 1
 200 581 212 581 227 581 c 0
 373 581 476 580 534 476 c 0
 553 440 563 390 563 324 c 2
 563 -1 l 1
 492 -1 l 1
 487 326 l 2
 487 444 469 526 299 526 c 0
EndSplineSet
EndChar

StartChar: uni0E02
Encoding: 3586 3586 213
Width: 528
VWidth: 1467
Flags: W
HStem: -11 53<189.624 304.331> 360 49<107.414 150.246> 541 47<123.664 176.17>
VStem: 54 49<421.104 521.619> 73 77<81.3302 257.923> 182 60<398.036 525.865> 346 77<88.0615 581>
LayerCount: 2
Fore
SplineSet
155 588 m 0xf6
 190 588 242 557 242 446 c 0
 242 322 150 290 150 158 c 0
 150 67 212 42 246 42 c 0
 280 42 346 68 346 167 c 2
 346 581 l 1
 423 581 l 1
 423 145 l 2
 423 41 331 -11 242 -11 c 0
 155 -11 73 41 73 139 c 0xee
 73 265 125 304 166 376 c 1
 153 366 132 360 119 360 c 0
 79 360 54 406 54 453 c 0
 54 543 120 588 155 588 c 0xf6
128 409 m 0
 155 409 182 454 182 488 c 0
 182 507 174 541 154 541 c 0
 129 541 103 495 103 459 c 0xf6
 103 442 107 409 128 409 c 0
EndSplineSet
EndChar

StartChar: uni0E03
Encoding: 3587 3587 214
Width: 586
VWidth: 1467
Flags: W
HStem: -14 53<230.26 355.686> 354 46<99.5246 157.485> 488 20G<221 238.5> 538 52<115.213 176.58>
VStem: 50 43<411.346 516.477> 103 83<83.2001 203.248> 182 41<425.456 521.308> 265 57<371.885 512.496> 408 75<91.2363 582>
LayerCount: 2
Fore
SplineSet
154 590 m 0xfb80
 194 590 238 532 244 521 c 1
 254 585 l 1
 282 585 l 1
 297 552 322 504 322 442 c 0
 322 305 186 294 186 158 c 0
 186 84 234 39 292 39 c 0
 346 39 408 81 408 167 c 2
 408 582 l 1
 483 582 l 1
 483 145 l 2
 483 50 395 -14 287 -14 c 0
 195 -14 103 37 103 139 c 256xfd80
 103 170 105 225 170 292 c 2
 224 348 l 2
 228 352 265 393 265 423 c 0
 265 449 257 471 220 508 c 1
 222 497 223 485 223 477 c 0
 223 418 175 354 126 354 c 0
 104 354 50 365 50 447 c 0
 50 537 111 590 154 590 c 0xfb80
148 538 m 0
 131 538 93 510 93 446 c 0
 93 424 97 400 125 400 c 0
 150 400 182 448 182 489 c 0xfb80
 182 517 168 538 148 538 c 0
EndSplineSet
EndChar

StartChar: uni0E04
Encoding: 3588 3588 215
Width: 715
VWidth: 1467
Flags: W
HStem: -1 21G<100 176 533 610> 213 31<296.342 408.951> 337 33<297.782 409.854> 527 63<235.686 480.679>
VStem: 100 76<-1 244.675 299 476.783> 238 48<255.33 285> 421 48<267.552 324.263> 533 77<-1 476.244>
LayerCount: 2
Fore
SplineSet
238 285 m 1
 183 242 176 211 176 139 c 2
 176 -1 l 1
 100 -1 l 1
 100 430 l 2
 100 569 265 590 355 590 c 0
 471 590 610 561 610 425 c 2
 610 -1 l 1
 533 -1 l 1
 533 403 l 2
 533 494 481 527 356 527 c 0
 269 527 176 505 176 417 c 2
 176 299 l 1
 225 352 299 370 354 370 c 0
 413 370 469 339 469 292 c 0
 469 246 416 213 354 213 c 256
 281 213 238 252 238 285 c 1
352 337 m 0
 299 337 286 302 286 289 c 0
 286 275 300 244 354 244 c 0
 411 244 421 282 421 292 c 0
 421 310 398 337 352 337 c 0
EndSplineSet
EndChar

StartChar: uni0E05
Encoding: 3589 3589 216
Width: 715
VWidth: 1467
Flags: W
HStem: -1 21G<100 175 533 612> 211 31<302.969 417.048> 336 32<305.14 418.106> 564 20G<236 283.5 427 485>
VStem: 100 75<-1 246.115 301 467.474> 245 48<253.836 292.75> 428 49<264.819 324.069> 533 79<-1 473.704>
LayerCount: 2
Fore
SplineSet
266 584 m 1
 301 549 336 522 359 496 c 1
 447 584 l 1
 523 573 612 488 612 414 c 2
 612 -1 l 1
 533 -1 l 1
 533 387 l 2
 533 429 513 505 465 516 c 1
 359 430 l 1
 251 515 l 1
 186 482 175 433 175 395 c 2
 175 301 l 1
 220 353 299 368 361 368 c 0
 422 368 477 337 477 290 c 0
 477 246 427 211 359 211 c 0
 298 211 245 243 245 293 c 1
 179 249 175 202 175 141 c 2
 175 -1 l 1
 100 -1 l 1
 100 420 l 2
 100 482 206 577 266 584 c 1
428 291 m 0
 428 318 397 336 359 336 c 0
 304 336 293 297 293 287 c 0
 293 272 308 242 362 242 c 0
 420 242 428 280 428 291 c 0
EndSplineSet
EndChar

StartChar: uni0E06
Encoding: 3590 3590 217
Width: 724
VWidth: 1467
Flags: W
HStem: -4 55<156.49 214.485> -1 61<357.648 513.145> 220 53<154.727 207.891> 360 48<110.009 163.729> 549 43<125.878 175.45>
VStem: 60 40<409.612 520.611> 87 52<86.478 207.766> 186 38<429.005 504.805> 235 52<136.472 199.312> 275 67<365.332 479.044> 549 73<97.5902 588>
LayerCount: 2
Fore
SplineSet
434 -1 m 0x79a0
 386 -1 337 9 274 87 c 1
 265 43 232 -4 186 -4 c 0
 120 -4 87 64 87 135 c 0xbba0
 87 214 127 273 186 273 c 0
 199 273 210 270 219 264 c 1
 224 337 275 381 275 426 c 0
 275 455 259 480 224 506 c 1
 224 495 l 2
 224 429 178 360 126 360 c 0
 81 360 60 412 60 454 c 0
 60 520 105 592 157 592 c 0
 191 592 252 544 263 524 c 1
 273 587 l 1
 315 587 l 1
 329 528 l 2
 340 489 342 463 342 446 c 0xbd60
 342 346 287 338 287 246 c 0
 287 223 294 166 304 135 c 1
 352 72 389 60 431 60 c 0
 525 60 549 103 549 186 c 2
 549 588 l 1
 622 588 l 1
 622 180 l 2
 622 71 540 -1 434 -1 c 0x79a0
154 549 m 0
 125 549 100 481 100 445 c 0x3d20
 100 415 119 408 132 408 c 0
 164 408 186 463 186 503 c 0
 186 542 167 549 154 549 c 0
182 220 m 256
 156 220 139 172 139 135 c 256
 139 109 153 51 185 51 c 256
 210 51 235 100 235 135 c 256xbba0
 235 164 214 220 182 220 c 256
EndSplineSet
EndChar

StartChar: uni0E07
Encoding: 3591 3591 218
Width: 522
VWidth: 1467
Flags: W
HStem: -12 21G<225.762 288> 362 48<269.224 314.811> 544 47<286.575 337.173>
VStem: 223 42<423.097 521.961> 337 80<101.203 160 176 384 428.593 542.671>
LayerCount: 2
Fore
SplineSet
223 454 m 0
 223 508 256 591 329 591 c 0
 386 591 417 542 417 497 c 2
 417 160 l 2
 417 79 341 4 235 -12 c 1
 47 395 l 1
 107 424 l 1
 277 59 l 1
 319 81 337 111 337 176 c 2
 337 384 l 1
 319 366 297 362 287 362 c 0
 251 362 223 403 223 454 c 0
292 410 m 0
 317 410 343 455 343 490 c 0
 343 517 332 544 315 544 c 0
 300 544 265 508 265 461 c 0
 265 439 271 410 292 410 c 0
EndSplineSet
EndChar

StartChar: uni0E08
Encoding: 3592 3592 219
Width: 625
VWidth: 1467
Flags: W
HStem: -1 21G<311 362> 159 50<232.269 286.516> 341 47<217.952 268.796> 525 60<153.24 384.679>
VStem: 170 42<229.096 326.089> 308 2<151 178> 311 51<50 151> 445 76<81.7932 473.887>
LayerCount: 2
Fore
SplineSet
53 508 m 1
 70 538 135 585 267 585 c 0
 446 585 521 501 521 436 c 2
 521 145 l 2
 521 120 502 52 439 28 c 0
 408 13 366 2 358 -1 c 1
 311 -1 l 1
 311 151 l 1
 310 151 310 151 310 150 c 1
 308 178 l 1
 297 167 284 159 270 159 c 0
 218 159 170 228 170 297 c 0
 170 341 191 388 236 388 c 0
 274 388 302 360 317 336 c 0
 345 290 362 195 362 50 c 1
 387 55 445 69 445 145 c 2
 445 402 l 2
 445 444 437 525 266 525 c 0
 162 525 123 488 100 468 c 1
 53 508 l 1
264 209 m 0
 286 209 290 238 290 261 c 0
 290 308 253 341 241 341 c 0
 218 341 212 305 212 285 c 0
 212 249 243 209 264 209 c 0
EndSplineSet
EndChar

StartChar: uni0E09
Encoding: 3593 3593 220
Width: 707
VWidth: 1467
Flags: W
HStem: -13 51<544.285 601.474> -11 62<277.225 390.758> 142 46<127.988 173.876> 183 53<553.516 599.888> 322 47<142.874 196.556> 528 62<145.755 404.992>
VStem: 77 46<200.822 302.318> 202 42<206.803 294.759> 471 77<227 472.001> 613 44<46.1488 173.205>
LayerCount: 2
Fore
SplineSet
44 514 m 1x5fc0
 71 547 128 590 283 590 c 0
 504 590 548 494 548 442 c 2
 548 227 l 1
 563 236 568 236 574 236 c 0
 640 236 657 159 657 106 c 0
 657 27 611 -13 570 -13 c 0x9fc0
 508 -13 494 72 492 104 c 1
 475 44 419 -11 339 -11 c 0
 201 -11 181 126 176 150 c 1
 172 147 159 142 147 142 c 0x6fc0
 100 142 77 189 77 236 c 0
 77 320 140 369 180 369 c 0
 208 369 244 340 244 291 c 2
 244 167 l 2
 244 105 265 51 348 51 c 0
 363 51 397 55 434 94 c 0
 458 122 471 162 471 216 c 2
 471 403 l 2
 471 478 424 528 274 528 c 0
 142 528 101 481 92 474 c 1
 44 514 l 1x5fc0
123 240 m 0
 123 219 128 188 152 188 c 0x2fc0
 170 188 202 222 202 267 c 0
 202 288 196 322 172 322 c 0
 148 322 123 273 123 240 c 0
533 106 m 0
 533 78 547 38 571 38 c 0
 596 38 613 69 613 106 c 0
 613 151 595 183 569 183 c 0x9fc0
 545 183 533 129 533 106 c 0
EndSplineSet
EndChar

StartChar: uni0E0A
Encoding: 3594 3594 221
Width: 529
VWidth: 1467
Flags: W
HStem: -11 53<190.161 300.996> 357 48<107.439 154.239> 544 42<124.919 181.76>
VStem: 60 43<417.943 521.808> 75 78<80.0406 256.912> 189 54<425.91 538.67> 349 76<92.7271 340.614> 374 66<522.82 603 603 612>
LayerCount: 2
Fore
SplineSet
261 443 m 1xee
 307 453 374 524 374 594 c 0
 374 600 374 606 373 612 c 1
 440 612 l 1
 440 599 l 2xe5
 440 541 410 451 323 437 c 1
 418 381 425 346 425 278 c 2
 425 145 l 2
 425 43 336 -11 245 -11 c 0
 161 -11 75 40 75 139 c 0xee
 75 212 91 261 132 322 c 2
 164 371 l 1
 148 358 133 357 123 357 c 0
 85 357 60 402 60 450 c 0xf4
 60 520 108 586 157 586 c 0
 222 586 243 491 243 444 c 0
 243 315 153 291 153 158 c 0
 153 67 211 42 245 42 c 0
 301 42 349 99 349 167 c 2
 349 299 l 2
 349 334 349 365 300 406 c 0
 289 416 276 428 261 443 c 1xee
103 456 m 0xf4
 103 433 109 405 133 405 c 0
 164 405 189 452 189 482 c 0
 189 517 176 544 157 544 c 256
 124 544 103 486 103 456 c 0xf4
EndSplineSet
EndChar

StartChar: uni0E0B
Encoding: 3595 3595 222
Width: 603
VWidth: 1467
Flags: W
HStem: -5 52<243.105 360.798> 365 42<105.661 165.986> 550 44<127.974 181.144>
VStem: 62 40<409.331 522.351> 112 83<97.1101 256.418> 188 37<429.741 529.868> 253 60<389.728 497.271> 411 79<102.766 363.659>
LayerCount: 2
Fore
SplineSet
112 165 m 0xfb
 112 319 253 348 253 455 c 0
 253 489 238 500 224 512 c 1
 225 504 225 496 225 488 c 0xf7
 225 390 152 365 129 365 c 0
 83 365 62 411 62 458 c 0
 62 538 120 594 162 594 c 0
 201 594 243 537 249 525 c 1
 258 590 l 1
 286 590 l 1
 301 530 l 2
 309 502 313 478 313 458 c 0
 313 335 195 312 195 180 c 0
 195 71 269 47 302 47 c 0
 341 47 411 78 411 191 c 2
 411 324 l 2
 411 420 381 421 330 467 c 1
 389 467 459 539 459 610 c 0
 459 614 458 618 458 622 c 1
 540 622 l 1
 534 569 525 478 409 461 c 1
 443 432 l 2
 487 396 489 353 490 339 c 2
 490 153 l 2
 490 46 390 -5 295 -5 c 0
 241 -5 112 16 112 165 c 0xfb
158 550 m 0
 131 550 102 495 102 455 c 0
 102 429 109 407 135 407 c 0
 159 407 188 453 188 492 c 0
 188 523 177 550 158 550 c 0
EndSplineSet
EndChar

StartChar: uni0E0C
Encoding: 3596 3596 223
Width: 974
VWidth: 1467
Flags: W
HStem: -3 48<144.836 198.461> -3 58<424.369 494.747 638.545 749.346> 176 46<176.455 212.823> 212 57<426.003 480.399> 525 55<183 204.533 204.533 257.692 231.113 409.765>
VStem: 99 42<57.4053 125.326 96 154.653> 100 76<219 362.453> 219 43<64.7192 174.372> 364 45<68.8549 196.952> 483 76<264 457.805> 509 49<116 161.633> 792 78<97.9131 581>
LayerCount: 2
Fore
SplineSet
662 56 m 0xa9b0
 774 56 792 119 792 182 c 2
 792 581 l 1
 870 581 l 1
 870 175 l 2
 870 76 784 -1 679 -1 c 0
 657 -1 601 -1 540 58 c 1
 528 32 498 -3 462 -3 c 0
 429 -3 364 27 364 132 c 0
 364 233 423 269 462 269 c 0
 469 269 475 267 483 264 c 1
 483 351 l 2
 483 418 474 528 306 528 c 0
 287 528 257 525 208 525 c 2
 183 525 l 1
 188 516 242 466 242 462 c 2
 242 417 l 1
 230 407 225 408 217 399 c 0
 190 368 176 329 176 283 c 2
 176 219 l 1x5bd0
 182 221 188 222 194 222 c 0
 235 222 262 180 262 125 c 0
 262 50 209 -3 164 -3 c 0
 119 -3 99 44 99 86 c 0xad90
 99 93 100 99 100 106 c 2
 100 255 l 2
 100 321 124 403 192 447 c 1
 94 538 l 1
 94 580 l 1
 199 581 212 581 225 581 c 0
 373 581 470 580 530 476 c 0
 549 441 559 391 559 326 c 2
 559 118 l 1xabd0
 558 119 l 1
 558 116 l 1
 607 60 641 56 662 56 c 0xa9b0
191 176 m 0xad90
 173 176 141 135 141 95 c 0
 141 72 147 45 169 45 c 0
 189 45 219 86 219 121 c 0
 219 150 208 176 191 176 c 0xad90
462 55 m 0x59b0
 496 55 509 105 509 132 c 256
 509 157 499 212 461 212 c 0
 423 212 409 160 409 132 c 0
 409 92 427 55 462 55 c 0x59b0
EndSplineSet
EndChar

StartChar: uni0E0D
Encoding: 3597 3597 224
Width: 955
VWidth: 1467
Flags: W
HStem: -209 37<552.639 665.293> -104 34<554.667 647.412> -6 51<155.817 204.643 565 704.884> 198 51<183.874 226.762> 526 55<186 210.514 210.514 221.807 221.807 412.442>
VStem: 101 47<52.8438 172.394> 101 78<242 354.25> 235 45<76.1014 194.314> 490 75<45 452.545> 499 31<-162.275 -114.714> 773 78<113.99 227 227 581>
LayerCount: 2
Fore
SplineSet
851 235 m 2xfba0
 851 6 704 -6 565 -6 c 2
 490 -6 l 1
 489 326 l 2
 489 460 454 515 326 526 c 2
 256 526 l 2
 242 525 235 525 186 525 c 1
 189 519 245 465 245 461 c 2
 245 415 l 1
 245 415 179 388 179 279 c 2
 179 242 l 1xfba0
 183 245 200 249 207 249 c 0
 229 249 280 235 280 151 c 0
 280 90 247 -2 171 -2 c 0
 129 -2 105 42 101 84 c 2xfd20
 101 243 l 2
 101 313 125 402 194 446 c 1
 97 538 l 1
 97 580 l 1
 222 581 208 581 236 581 c 0
 379 581 476 579 536 474 c 0
 555 439 565 388 565 323 c 2
 565 45 l 1
 583 45 l 2
 685 45 773 58 773 227 c 2
 773 581 l 1
 851 581 l 1
 851 235 l 2xfba0
203 198 m 0
 185 198 148 155 148 110 c 0xfd20
 148 70 160 51 176 51 c 0
 204 51 235 98 235 138 c 0
 235 169 221 198 203 198 c 0
600 -70 m 0
 661 -70 698 -105 701 -134 c 1
 737 -108 766 -70 778 -51 c 1
 850 -51 l 1
 764 -185 664 -209 618 -209 c 0
 567 -209 499 -189 499 -138 c 0xf960
 499 -97 548 -70 600 -70 c 0
530 -139 m 0
 530 -167 586 -172 600 -172 c 256
 630 -172 672 -158 672 -136 c 256
 672 -110 611 -104 600 -104 c 0
 581 -104 530 -113 530 -139 c 0
EndSplineSet
Substitution2: "Single Substitution lookup 22 subtable" uni0E0D.alt1
Substitution2: "Single Substitution lookup 22 subtable" uni0E0D.alt1
EndChar

StartChar: uni0E0E
Encoding: 3598 3598 225
Width: 676
VWidth: 1467
Flags: W
HStem: -285 34<205.3 320.01> -189 43<187.077 288.39> -7 53<124.253 179.197> 195 52<105.932 152.953> 521 57<194.666 249.792 249.792 410.125>
VStem: 51 47<73.3786 191.019> 138 48<-243.624 -192.692> 164 66<235 475> 185 46<48.2645 134.903 101.977 167.828> 499 73<-301 -299 -232 47 47 383.797>
LayerCount: 2
Fore
SplineSet
51 149 m 0xfcc0
 51 197 75 247 126 247 c 0
 139 247 152 243 164 235 c 1
 164 475 l 1xfd40
 98 536 l 1
 97 536 l 1
 97 577 l 1
 202 578 l 2
 363 578 473 577 539 473 c 0
 561 438 572 388 572 323 c 2
 572 -301 l 1
 499 -301 l 1
 499 -299 l 1
 497 -299 l 1
 485 -278 460 -255 390 -224 c 1
 364 -266 322 -285 251 -285 c 0
 189 -285 138 -256 138 -219 c 256xfe40
 138 -191 171 -146 260 -146 c 0
 280 -146 303 -148 362 -166 c 1
 374 -137 369 -122 373 -103 c 1
 431 -103 l 1
 431 -123 420 -169 411 -182 c 1
 444 -195 474 -212 499 -232 c 1
 494 326 l 2
 494 383 486 425 468 452 c 0
 441 490 395 524 305 524 c 0
 293 524 260 522 192 521 c 1
 194 518 230 482 230 477 c 2
 230 109 l 2xfd40
 230 104 231 99 231 95 c 0
 231 44 209 -7 157 -7 c 0
 101 -7 51 75 51 149 c 0xfcc0
156 46 m 0
 167 46 185 59 185 106 c 0xfcc0
 185 148 149 195 131 195 c 0
 112 195 98 166 98 135 c 0
 98 89 137 46 156 46 c 0
242 -189 m 0
 196 -189 186 -201 186 -219 c 256xfe40
 186 -245 228 -251 251 -251 c 256
 288 -251 330 -226 343 -213 c 1
 309 -193 262 -189 242 -189 c 0
EndSplineSet
Substitution2: "Single Substitution lookup 22 subtable" uni0E0E.alt1
Substitution2: "Single Substitution lookup 22 subtable" uni0E0E.alt1
EndChar

StartChar: uni0E0F
Encoding: 3599 3599 226
Width: 669
VWidth: 1467
Flags: W
HStem: -280 34<99.6598 190.902> -224 21G<471.474 489.892> -180 30<102.655 198.573> -2 52<117.003 167.184> 199 52<98.687 148.056> 527 57<185 243.338 243.338 403.879>
VStem: 45 46<77.1978 179.792> 54 43<-232.347 -196.161> 157 67<239 481> 181 44<53.9417 139.401 105.977 172.826> 492 73<-296 -295 -224 387.85>
LayerCount: 2
Fore
SplineSet
45 150 m 0xfe60
 45 188 60 251 119 251 c 0
 132 251 145 247 157 239 c 1
 158 481 l 1
 91 541 l 1
 91 582 l 1xfea0
 198 584 l 2
 360 584 466 583 532 478 c 0
 554 443 565 392 565 327 c 2
 565 -296 l 1
 492 -296 l 1
 492 -295 l 1
 490 -295 l 1
 402 -198 l 1
 324 -295 l 1
 312 -276 264 -232 264 -232 c 1
 235 -264 198 -280 154 -280 c 0
 93 -280 54 -247 54 -216 c 0
 54 -168 115 -150 152 -150 c 0
 188 -150 222 -167 241 -179 c 1
 255 -159 269 -130 273 -101 c 1
 326 -101 l 1
 321 -120 316 -141 289 -195 c 1
 306 -212 313 -213 324 -229 c 1
 402 -129 l 1
 490 -224 l 1
 487 330 l 2
 487 387 480 429 461 457 c 0
 428 507 376 530 299 530 c 0
 288 530 254 528 185 527 c 1
 206 506 224 486 224 483 c 2
 224 113 l 2xfda0
 224 108 225 103 225 99 c 0
 225 51 205 -2 154 -2 c 0
 97 -2 45 75 45 150 c 0xfe60
147 50 m 0
 154 50 181 57 181 98 c 0xfe60
 181 133 159 199 125 199 c 0
 101 199 91 163 91 140 c 0
 91 98 125 50 147 50 c 0
97 -216 m 256xfd20
 97 -222 106 -246 151 -246 c 0
 172 -246 213 -232 226 -204 c 1
 203 -185 156 -180 148 -180 c 0
 108 -180 97 -209 97 -216 c 256xfd20
EndSplineSet
Substitution2: "Single Substitution lookup 22 subtable" uni0E0F.alt1
Substitution2: "Single Substitution lookup 22 subtable" uni0E0F.alt1
EndChar

StartChar: uni0E10
Encoding: 3600 3600 227
Width: 648
VWidth: 1467
Flags: W
HStem: -285 36<77.9321 188.105> -185 30<80.8955 202.017 435.832 479.442> -67 35<409.646 481.813> 0 21G<269.5 383.5> 93 49<206.657 260.185> 274 46<192.47 242.699> 496 21G<518.5 537.97> 534 51<157.824 427.121>
VStem: 35 41<-244.098 -200.681> 74 62<465.728 513.085> 140 46<161.486 258.75> 268 59<38 69.0603 69.0603 100.472> 373 36<-129.282 -67.2903> 480 61<-249 -186 110.125 312.883> 499 42<-134.707 -84.9497>
LayerCount: 2
Fore
SplineSet
140 221 m 0xff7a
 140 275 168 320 210 320 c 0
 248 320 300 274 317 188 c 0
 324 156 327 124 327 95 c 2
 327 38 l 1
 468 85 475 138 475 174 c 2
 475 285 l 2
 475 370 74 378 74 487 c 0
 74 526 110 585 288 585 c 0
 373 585 484 573 531 562 c 1
 541 496 l 1
 496 513 364 534 277 534 c 0
 167 534 136 505 136 487 c 0
 136 427 544 408 544 298 c 258
 544 144 l 2
 544 86 437 0 330 0 c 2
 270 0 l 1
 269 9 268 19 268 30 c 0
 268 44 270 66 270 101 c 1
 260 94 257 93 244 93 c 0
 196 93 140 149 140 221 c 0xff7a
239 142 m 0
 260 142 265 182 265 189 c 0
 265 225 236 274 215 274 c 0
 194 274 186 241 186 221 c 0
 186 188 211 142 239 142 c 0
434 -32 m 0
 497 -32 539 -87 541 -126 c 2
 541 -299 l 1xff3a
 472 -299 l 1
 383 -239 l 1
 304 -299 l 1
 300 -292 285 -267 244 -236 c 1
 213 -271 171 -285 133 -285 c 0
 84 -285 35 -260 35 -220 c 0
 35 -175 87 -155 130 -155 c 0
 163 -155 193 -165 220 -185 c 1
 242 -162 251 -115 252 -106 c 1
 307 -106 l 1
 291 -156 278 -186 266 -202 c 1
 283 -215 306 -237 315 -248 c 1
 383 -192 l 1
 480 -249 l 1
 480 -186 l 1xffbc
 426 -186 373 -135 373 -91 c 0
 373 -60 385 -32 434 -32 c 0
76 -220 m 256xffb8
 76 -238 100 -249 127 -249 c 0
 160 -249 190 -234 204 -208 c 1
 192 -200 160 -185 131 -185 c 0
 83 -185 76 -215 76 -220 c 256xffb8
475 -149 m 0
 489 -149 499 -134 499 -122 c 0xff3a
 499 -105 475 -67 434 -67 c 0
 419 -67 409 -77 409 -91 c 0
 409 -115 442 -149 475 -149 c 0
EndSplineSet
Substitution2: "Single Substitution lookup 22 subtable" uni0E10.alt1
Substitution2: "Single Substitution lookup 22 subtable" uni0E10.alt1
EndChar

StartChar: uni0E11
Encoding: 3601 3601 228
Width: 856
VWidth: 1467
Flags: W
HStem: 0 21G<260 342 669 751> 356 46<105.992 154.462> 480 20G<219.5 223 254.037 255.5> 527 58<493.665 621.501> 538 47<121.426 167.132>
VStem: 57 40<402.374 513.136> 177 43<425.221 518.47> 260 82<0 242.023 335 475.224> 669 82<0 473.764>
LayerCount: 2
Fore
SplineSet
286 584 m 1xef80
 308 549 335 481 335 412 c 2
 335 335 l 1
 393 567 507 585 550 585 c 0
 644 585 751 529 751 408 c 2
 751 0 l 1
 669 0 l 1
 669 383 l 2
 669 453 645 527 549 527 c 0xf780
 441 527 342 281 342 136 c 2
 342 0 l 1
 260 0 l 1
 260 361 l 2
 260 452 242 475 223 493 c 1
 219 500 l 1
 220 495 220 491 220 486 c 0
 220 429 176 356 124 356 c 0
 78 356 57 399 57 446 c 0
 57 511 99 585 154 585 c 0
 177 585 192 572 202 559 c 2
 240 532 254 509 257 503 c 1
 245 584 l 1
 286 584 l 1xef80
149 538 m 0xef80
 124 538 97 481 97 445 c 0
 97 411 112 402 122 402 c 0
 149 402 177 451 177 491 c 0
 177 530 160 538 149 538 c 0xef80
EndSplineSet
EndChar

StartChar: uni0E12
Encoding: 3602 3602 229
Width: 1024
VWidth: 1467
Flags: W
HStem: -13 47<516.055 579.041> -9 59<703.921 822.634> 0 56<176 266.571> 133 45<301.312 332.604> 319 45<318.896 371.434> 561 20<229.5 269.5 426.059 486.5 845 921>
VStem: 100 76<56 481.664> 249 47<192.884 296.855> 384 45<200.81 316.178> 461 44<43.2692 141.933> 533 77<217 484.134> 845 76<72.6375 581>
LayerCount: 2
Fore
SplineSet
770 50 m 0x5ff0
 828 50 845 90 845 164 c 2
 845 581 l 1
 921 581 l 1
 921 170 l 2
 921 16 838 -9 783 -9 c 0x5ff0
 722 -9 678 20 629 69 c 1
 617 16 579 -13 545 -13 c 0x9ff0
 499 -13 461 41 461 103 c 0
 461 159 494 205 533 217 c 1
 533 398 l 2
 533 446 511 516 464 530 c 1
 358 442 l 1
 251 528 l 1
 207 506 176 469 176 405 c 2
 176 56 l 1
 252 56 296 88 333 134 c 1
 328 133 323 133 318 133 c 0
 277 133 249 176 249 230 c 0
 249 292 295 364 352 364 c 0
 400 364 429 310 429 265 c 0
 429 188 366 31 204 0 c 1
 100 0 l 1x3ff0
 100 430 l 2
 100 487 193 585 266 594 c 1
 273 586 282 578 291 570 c 2
 358 509 l 1
 447 594 l 1
 526 583 610 499 610 424 c 2
 610 185 l 1
 633 148 l 2
 651 119 702 50 770 50 c 0x5ff0
296 229 m 0
 296 207 303 178 330 178 c 0
 356 178 384 226 384 271 c 0
 384 311 363 319 349 319 c 0
 321 319 296 264 296 229 c 0
549 34 m 0x9ff0
 582 34 590 84 590 103 c 256
 590 122 582 171 550 171 c 0
 514 171 505 117 505 98 c 0
 505 64 523 34 549 34 c 0x9ff0
EndSplineSet
EndChar

StartChar: uni0E13
Encoding: 3603 3603 230
Width: 996
VWidth: 1467
Flags: W
HStem: -9 48<150.463 195.632 789.376 847.658> 173 50<179.634 209.319 689.041 744> 525 56<185 222.378 222.378 249.185 235.781 410.956>
VStem: 101 43<61.9678 153.273> 101 78<216 355.079> 221 45<57.6942 171.146> 493 82<1 71.9153> 493 72<87 163 163 440.085> 724 55<56.1996 128.132> 785 79<223 581> 860 50<59.1281 152.576>
LayerCount: 2
Fore
SplineSet
563 87 m 1xed80
 598 166 668 211 786 223 c 1
 785 581 l 1
 864 581 l 1
 864 205 l 1xedc0
 891 185 910 151 910 104 c 0
 910 41 871 -12 819 -12 c 0
 770 -12 724 37 724 91 c 0
 724 100 726 145 744 173 c 1
 654 160 586 101 575 1 c 1xe6a0
 493 0 l 1
 487 326 l 2
 487 450 464 527 290 527 c 0
 257 527 249 525 208 525 c 2
 185 525 l 1
 190 516 244 466 244 462 c 2
 244 417 l 1
 232 407 227 408 219 399 c 0
 192 368 178 328 178 280 c 2
 179 216 l 1xed80
 181 218 192 219 197 219 c 0
 243 219 266 171 266 125 c 0
 266 43 204 -9 165 -9 c 0
 153 -9 106 0 101 78 c 2xf480
 101 232 l 2
 101 322 131 408 192 447 c 1
 95 538 l 1
 95 581 l 1
 194 582 210 582 260 582 c 0
 383 582 478 577 536 476 c 0
 555 440 565 390 565 323 c 2
 563 87 l 1xed80
221 118 m 0
 221 162 202 172 195 172 c 0
 169 172 144 127 144 90 c 0xf480
 144 70 149 39 170 39 c 0
 188 39 221 73 221 118 c 0
817 33 m 0
 851 33 860 82 860 104 c 0xe4a0
 860 122 856 175 822 175 c 256
 788 175 779 126 779 103 c 0
 779 83 785 33 817 33 c 0
EndSplineSet
EndChar

StartChar: uni0E14
Encoding: 3604 3604 231
Width: 717
VWidth: 1467
Flags: W
HStem: 0 54<180 216.154> 135 46<321.105 357.122> 322 48<330.64 394.384> 543 50<241.455 464.329>
VStem: 100 80<54 450.981> 264 45<183.626 300.721> 400 45<204.441 307.237> 534 79<-1 485.328>
LayerCount: 2
Fore
SplineSet
361 593 m 0
 542 593 613 528 613 430 c 2
 613 -1 l 1
 534 -1 l 1
 534 418 l 2
 534 524 417 543 355 543 c 0
 180 543 180 445 180 417 c 2
 180 54 l 1
 193 54 291 56 358 139 c 1
 349 136 339 135 334 135 c 0
 286 135 264 181 264 228 c 0
 264 305 317 370 370 370 c 0
 415 370 445 327 445 270 c 0
 445 179 383 31 217 0 c 1
 100 0 l 1
 100 423 l 2
 100 491 144 593 361 593 c 0
309 224 m 0
 309 186 333 181 344 181 c 0
 371 181 400 227 400 272 c 0
 400 293 393 322 364 322 c 0
 334 322 309 276 309 224 c 0
EndSplineSet
EndChar

StartChar: uni0E15
Encoding: 3605 3605 232
Width: 720
VWidth: 1467
Flags: W
HStem: -1 54<178 212.797> 134 46<317.259 351.156> 319 50<327.297 389.741> 562 20G<240 288.364 429 489>
VStem: 103 75<53 468.199> 261 45<182.683 296.848> 393 48<205.916 317.861> 534 81<-3 471.704>
LayerCount: 2
Fore
SplineSet
441 275 m 0
 441 215 394 32 211 -1 c 1
 103 -1 l 1
 103 418 l 2
 103 486 213 577 267 582 c 1
 361 494 l 1
 449 582 l 1
 529 571 615 486 615 412 c 2
 615 -3 l 1
 534 -3 l 1
 534 386 l 2
 534 428 514 504 467 515 c 1
 361 428 l 1
 254 514 l 1
 188 479 178 431 178 393 c 2
 178 53 l 1
 195 53 287 56 352 138 c 1
 345 135 338 134 331 134 c 0
 275 134 261 194 261 228 c 0
 261 302 311 369 368 369 c 0
 407 369 441 327 441 275 c 0
306 219 m 0
 306 182 334 180 338 180 c 0
 358 180 393 221 393 274 c 0
 393 307 381 319 362 319 c 0
 321 319 306 250 306 219 c 0
EndSplineSet
EndChar

StartChar: uni0E16
Encoding: 3606 3606 233
Width: 671
VWidth: 1467
Flags: W
HStem: -3 46<150.856 201.697> 177 48<180.15 218.378> 523 58<188.469 256.5 256.5 417.75>
VStem: 103 43<43.711 157.43> 103 77<222 354.836> 224 42<65.5764 162.421> 493 78<1 454.254>
LayerCount: 2
Fore
SplineSet
492 324 m 2xee
 492 451 470 526 294 526 c 0
 264 526 249 523 219 523 c 0
 208 523 198 523 188 524 c 1
 247 463 245 463 246 462 c 1
 246 417 l 1
 240 411 186 388 180 280 c 2
 180 222 l 1xee
 186 224 193 225 200 225 c 0
 246 225 266 174 266 134 c 0
 266 71 221 -3 169 -3 c 0
 129 -3 103 35 103 83 c 2xf6
 103 239 l 2
 103 322 133 405 197 446 c 1
 98 537 l 1
 97 537 l 1
 97 581 l 1
 230 581 l 2
 378 581 480 580 538 476 c 0
 558 440 568 390 568 323 c 2
 571 0 l 1
 493 1 l 1
 492 324 l 2xee
224 121 m 0
 224 139 220 177 195 177 c 0
 180 177 146 141 146 97 c 0xf6
 146 54 162 43 172 43 c 0
 190 43 224 84 224 121 c 0
EndSplineSet
EndChar

StartChar: uni0E17
Encoding: 3607 3607 234
Width: 738
VWidth: 1467
Flags: W
HStem: -1 21G<178 254 553 632> 330 52<109.342 155.291> 528 52<126.17 181.352 393.125 524.953>
VStem: 56 47<383.749 503.99> 178 76<-1 281.941> 188 50<409.5 524.871> 553 79<-1 495.267>
LayerCount: 2
Fore
SplineSet
238 330 m 1xf6
 269 451 325 578 455 578 c 0
 529 578 632 544 632 406 c 2
 632 -1 l 1
 553 -1 l 1
 553 381 l 2
 553 486 538 524 449 524 c 0
 331 524 254 263 254 135 c 2
 254 -1 l 1
 178 -1 l 1
 178 351 l 1xfa
 161 336 143 330 127 330 c 0
 84 330 56 376 56 428 c 0
 56 498 103 580 162 580 c 0
 219 580 238 516 238 492 c 2
 238 330 l 1xf6
131 382 m 0
 151 382 188 426 188 470 c 0xf6
 188 499 176 528 157 528 c 0
 135 528 103 482 103 439 c 0
 103 408 114 382 131 382 c 0
EndSplineSet
EndChar

StartChar: uni0E18
Encoding: 3608 3608 235
Width: 608
VWidth: 1467
Flags: W
HStem: -6 61<211.672 402.714> 502 21G<495.5 506.862> 534 47<159.743 465.262>
VStem: 82 63<466.117 516.534> 100 78<84.5947 85 122 280> 425 78<76.3577 323.831>
LayerCount: 2
Fore
SplineSet
274 534 m 0xf4
 210 534 145 525 145 486 c 0xf4
 145 439 503 405 503 311 c 2
 503 66 l 2
 503 24 414 -6 301 -6 c 0
 237 -6 100 12 100 85 c 2
 100 280 l 1
 178 280 l 1
 178 122 l 2xec
 178 79 243 55 308 55 c 0
 372 55 425 76 425 109 c 2
 425 292 l 2
 425 377 82 392 82 477 c 0
 82 512 115 581 308 581 c 0
 384 581 462 569 499 560 c 1
 511 502 l 1
 480 511 359 534 274 534 c 0xf4
EndSplineSet
EndChar

StartChar: uni0E19
Encoding: 3609 3609 236
Width: 768
VWidth: 1467
Flags: W
HStem: -3 59<321.751 451.847 566.439 634.966> 205 59<578.543 636.423> 340 52<118.719 157.487> 539 51<130.113 183.387>
VStem: 60 46<393.9 513.667> 189 78<98.9088 176 176 368 419.976 522.427> 499 76<258 581> 499 54<109 155.844> 653 50<66.7477 171.926>
LayerCount: 2
Fore
SplineSet
610 264 m 0xfe80
 668 264 703 195 703 132 c 0
 703 58 661 -7 604 -7 c 0
 578 -7 543 4 519 54 c 1
 475 14 426 -3 370 -3 c 0
 263 -3 190 67 189 176 c 2
 189 368 l 1
 163 342 137 340 132 340 c 0
 82 340 60 393 60 441 c 0
 60 519 111 590 165 590 c 0
 231 590 267 492 267 439 c 2
 268 183 l 2
 268 122 285 56 399 56 c 0
 419 56 449 59 499 109 c 1xfd80
 499 581 l 1
 575 581 l 1
 575 258 l 1
 581 261 593 264 610 264 c 0xfe80
135 392 m 0
 149 392 192 430 192 478 c 0
 192 506 180 539 160 539 c 0
 140 539 106 494 106 450 c 0
 106 401 126 392 135 392 c 0
599 50 m 0
 632 50 653 93 653 126 c 0
 653 150 642 205 601 205 c 0
 563 205 553 152 553 126 c 256
 553 103 562 50 599 50 c 0
EndSplineSet
EndChar

StartChar: uni0E1A
Encoding: 3610 3610 237
Width: 739
VWidth: 1467
Flags: W
HStem: -6 60<315.79 510.836> 338 54<106.791 163.044> 537 52<124.931 178.367>
VStem: 54 47<393.652 512.176> 182 81<107.788 365 415.16 525.326> 558 77<104.73 580>
LayerCount: 2
Fore
SplineSet
160 589 m 0
 227 589 263 494 263 437 c 2
 263 192 l 2
 263 77 334 54 410 54 c 0
 475 54 558 60 558 194 c 2
 558 580 l 1
 635 580 l 1
 635 157 l 2
 635 67 552 -6 411 -6 c 0
 282 -6 182 54 182 157 c 2
 182 365 l 1
 176 360 154 338 124 338 c 0
 75 338 54 394 54 440 c 0
 54 516 107 589 160 589 c 0
130 392 m 0
 155 392 186 437 186 478 c 0
 186 501 175 537 157 537 c 0
 130 537 101 490 101 449 c 0
 101 418 111 392 130 392 c 0
EndSplineSet
EndChar

StartChar: uni0E1B
Encoding: 3611 3611 238
Width: 736
VWidth: 1467
Flags: W
HStem: -14 55<316.055 495.662> 344 54<102.758 148.136> 543 53<119.433 176.112>
VStem: 50 47<399.908 521.19> 179 79<100.956 374 424.5 528.843> 553 78<99.4363 850>
LayerCount: 2
Fore
SplineSet
156 596 m 0
 219 596 258 499 258 445 c 2
 258 203 l 2
 258 102 289 41 412 41 c 0
 525 41 553 117 553 192 c 2
 553 850 l 1
 631 850 l 1
 631 174 l 2
 631 121 602 -14 407 -14 c 0
 312 -14 179 22 179 166 c 2
 179 374 l 1
 162 354 138 344 120 344 c 0
 78 344 50 392 50 445 c 0
 50 524 105 596 156 596 c 0
126 398 m 0
 145 398 183 440 183 484 c 0
 183 501 177 543 152 543 c 0
 123 543 97 493 97 456 c 0
 97 409 115 398 126 398 c 0
EndSplineSet
EndChar

StartChar: uni0E1C
Encoding: 3612 3612 239
Width: 720
VWidth: 1467
Flags: MW
HStem: 0 21G<100 187.5 506 618> 194 94<362 362> 357 46<179.317 215.469> 535 50<189.008 240.391>
VStem: 100 67<426.621 512.688> 100 79<69 358> 245 44<426.748 521.946> 536 82<69 581>
LayerCount: 2
Fore
SplineSet
289 487 m 0xb7
 289 379 208 357 191 357 c 0
 187 357 183 357 179 358 c 1
 179 69 l 1
 265 104 307 196 361 288 c 1
 400 197 489 82 536 69 c 1
 536 581 l 1
 615 581 l 1
 618 0 l 1
 550 0 l 1
 462 44 427 88 362 194 c 1
 290 71 212 27 163 0 c 1
 100 0 l 1
 100 423 l 2
 100 464 124 585 219 585 c 0
 275 585 289 526 289 487 c 0xb7
193 403 m 0
 214 403 245 448 245 484 c 0
 245 501 240 535 219 535 c 0
 197 535 167 495 167 453 c 0xbb
 167 436 172 403 193 403 c 0
EndSplineSet
EndChar

StartChar: uni0E1D
Encoding: 3613 3613 240
Width: 720
VWidth: 1467
Flags: MW
HStem: 0 21G<100 188 505 616> 194 94<359 361> 359 47<178.05 183 180.525 222.202> 537 49<186.843 238.523>
VStem: 100 66<429.621 517.294> 100 78<69 359> 243 47<426.224 523.562> 536 80<69 845>
LayerCount: 2
Fore
SplineSet
178 69 m 1xb7
 224 89 273 123 359 288 c 1
 386 224 479 85 536 69 c 1
 536 845 l 1
 613 845 l 1
 616 0 l 1
 550 0 l 1
 460 42 419 97 361 194 c 1
 288 64 215 34 161 0 c 1
 100 0 l 1
 100 423 l 2
 100 466 123 586 217 586 c 0
 267 586 290 540 290 491 c 0
 290 407 225 358 188 358 c 0
 185 358 181 359 178 359 c 1
 178 69 l 1xb7
217 537 m 0
 190 537 166 490 166 456 c 0xbb
 166 439 171 406 191 406 c 0
 209 406 243 442 243 484 c 0
 243 503 238 537 217 537 c 0
EndSplineSet
EndChar

StartChar: uni0E1E
Encoding: 3614 3614 241
Width: 771
VWidth: 1467
Flags: W
HStem: 1 21G<173 282.5 561 668> 328 54<124.437 172.742> 530 56<106.035 161.291>
VStem: 52 46<410.14 525.552> 173 78<59 330> 186 65<383.167 503.521> 587 81<60 581>
LayerCount: 2
Fore
SplineSet
135 586 m 0xfa
 190 586 251 522 251 439 c 2xf6
 251 59 l 1
 325 133 383 394 414 494 c 1
 507 228 552 85 587 60 c 1
 587 581 l 1
 668 581 l 1
 668 1 l 1
 588 1 l 1
 534 24 456 155 415 354 c 1
 395 194 317 37 248 1 c 1
 173 1 l 1
 173 330 l 1
 170 329 166 328 163 328 c 0
 101 328 52 411 52 478 c 0
 52 518 65 586 135 586 c 0xfa
157 382 m 0
 169 382 186 391 186 442 c 0
 186 488 150 530 133 530 c 0
 115 530 98 507 98 470 c 0
 98 423 139 382 157 382 c 0
EndSplineSet
EndChar

StartChar: uni0E1F
Encoding: 3615 3615 242
Width: 768
VWidth: 1467
Flags: W
HStem: 1 21G<170 279.5 558 665> 328 54<122.038 169.742> 529 56<102.779 158.81>
VStem: 49 46<410.826 525.42> 170 78<59 330> 183 65<383.167 502.893> 584 81<60 848>
LayerCount: 2
Fore
SplineSet
131 585 m 0xfa
 188 585 248 521 248 439 c 2xf6
 248 59 l 1
 322 133 380 394 411 494 c 1
 514 196 550 84 584 60 c 1
 584 848 l 1
 665 848 l 1
 665 1 l 1
 585 1 l 1
 531 24 460 141 412 354 c 1
 392 194 314 37 245 1 c 1
 170 1 l 1
 170 330 l 1
 167 329 163 328 160 328 c 0
 101 328 49 407 49 478 c 0
 49 523 65 585 131 585 c 0xfa
154 382 m 0
 166 382 183 391 183 442 c 0
 183 484 151 529 128 529 c 0
 108 529 95 502 95 470 c 0
 95 423 136 382 154 382 c 0
EndSplineSet
EndChar

StartChar: uni0E20
Encoding: 3616 3616 243
Width: 691
VWidth: 1467
Flags: W
HStem: -6 55<130.84 185.501> 198 53<113.681 158.57> 531 56<200 254.708 254.708 416.792>
VStem: 56 48<77.0782 176.865> 170 69<239 483> 192 47<53.0379 170.374> 511 74<4 168 168 446.307>
LayerCount: 2
Fore
SplineSet
56 148 m 0xf6
 56 195 82 251 129 251 c 0
 143 251 156 247 170 239 c 1
 170 483 l 1xfa
 104 544 l 1
 104 587 l 1
 300 587 l 2
 523 587 585 484 585 329 c 2
 585 4 l 1
 511 4 l 1
 506 332 l 2
 506 414 492 534 309 534 c 0
 283 534 235 532 200 531 c 1
 239 486 l 1
 239 99 l 2
 239 40 210 -6 166 -6 c 0
 113 -6 56 71 56 148 c 0xf6
161 49 m 0
 180 49 192 77 192 105 c 0xf6
 192 151 157 198 136 198 c 0
 116 198 104 160 104 136 c 0
 104 88 146 49 161 49 c 0
EndSplineSet
EndChar

StartChar: uni0E21
Encoding: 3617 3617 244
Width: 677
VWidth: 1467
Flags: W
HStem: -5 60<126.866 199.644 335.371 464.899> 207 58<109.459 168.885> 343 52<123.172 178.576> 542 53<142.448 195.859>
VStem: 48 52<82.9679 199.815> 70 47<397.045 516.634> 201 78<113 179.258 236 371 418.38 452 435.19 525.319> 511 77<103.463 582>
LayerCount: 2
Fore
SplineSet
380 56 m 0xf7
 490 56 511 121 511 188 c 2
 511 582 l 1
 588 582 l 1
 588 179 l 2
 588 77 499 -3 396 -3 c 0
 318 -3 249 69 249 69 c 1
 242 39 219 -5 176 -5 c 0
 126 -5 48 60 48 148 c 0xfb
 48 214 90 265 138 265 c 0
 151 265 171 262 201 236 c 1
 201 371 l 1
 185 356 161 343 140 343 c 0
 99 343 70 389 70 441 c 0
 70 503 109 595 185 595 c 0
 243 595 280 529 280 461 c 0
 280 455 280 449 279 443 c 1
 279 113 l 1
 324 59 360 56 380 56 c 0xf7
146 395 m 0
 159 395 202 425 202 481 c 0
 202 502 197 542 173 542 c 0
 147 542 117 490 117 454 c 0xf7
 117 420 129 395 146 395 c 0
165 55 m 0
 197 55 205 81 205 111 c 0
 205 146 179 207 143 207 c 0
 126 207 100 194 100 145 c 0xfb
 100 94 140 55 165 55 c 0
EndSplineSet
EndChar

StartChar: uni0E22
Encoding: 3618 3618 245
Width: 691
VWidth: 1467
Flags: W
HStem: -1 63<187.91 506> 289 38<227.818 308> 408 46<275.751 369.252> 545 44<247.77 335.818>
VStem: 66 87<95.206 233.179> 89 73<388.89 512.631> 200 47<482.5 527.909> 370 46<457 512.535> 506 81<62 584>
LayerCount: 2
Fore
SplineSet
153 163 m 0xfb80
 153 82 210 62 268 62 c 2
 506 62 l 1
 506 584 l 1
 587 584 l 1
 587 -1 l 1
 257 -1 l 2
 104 -1 66 93 66 156 c 0xfb80
 66 277 183 298 222 307 c 1
 197 313 89 335 89 446 c 0
 89 566 213 589 274 589 c 0
 338 589 416 529 416 472 c 0
 416 441 387 408 341 408 c 0
 247 408 202 487 200 528 c 1
 178 514 162 484 162 449 c 0xf780
 162 389 224 327 308 327 c 1
 308 289 l 1
 265 284 153 285 153 163 c 0xfb80
370 478 m 0
 370 494 332 545 279 545 c 0
 252 545 247 532 247 523 c 0
 247 507 277 454 327 454 c 0
 352 454 370 463 370 478 c 0
EndSplineSet
EndChar

StartChar: uni0E23
Encoding: 3619 3619 246
Width: 588
VWidth: 1467
Flags: W
HStem: -10 44<231.254 326.605> 123 45<208.797 295.375> 503 21G<482 498.97> 537 54<148.286 412.29>
VStem: 65 62<442.527 516.476> 155 48<76.9156 122.151> 389 82<73.1367 316.179>
LayerCount: 2
Fore
SplineSet
127 498 m 0
 127 470 471 406 471 307 c 2
 471 65 l 2
 471 20 379 -10 300 -10 c 0
 236 -10 155 49 155 109 c 0
 155 144 188 168 226 168 c 0
 276 168 362 127 371 57 c 1
 383 66 389 76 389 87 c 2
 389 283 l 2
 389 366 65 401 65 484 c 0
 65 527 101 591 292 591 c 0
 360 591 440 582 492 569 c 1
 502 503 l 1
 462 516 369 537 259 537 c 0
 164 537 127 506 127 498 c 0
203 103 m 0
 203 98 219 34 294 34 c 0
 324 34 327 51 327 57 c 0
 327 68 299 123 230 123 c 0
 214 123 203 115 203 103 c 0
EndSplineSet
EndChar

StartChar: uni0E24
Encoding: 3620 3620 247
Width: 671
VWidth: 1467
Flags: W
HStem: -3 46<150.494 201.302> 177 48<180.15 218.974> 523 58<188.469 256.5 256.5 417.75>
VStem: 103 43<43.711 157.43> 103 77<222 354.836> 224 48<65.1401 162.037> 493 75<-247 454.254>
LayerCount: 2
Fore
SplineSet
492 324 m 2xee
 492 451 470 526 294 526 c 0
 264 526 249 523 219 523 c 0
 208 523 198 523 188 524 c 1
 247 463 245 463 246 462 c 1
 246 417 l 1
 240 411 186 388 180 280 c 2
 180 222 l 1xee
 186 224 193 225 200 225 c 0
 243 225 272 175 272 130 c 0
 272 59 216 -3 170 -3 c 0
 130 -3 103 35 103 83 c 2xf6
 103 239 l 2
 103 322 133 405 197 446 c 1
 98 537 l 1
 97 537 l 1
 97 581 l 1
 230 581 l 2
 378 581 480 580 538 476 c 0
 558 440 568 390 568 323 c 2
 568 -247 l 1
 493 -247 l 1
 492 324 l 2xee
224 121 m 0
 224 139 220 177 195 177 c 0
 180 177 146 141 146 97 c 0xf6
 146 54 162 43 172 43 c 0
 190 43 224 84 224 121 c 0
EndSplineSet
EndChar

StartChar: uni0E25
Encoding: 3621 3621 248
Width: 693
VWidth: 1467
Flags: W
HStem: -6 40<201.262 317.352> 109 41<199.691 300.952> 533 52<216.952 452.144>
VStem: 75 76<112.105 226.654> 327 49<46.7732 97.2838> 509 79<0 355 397.066 488.701>
LayerCount: 2
Fore
SplineSet
349 585 m 0
 549 585 588 494 588 434 c 2
 588 0 l 1
 509 0 l 1
 509 355 l 1
 485 336 485 330 464 318 c 0
 394 287 322 304 242 278 c 0
 191 261 151 211 151 166 c 0
 151 154 152 130 156 107 c 1
 167 123 200 150 260 150 c 0
 323 150 376 116 376 72 c 256
 376 25 321 -6 252 -6 c 0
 136 -6 75 94 75 163 c 0
 75 218 113 330 226 346 c 0
 349 364 404 340 468 386 c 0
 497 407 506 405 506 436 c 0
 506 514 406 533 353 533 c 0
 272 533 209 513 150 483 c 1
 157 549 l 1
 190 567 263 585 349 585 c 0
259 109 m 0
 232 109 192 93 192 72 c 0
 192 52 235 34 260 34 c 0
 284 34 327 50 327 73 c 0
 327 96 279 109 259 109 c 0
EndSplineSet
EndChar

StartChar: uni0E26
Encoding: 3622 3622 249
Width: 691
VWidth: 1467
Flags: W
HStem: -6 55<130.84 185.236> 198 53<113.681 158.57> 531 56<201.65 416.792>
VStem: 56 48<77.0782 176.865> 170 76<239 483> 192 54<51.8118 170.737> 511 74<-248 42 42 446.307>
LayerCount: 2
Fore
SplineSet
56 148 m 0xf6
 56 195 82 251 129 251 c 0
 143 251 156 247 170 239 c 1
 170 483 l 1xfa
 104 544 l 1
 104 587 l 1
 300 587 l 2
 523 587 585 484 585 329 c 2
 585 -248 l 1
 511 -248 l 1
 506 332 l 2
 506 414 492 534 309 534 c 0
 283 534 235 532 200 531 c 1
 201 529 245 487 246 486 c 1
 246 101 l 2
 246 46 213 -6 166 -6 c 0
 113 -6 56 71 56 148 c 0xf6
161 49 m 0
 180 49 192 77 192 105 c 0xf6
 192 152 157 198 136 198 c 0
 116 198 104 160 104 136 c 0
 104 88 146 49 161 49 c 0
EndSplineSet
EndChar

StartChar: uni0E27
Encoding: 3623 3623 250
Width: 627
VWidth: 1467
Flags: W
HStem: -6 46<286.574 379.189> 129 45<257.471 349.249> 535 49<158.158 370.631>
VStem: 209 48<69.6621 122.48> 445 79<124.125 471.547>
LayerCount: 2
Fore
SplineSet
59 506 m 1
 76 536 151 584 269 584 c 0
 414 584 524 513 524 434 c 2
 524 154 l 2
 524 58 454 -6 365 -6 c 0
 291 -6 209 48 209 113 c 0
 209 149 240 174 282 174 c 0
 326 174 396 142 420 84 c 1
 444 99 445 141 445 189 c 2
 445 403 l 2
 445 509 336 535 265 535 c 0
 177 535 125 500 106 478 c 1
 59 506 l 1
284 129 m 0
 265 129 257 116 257 107 c 0
 257 93 286 40 348 40 c 0
 372 40 381 52 381 60 c 0
 381 63 364 129 284 129 c 0
EndSplineSet
EndChar

StartChar: uni0E28
Encoding: 3624 3624 251
Width: 739
VWidth: 1467
Flags: W
HStem: 1 21G<100 176 531 610> 211 37<297.064 409.288> 339 47<296.303 413.619> 527 64<232.465 476.292>
VStem: 100 76<1 247.63 302 479.483> 421 47<260.815 327.853> 531 79<1 482.701>
LayerCount: 2
Fore
SplineSet
100 431 m 2
 100 559 236 591 352 591 c 0
 531 591 570 528 574 524 c 1
 591 565 619 595 660 615 c 1
 704 566 l 1
 666 545 610 484 610 436 c 2
 610 1 l 1
 531 1 l 1
 531 144 531 430 531 430 c 2
 531 508 433 527 355 527 c 0
 287 527 176 514 176 423 c 2
 176 302 l 1
 216 346 273 386 344 386 c 0
 429 386 468 330 468 293 c 256
 468 252 419 211 352 211 c 256
 282 211 240 253 236 288 c 1
 184 244 176 216 176 141 c 2
 176 1 l 1
 100 1 l 1
 100 431 l 2
352 339 m 0
 298 339 286 304 286 295 c 0
 286 272 310 248 355 248 c 0
 404 248 421 279 421 299 c 0
 421 323 390 339 352 339 c 0
EndSplineSet
EndChar

StartChar: uni0E29
Encoding: 3625 3625 252
Width: 779
VWidth: 1467
Flags: W
HStem: -3 60<324.448 523.637> 212 43<384.401 473.827> 330 40<383.168 497.445> 336 57<123.513 174.501> 539 52<135.13 190.366>
VStem: 60 52<394.699 515.92> 195 81<101.301 364 417.863 536.095> 329 30<266.087 319.762> 503 31<271.672 319.61> 568 82<101.561 227 317 581>
LayerCount: 2
Fore
SplineSet
431 370 m 256xefc0
 485 370 534 340 534 293 c 0
 534 282 530 271 522 260 c 1
 559 269 559 271 568 274 c 1
 568 581 l 1
 650 581 l 1
 650 317 l 1
 672 334 694 358 695 387 c 1
 734 389 l 1
 731 372 720 310 650 264 c 1
 650 160 l 2
 650 64 546 -3 418 -3 c 0
 336 -3 195 30 195 160 c 2
 195 364 l 1
 176 348 157 336 135 336 c 0xdfc0
 90 336 60 389 60 446 c 0
 60 528 124 591 175 591 c 0
 256 591 276 487 276 440 c 2
 276 179 l 2
 276 106 310 57 421 57 c 0
 492 57 568 69 568 183 c 2
 568 227 l 1
 538 218 505 212 462 212 c 0
 358 212 329 260 329 293 c 0
 329 340 377 370 431 370 c 256xefc0
426 255 m 0
 429 255 503 258 503 295 c 0
 503 316 468 330 431 330 c 0xefc0
 422 330 359 327 359 292 c 0
 359 262 416 255 426 255 c 0
139 393 m 0xdfc0
 167 393 198 439 198 478 c 0
 198 501 190 539 168 539 c 0
 151 539 112 507 112 450 c 0
 112 400 133 393 139 393 c 0xdfc0
EndSplineSet
EndChar

StartChar: uni0E2A
Encoding: 3626 3626 253
Width: 730
VWidth: 1467
Flags: W
HStem: -7 39<209.786 323.661> 109 45<208.199 309.216> 539 52<227.733 459.552>
VStem: 81 75<113.769 229.676> 335 49<45.3668 97.1441> 516 78<-1 355 393.219 485.299>
LayerCount: 2
Fore
SplineSet
157 487 m 1
 166 556 l 1
 196 574 272 591 350 591 c 0
 528 591 556 528 560 524 c 1
 579 564 608 593 649 612 c 1
 693 565 l 1
 682 556 599 507 594 414 c 2
 594 -1 l 1
 516 -1 l 1
 516 355 l 1
 498 339 493 341 465 330 c 0
 400 303 376 307 267 282 c 0
 169 255 156 197 156 166 c 0
 156 124 158 117 164 107 c 1
 183 132 220 154 267 154 c 0
 340 154 384 108 384 72 c 0
 384 25 327 -7 267 -7 c 0
 186 -7 81 52 81 175 c 0
 81 245 114 335 267 351 c 0
 382 359 436 372 475 386 c 0
 502 395 514 405 514 434 c 0
 514 524 411 539 357 539 c 0
 276 539 201 511 157 487 c 1
264 109 m 0
 239 109 200 93 200 70 c 0
 200 50 237 32 268 32 c 0
 300 32 335 54 335 73 c 0
 335 99 281 109 264 109 c 0
EndSplineSet
EndChar

StartChar: uni0E2B
Encoding: 3627 3627 254
Width: 761
VWidth: 1467
Flags: W
HStem: 0 21G<186 264 578 657> 339 53<101.731 155.583> 422 39<424.334 480.094> 537 52<120.885 173.638 440.91 578.385>
VStem: 48 47<408.346 511.327> 186 78<0 277.928 327 374 425.386 528.013> 373 42<473.267 531.276> 578 79<0 335.152> 585 41<476.376 532.739>
LayerCount: 2
Fore
SplineSet
578 440 m 1xff
 606 428 657 417 657 308 c 2
 657 0 l 1
 578 0 l 1
 578 289 l 2xff
 578 325 576 375 534 398 c 0
 504 414 476 422 450 422 c 0
 343 422 264 300 264 145 c 2
 264 0 l 1
 186 0 l 1
 186 374 l 1
 173 358 148 339 122 339 c 0
 78 339 48 381 48 436 c 0
 48 503 93 589 154 589 c 0
 227 589 264 503 264 447 c 2
 264 327 l 1
 320 429 367 446 399 455 c 1
 382 468 373 484 373 505 c 0
 373 551 430 585 499 585 c 0
 565 585 626 552 626 503 c 0xfe80
 626 465 585 444 578 440 c 1xff
125 392 m 0
 136 392 180 424 180 478 c 0
 180 511 168 537 151 537 c 0
 129 537 95 491 95 450 c 0
 95 429 101 392 125 392 c 0
415 503 m 0
 415 486 434 461 497 461 c 0
 531 461 585 475 585 506 c 0xfe80
 585 521 570 543 499 543 c 0
 469 543 415 535 415 503 c 0
EndSplineSet
EndChar

StartChar: uni0E2C
Encoding: 3628 3628 255
Width: 849
VWidth: 1467
Flags: W
HStem: 0 21G<179 294.5 552 673> 324 54<130.299 178.222> 423 39<514.607 590.686> 525 55<113.134 165.976> 541 41<500.855 600.664>
VStem: 51 53<405.85 503.98> 179 78<57 326> 192 65<408.127 497.994> 439 54<470.985 531.091> 591 82<59 425>
LayerCount: 2
Fore
SplineSet
671 530 m 1xeec0
 700 556 715 572 734 606 c 1
 808 606 l 1
 772 536 721 487 671 456 c 1
 673 0 l 1
 597 0 l 1
 507 35 441 176 421 222 c 1
 396 146 334 42 255 0 c 1
 179 0 l 1
 179 326 l 1xeec0
 174 325 170 324 165 324 c 0
 121 324 51 381 51 470 c 0
 51 511 72 580 139 580 c 0
 203 580 257 502 257 434 c 2xf5c0
 257 57 l 1
 349 151 396 289 417 362 c 1
 480 202 558 80 591 59 c 1
 591 425 l 1
 578 423 562 423 559 423 c 0
 494 423 439 455 439 502 c 256
 439 550 498 582 559 582 c 0
 616 582 654 570 671 530 c 1xeec0
161 378 m 0
 185 378 192 416 192 433 c 0
 192 483 155 525 136 525 c 0xf5c0
 117 525 104 487 104 465 c 0
 104 418 144 378 161 378 c 0
493 499 m 0
 493 469 536 462 559 462 c 256
 592 462 618 477 618 504 c 0
 618 534 586 541 559 541 c 256xecc0
 526 541 493 527 493 499 c 0
EndSplineSet
Substitution2: "Single Substitution lookup 22 subtable" uni0E2C.alt1
Substitution2: "Single Substitution lookup 22 subtable" uni0E2C.alt1
EndChar

StartChar: uni0E2D
Encoding: 3629 3629 256
Width: 682
VWidth: 1467
Flags: W
HStem: -9 63<207.227 393.776> 198 44<214.643 316.229> 324 50<232.679 337.419> 539 53<207.043 422.625>
VStem: 72 76<104.968 237.416> 338 48<263.539 321.05> 497 80<106.45 477.204>
LayerCount: 2
Fore
SplineSet
316 539 m 0
 210 539 167 492 158 483 c 1
 112 514 l 1
 129 538 206 592 326 592 c 0
 469 592 577 518 577 442 c 2
 577 150 l 2
 562 3 362 -9 311 -9 c 0
 189 -9 72 42 72 176 c 0
 72 292 205 374 300 374 c 0
 356 374 386 335 386 301 c 0
 386 256 341 198 257 198 c 0
 177 198 161 246 161 250 c 0
 161 251 161 253 160 255 c 1
 150 231 148 206 148 172 c 0
 148 78 238 54 309 54 c 0
 396 54 497 92 497 150 c 2
 497 411 l 2
 497 514 385 539 316 539 c 0
212 271 m 0
 212 265 219 242 246 242 c 0
 316 242 338 283 338 299 c 0
 338 314 326 324 293 324 c 0
 240 324 212 287 212 271 c 0
EndSplineSet
EndChar

StartChar: uni0E2E
Encoding: 3630 3630 257
Width: 713
VWidth: 1467
Flags: W
HStem: -0 62<219.68 435.56> 186 42<233.912 326.178> 308 43<247.207 349.185> 384 52<197.815 452.705> 531 49<222.579 444.426>
VStem: 86 77<113.05 223.53> 117 61<450.846 497.53> 350 48<251.508 299.816> 508 77<114.898 409>
LayerCount: 2
Fore
SplineSet
335 580 m 0xfb80
 451 580 525 536 550 506 c 1
 564 532 596 573 638 594 c 1
 668 563 l 1
 622 542 585 491 585 402 c 2
 585 156 l 2
 585 51 435 0 326 -0 c 0
 211 -0 86 48 86 176 c 0
 86 316 250 351 305 351 c 0
 379 351 398 314 398 289 c 0
 398 250 355 186 269 186 c 0
 198 186 179 222 176 239 c 1
 164 211 163 202 163 178 c 0xfd80
 163 94 240 62 320 62 c 0
 417 62 508 104 508 156 c 2
 508 409 l 1
 469 393 407 384 344 384 c 0
 226 384 117 422 117 474 c 0
 117 512 178 580 335 580 c 0xfb80
305 308 m 0
 263 308 223 273 223 252 c 0
 223 233 249 228 269 228 c 0
 319 228 350 270 350 285 c 0
 350 294 341 308 305 308 c 0
506 465 m 1
 491 490 433 531 330 531 c 0
 241 531 178 493 178 471 c 0xfb80
 178 457 201 436 339 436 c 0
 463 436 503 460 506 465 c 1
EndSplineSet
EndChar

StartChar: uni0E2F
Encoding: 3631 3631 258
Width: 547
VWidth: 1467
Flags: W
HStem: 0 21G<362 442> 423 42<168.05 264.123> 567 20G<354.5 442> 588 36<126.471 186.843>
VStem: 79 363<458 587 558 587 558 558> 79 43<515.45 587.769> 234 39<477.438 534.929> 362 80<0 493>
LayerCount: 2
Fore
SplineSet
268 475 m 1xf2
 312 488 335 522 374 587 c 1
 442 587 l 1xf8
 442 0 l 1
 362 0 l 1
 362 493 l 1xf1
 314 437 278 423 216 423 c 0
 178 423 79 458 79 558 c 0xf8
 79 587 90 624 136 624 c 0
 231 624 273 536 273 500 c 0
 273 491 271 483 268 475 c 1xf2
122 569 m 0xf6
 122 536 168 465 215 465 c 0
 228 465 234 473 234 486 c 0
 234 510 188 588 144 588 c 0
 137 588 122 585 122 569 c 0xf6
EndSplineSet
EndChar

StartChar: uni0E30
Encoding: 3632 3632 259
Width: 531
VWidth: 1467
Flags: W
HStem: 47 38<109.691 225.93> 161 34<109.129 244.797> 358 38<109.952 228.283> 471 34<110.526 244.076>
VStem: 65 36<98.3527 148.147 408.972 457.995>
LayerCount: 2
Fore
SplineSet
193 358 m 0
 120 358 65 387 65 430 c 0
 65 472 121 505 183 505 c 0
 260 505 282 457 285 430 c 1
 325 450 324 462 364 522 c 1
 443 522 l 1
 418 480 343 358 193 358 c 0
177 471 m 0
 132 471 101 450 101 432 c 0
 101 413 145 396 178 396 c 0
 210 396 251 406 255 430 c 1
 255 451 216 471 177 471 c 0
183 195 m 0
 261 195 282 147 285 120 c 1
 319 138 323 145 364 213 c 1
 443 213 l 1
 417 169 343 47 192 47 c 0
 118 47 65 76 65 120 c 0
 65 162 121 195 183 195 c 0
179 85 m 0
 194 85 250 92 255 120 c 1
 255 145 211 161 177 161 c 0
 138 161 101 144 101 123 c 0
 101 100 148 85 179 85 c 0
EndSplineSet
EndChar

StartChar: uni0E31
Encoding: 3633 3633 260
Width: 0
VWidth: 1467
Flags: W
HStem: 698 40<-252.007 -137.672> 814 33<-251.1 -122.565>
VStem: -299 381<772 867 772 772> -299 38<751.545 800.077>
LayerCount: 2
Fore
SplineSet
-181 847 m 0xe0
 -96 847 -82 788 -81 772 c 1
 -37 794 -36 810 0 867 c 1
 82 867 l 1
 64 839 -21 698 -176 698 c 0
 -242 698 -299 727 -299 772 c 0
 -299 814 -244 847 -181 847 c 0xe0
-261 775 m 0xd0
 -261 755 -218 738 -185 738 c 0
 -171 738 -112 742 -112 776 c 0
 -112 793 -153 814 -188 814 c 0
 -215 814 -261 798 -261 775 c 0xd0
EndSplineSet
Substitution2: "Single Substitution lookup 22 subtable" uni0E31.alt1
Substitution2: "Single Substitution lookup 22 subtable" uni0E31.alt1
EndChar

StartChar: uni0E32
Encoding: 3634 3634 261
Width: 523
VWidth: 1467
Flags: W
HStem: 0 21G<339 418> 502 21G<53.3333 66.5> 539 49<118.401 278.727>
VStem: 339 79<0 474.602>
LayerCount: 2
Fore
SplineSet
185 588 m 0
 311 588 418 502 418 395 c 2
 418 0 l 1
 339 0 l 1
 339 380 l 2
 339 438 333 539 181 539 c 0
 131 539 83 523 50 502 c 1
 57 544 l 1
 91 578 153 588 185 588 c 0
EndSplineSet
EndChar

StartChar: uni0E33
Encoding: 3635 3635 262
Width: 523
VWidth: 1467
Flags: W
HStem: 0 21<339 418> 502 21<53.3333 66.5> 539 49<118.401 278.727> 698 34<-219.329 -153.659> 864 37<-219.904 -151.98>
VStem: -285 52<742.889 853.237> -141 53<758.035 854.424> 339 79<0 474.602>
LayerCount: 2
Back
SplineSet
200 588 m 0
 230 588 259.167 583.167 287.5 573.5 c 128
 315.833 563.833 340.833 550.167 362.5 532.5 c 128
 384.167 514.833 401.333 494.333 414 471 c 128
 426.667 447.667 433 422.333 433 395 c 2
 433 -3 l 1
 354 -3 l 1
 354 367 l 2
 354 395 352.667 418.333 350 437 c 128
 347.333 455.667 338.667 473.333 324 490 c 0
 310.667 506 293.167 518 271.5 526 c 128
 249.833 534 227 538.333 203 539 c 128
 179 539.667 154.833 536.833 130.5 530.5 c 128
 106.167 524.167 84.3333 514.667 65 502 c 1
 72 544 l 1
 82 554 93.5 562 106.5 568 c 128
 119.5 574 132.333 578.333 145 581 c 128
 157.667 583.667 169.167 585.5 179.5 586.5 c 128
 189.833 587.5 196.667 588 200 588 c 0
-302 738 m 0
 -303.333 766.667 -294 790.5 -274 809.5 c 128
 -254 828.5 -230.667 838 -204 838 c 0
 -192 838 -180.167 835.333 -168.5 830 c 128
 -156.833 824.667 -146.333 817.333 -137 808 c 128
 -127.667 798.667 -120.333 787.833 -115 775.5 c 128
 -109.667 763.167 -107 750.333 -107 737 c 0
 -106.333 708.333 -116 684.167 -136 664.5 c 128
 -156 644.833 -178.667 635 -204 635 c 0
 -232 635 -255.333 645.333 -274 666 c 128
 -292.667 686.667 -302 710.667 -302 738 c 0
-252 738 m 0
 -252 721.333 -248.167 706 -240.5 692 c 128
 -232.833 678 -220.667 670.333 -204 669 c 0
 -189.333 669 -178 676.333 -170 691 c 128
 -162 705.667 -157.667 721.333 -157 738 c 0
 -157 752.667 -160.833 766.667 -168.5 780 c 128
 -176.167 793.333 -188 800.333 -204 801 c 0
 -219.333 800.333 -231.167 793.167 -239.5 779.5 c 128
 -247.833 765.833 -252 752 -252 738 c 0
EndSplineSet
Fore
Refer: 284 3661 N 1 0 0 1 0 0 2
Refer: 261 3634 N 1 0 0 1 0 0 2
Substitution2: "Single Substitution lookup 22 subtable" uni0E33.alt1
Substitution2: "Single Substitution lookup 22 subtable" uni0E33.alt1
EndChar

StartChar: uni0E34
Encoding: 3636 3636 263
Width: 0
VWidth: 1467
Flags: W
HStem: 697 37<-502 -166> 795 47<-413.842 -218.702>
VStem: -552 448<697 708 708 708>
LayerCount: 2
Fore
SplineSet
-552 708 m 2
 -552 754 -480 842 -334 842 c 0
 -239 842 -145 803 -116 726 c 2
 -104 697 l 1
 -552 697 l 1
 -552 708 l 2
-166 734 m 1
 -187 779 -267 795 -329 795 c 0
 -378 795 -471 783 -502 734 c 1
 -166 734 l 1
EndSplineSet
Substitution2: "Single Substitution lookup 22 subtable" uni0E34.alt1
Substitution2: "Single Substitution lookup 22 subtable" uni0E34.alt1
EndChar

StartChar: uni0E35
Encoding: 3637 3637 264
Width: 0
VWidth: 1467
Flags: W
HStem: 697 35<-489 -176> 793 46<-444.625 -225.177>
VStem: -549 445<697 731.556 708 864 697 697> -166 62<781 864 697 864 781 781>
LayerCount: 2
Fore
SplineSet
-549 708 m 2xe0
 -549 761 -470 839 -337 839 c 0
 -235 839 -184 798 -166 781 c 1xd0
 -167 864 l 1
 -104 864 l 1
 -104 697 l 1
 -549 697 l 1
 -549 708 l 2xe0
-176 735 m 1
 -213 781 -288 793 -337 793 c 0
 -395 793 -467 776 -489 732 c 1
 -176 732 l 1
 -176 735 l 1
EndSplineSet
Substitution2: "Single Substitution lookup 22 subtable" uni0E35.alt1
Substitution2: "Single Substitution lookup 22 subtable" uni0E35.alt1
EndChar

StartChar: uni0E36
Encoding: 3638 3638 265
Width: 0
VWidth: 1467
Flags: W
HStem: 697 32<-528 -200> 794 47<-470.429 -301.668> 855 41<-263.261 -159.492>
VStem: -150 42<785.477 842.882>
LayerCount: 2
Fore
SplineSet
-209 896 m 0
 -150 896 -108 848 -108 808 c 0
 -108 772 -134 749 -156 738 c 1
 -156 734 -151 730 -138 697 c 1
 -578 697 l 1
 -578 708 l 2
 -578 767 -484 841 -359 841 c 0
 -341 841 -323 840 -305 836 c 1
 -297 871 -255 896 -209 896 c 0
-200 729 m 1
 -231 776 -299 794 -360 794 c 0
 -420 794 -502 777 -528 729 c 1
 -200 729 l 1
-267 828 m 1
 -227 817 -204 799 -180 772 c 1
 -152 777 -150 810 -150 811 c 0
 -150 828 -171 855 -212 855 c 0
 -239 855 -258 846 -267 828 c 1
EndSplineSet
Substitution2: "Single Substitution lookup 22 subtable" uni0E36.alt1
Substitution2: "Single Substitution lookup 22 subtable" uni0E36.alt1
EndChar

StartChar: uni0E37
Encoding: 3639 3639 266
Width: 0
VWidth: 1467
Flags: W
HStem: 697 35<-486 -188> 697 167<-167 -103 -282 -103 -103 -103> 793 46<-443.062 -289.64>
VStem: -552 449<697 730.31 708 864 697 697> -167 64<781 864>
LayerCount: 2
Fore
SplineSet
-552 708 m 2x50
 -552 757 -479 839 -341 839 c 0x30
 -320 839 -301 837 -282 833 c 1
 -282 864 l 1
 -208 864 l 1
 -208 808 l 1
 -193 801 -180 792 -167 781 c 1x48
 -170 864 l 1
 -103 864 l 1
 -103 697 l 1
 -552 697 l 1
 -552 708 l 2x50
-188 735 m 1
 -224 779 -291 793 -342 793 c 0
 -400 793 -465 775 -486 732 c 1
 -188 732 l 1xa0
 -188 735 l 1
EndSplineSet
Substitution2: "Single Substitution lookup 22 subtable" uni0E37.alt1
Substitution2: "Single Substitution lookup 22 subtable" uni0E37.alt1
EndChar

StartChar: uni0E38
Encoding: 3640 3640 267
Width: 0
VWidth: 1467
Flags: W
HStem: -225 39<-215.923 -171.204> -95 32<-199.5 -151.231>
VStem: -259 39<-185.865 -114.749> -161 63<-293 -201> -147 49<-161.985 -108.064>
LayerCount: 2
Fore
SplineSet
-259 -170 m 0xf0
 -259 -121 -222 -63 -165 -63 c 0
 -103 -63 -98 -118 -98 -131 c 2xe8
 -98 -293 l 1
 -161 -293 l 1
 -161 -201 l 1
 -173 -213 -183 -225 -216 -225 c 0
 -242 -225 -259 -211 -259 -170 c 0xf0
-220 -168 m 0
 -220 -183 -205 -186 -203 -186 c 0
 -184 -186 -147 -143 -147 -112 c 0
 -147 -102 -154 -95 -165 -95 c 0
 -197 -95 -220 -146 -220 -168 c 0
EndSplineSet
Substitution2: "Single Substitution lookup 21 subtable" a
Substitution2: "Single Substitution lookup 22 subtable" uni0E38.alt1
Substitution2: "Single Substitution lookup 21 subtable" a
Substitution2: "Single Substitution lookup 22 subtable" uni0E38.alt1
EndChar

StartChar: uni0E39
Encoding: 3641 3641 268
Width: 0
VWidth: 1467
Flags: W
HStem: -292 40<-236 -184.652> -231 37<-347.986 -305.876> -95 33<-324.009 -270.165>
VStem: -385 37<-193.803 -119.317> -292 56<-252 -211> -270 34<-169.472 -102.414> -166 59<-248.049 -69>
LayerCount: 2
Fore
SplineSet
-201 -252 m 2xfa
 -189 -252 -166 -247 -166 -211 c 2
 -166 -69 l 1
 -107 -69 l 1
 -107 -192 l 2
 -107 -243 -130 -292 -220 -292 c 2
 -292 -292 l 1
 -292 -211 l 1xfa
 -301 -221 -319 -231 -336 -231 c 0
 -359 -231 -385 -221 -385 -177 c 0
 -385 -125 -339 -62 -281 -62 c 0
 -245 -62 -242 -82 -236 -120 c 1xf6
 -236 -252 l 1
 -201 -252 l 2xfa
-328 -194 m 0
 -295 -194 -270 -134 -270 -114 c 0xf6
 -270 -103 -277 -95 -291 -95 c 0
 -325 -95 -348 -157 -348 -174 c 0
 -348 -186 -340 -194 -328 -194 c 0
EndSplineSet
Substitution2: "Single Substitution lookup 21 subtable" b
Substitution2: "Single Substitution lookup 22 subtable" uni0E39.alt1
Substitution2: "Single Substitution lookup 21 subtable" b
Substitution2: "Single Substitution lookup 22 subtable" uni0E39.alt1
EndChar

StartChar: uni0E3A
Encoding: 3642 3642 269
Width: 0
VWidth: 1467
Flags: W
HStem: -213 133<-184.972 -106>
VStem: -198 106<-200.191 -91.6849>
LayerCount: 2
Fore
SplineSet
-144 -80 m 0
 -112 -80 -92 -108 -92 -145 c 0
 -92 -181 -113 -213 -144 -213 c 0
 -166 -213 -198 -199 -198 -145 c 0
 -198 -107 -176 -80 -144 -80 c 0
EndSplineSet
Substitution2: "Single Substitution lookup 21 subtable" c
Substitution2: "Single Substitution lookup 22 subtable" uni0E3A.alt1
Substitution2: "Single Substitution lookup 21 subtable" c
Substitution2: "Single Substitution lookup 22 subtable" uni0E3A.alt1
EndChar

StartChar: uni0E3F
Encoding: 3647 3647 270
Width: 714
VWidth: 1467
Flags: W
HStem: 0 60<175 273 351 458.18> 389 67<348 431.023> 641 56<175 273 348 463.926>
VStem: 100 75<60 641> 273 75<-132 0 60 389 455 641 697 829> 493 69<496.972 612.078> 565 72<124.033 294.272>
LayerCount: 2
Fore
SplineSet
420 697 m 2
 503 687 562 651 562 558 c 0
 562 515 541 447 434 418 c 1
 529 397 637 340 637 210 c 0
 637 14 453 1 431 0 c 2
 351 0 l 1
 351 -132 l 1
 276 -132 l 1
 276 0 l 1
 100 0 l 1
 100 697 l 1
 273 697 l 1
 273 829 l 1
 348 829 l 1
 348 697 l 1
 420 697 l 2
493 555 m 0
 493 610 455 637 403 641 c 2
 348 641 l 1
 348 455 l 1
 389 456 l 2
 421 458 493 483 493 555 c 0
273 60 m 1
 273 641 l 1
 175 641 l 1
 175 60 l 1
 273 60 l 1
565 214 m 0
 565 324 462 380 379 389 c 2
 348 389 l 1
 348 60 l 1
 406 60 l 2
 486 60 565 91 565 214 c 0
EndSplineSet
EndChar

StartChar: uni0E40
Encoding: 3648 3648 271
Width: 325
VWidth: 1467
Flags: W
HStem: -9 48<148.466 199.445> 171 45<178.319 185.847 182.083 216.262> 560 20G<100 178>
VStem: 100 78<216 580> 100 44<40.8269 151.213> 221 41<60.1436 157.067>
LayerCount: 2
Fore
SplineSet
198 220 m 0xf4
 224 220 262 195 262 128 c 0
 262 47 208 -9 168 -9 c 0
 137 -9 102 24 100 81 c 2xec
 100 580 l 1
 178 580 l 1
 178 216 l 1
 182 216 186 220 198 220 c 0xf4
170 39 m 0
 183 39 221 72 221 118 c 0
 221 138 216 171 192 171 c 0
 175 171 144 131 144 89 c 0
 144 61 154 39 170 39 c 0
EndSplineSet
EndChar

StartChar: uni0E41
Encoding: 3649 3649 272
Width: 620
VWidth: 1467
Flags: W
HStem: -9 47<149.956 201.826 423.699 475.371> 172 49<179.85 219.137 455.293 493.542> 560 20G<100 179 374 455>
VStem: 100 79<217 580> 100 44<65.4414 150.682> 224 46<60.4099 157.727> 374 81<217 580> 374 45<62.2072 152.046> 499 46<61.3695 157.305>
LayerCount: 2
Fore
SplineSet
171 -9 m 0xf480
 129 -9 100 29 100 80 c 2xec80
 100 580 l 1
 179 580 l 1
 179 217 l 1
 184 219 192 221 200 221 c 0
 234 221 270 184 270 126 c 0
 270 57 221 -9 171 -9 c 0xf480
194 172 m 0
 175 172 144 127 144 91 c 0
 144 71 151 38 172 38 c 0
 190 38 224 76 224 118 c 0
 224 140 218 172 194 172 c 0
444 -9 m 0
 403 -9 374 28 374 80 c 2xe580
 374 580 l 1
 455 580 l 1
 455 217 l 1xe680
 462 219 469 220 475 220 c 0
 516 220 545 175 545 125 c 0
 545 51 491 -9 444 -9 c 0
469 172 m 0
 450 172 419 132 419 88 c 0
 419 63 428 38 445 38 c 0
 463 38 499 78 499 118 c 0
 499 139 493 172 469 172 c 0
EndSplineSet
EndChar

StartChar: uni0E42
Encoding: 3650 3650 273
Width: 378
VWidth: 1467
Flags: W
HStem: -9 48<201.905 255.442> 172 49<233.895 272.155> 1001 42<84.7964 261.106>
VStem: 1 49<917.846 971.2> 153 44<64.493 150.316> 153 80<217 842.814> 277 43<59.4937 158.052>
LayerCount: 2
Fore
SplineSet
50 951 m 0xf6
 50 885 233 893 233 800 c 2
 233 217 l 1xf6
 239 219 246 221 253 221 c 0
 280 221 320 198 320 129 c 0
 320 57 273 -9 224 -9 c 0
 195 -9 153 14 153 80 c 2xfa
 153 801 l 2
 153 882 1 863 1 939 c 0
 1 981 45 1043 166 1043 c 0
 227 1043 306 1026 365 1012 c 1
 376 958 l 1
 265 994 209 1001 168 1001 c 0
 97 1001 50 957 50 951 c 0xf6
248 172 m 0
 229 172 197 130 197 91 c 0xfa
 197 73 202 39 225 39 c 0
 245 39 277 78 277 120 c 0
 277 139 271 172 248 172 c 0
EndSplineSet
EndChar

StartChar: uni0E43
Encoding: 3651 3651 274
Width: 338
VWidth: 1467
Flags: W
HStem: -12 48<167.95 222.22> 169 44<198.207 203.039 200.623 236.799> 767 49<-6.54379 47.9469> 991 57<68.3436 201.348>
VStem: -60 47<833.092 918.875> 64 43<829.53 942.866> 120 43<60.2002 147.453> 120 78<213 674.601> 243 40<56.8613 167.724> 247 61<807.594 945.57>
LayerCount: 2
Fore
SplineSet
130 1048 m 0xfd40
 231 1048 308 965 308 872 c 0
 308 782 243 732 222 704 c 0
 202 678 198 671 198 663 c 2
 198 213 l 1xfd40
 201 213 203 218 213 218 c 0
 263 218 283 152 283 113 c 0
 283 53 231 -12 185 -12 c 0
 143 -12 121 34 120 76 c 2xfe80
 120 695 l 1
 161 739 l 2
 206 788 247 810 247 876 c 0
 247 934 208 991 134 991 c 0
 88 991 81 982 67 980 c 1
 85 964 107 934 107 891 c 0
 107 792 37 767 13 767 c 0
 -31 767 -60 815 -60 870 c 0
 -60 977 25 1048 130 1048 c 0xfd40
19 816 m 0
 44 816 64 860 64 889 c 0
 64 926 45 948 28 948 c 0
 -7 948 -13 881 -13 874 c 0
 -13 859 -9 816 19 816 c 0
215 169 m 0
 197 169 163 131 163 89 c 0
 163 69 168 36 189 36 c 0
 212 36 243 75 243 113 c 0xfe80
 243 142 233 169 215 169 c 0
EndSplineSet
EndChar

StartChar: uni0E44
Encoding: 3652 3652 275
Width: 440
VWidth: 1467
Flags: MW
HStem: -12 47<263.956 316.56> 169 49<298.56 334.371> 978 68<177.387 253.585>
VStem: 216 44<58.6206 148.723> 216 79<212 901.185 901.185 976.047> 340 40<58.9828 153.892>
LayerCount: 2
Fore
SplineSet
0 1049 m 1
 66 1023 75 993 95 916 c 1
 105 945 131 1046 222 1046 c 0
 289 1046 295 982 295 918 c 2
 295 212 l 1
 305 215 306 218 311 218 c 0
 356 218 380 159 380 115 c 0
 380 37 320 -12 279 -12 c 0
 254 -12 216 5 216 77 c 2
 216 862 l 2
 216 901 219 909 219 940 c 0
 219 969 213 978 204 978 c 0
 190 978 145 964 112 852 c 2
 100 810 l 1
 78 856 53 957 0 962 c 1
 0 1049 l 1
311 169 m 0
 290 169 260 128 260 85 c 0
 260 68 265 35 285 35 c 0
 305 35 340 75 340 115 c 0
 340 140 331 169 311 169 c 0
EndSplineSet
EndChar

StartChar: uni0E45
Encoding: 3653 3653 276
Width: 453
VWidth: 1467
Flags: W
HStem: 527 51<91.328 230.305>
VStem: 288 80<-249 465.673>
LayerCount: 2
Fore
SplineSet
122 578 m 0
 259 578 368 500 368 383 c 2
 368 -249 l 1
 288 -249 l 1
 288 371 l 2
 288 503 217 527 136 527 c 0
 116 527 95 524 73 518 c 1
 84 575 l 1
 91 577 104 578 122 578 c 0
EndSplineSet
EndChar

StartChar: uni0E46
Encoding: 3654 3654 277
Width: 642
VWidth: 1467
Flags: W
HStem: 289 51<143.936 193.28> 568 20G<218.5 296 373 455.5>
VStem: 78 53<349.125 492.83> 205 53<367.024 490.145> 461 78<-248 522.053>
LayerCount: 2
Fore
SplineSet
169 289 m 256
 114 289 78 349 78 420 c 0
 78 528 155 569 282 588 c 1
 310 538 305 557 333 508 c 1
 365 557 357 539 389 588 c 1
 522 572 539 493 539 437 c 2
 539 -248 l 1
 461 -248 l 1
 461 403 l 2
 461 511 445 533 420 533 c 1
 333 420 l 1
 251 525 l 1
 234 520 240 520 223 515 c 1
 243 492 258 462 258 420 c 0
 258 348 222 289 169 289 c 256
166 499 m 0
 145 499 131 459 131 420 c 256
 131 378 147 340 170 340 c 0
 198 340 205 399 205 420 c 0
 205 453 191 499 166 499 c 0
EndSplineSet
EndChar

StartChar: uni0E47
Encoding: 3655 3655 278
Width: 0
VWidth: 1467
Flags: W
HStem: 690 42<-255.232 -212.595> 691 52<-459.933 -424.242> 829 36<-233.624 -196.194> 917 51<-441.15 -288.347>
VStem: -527 52<771.775 883.84> -196 33<746.462 824.901>
LayerCount: 2
Fore
SplineSet
-475 820 m 0x7c
 -475 794 -463 743 -436 743 c 0x7c
 -427 743 -416 750 -406 764 c 2
 -343 860 l 1
 -289 786 l 1
 -258 865 -225 865 -213 865 c 0
 -173 865 -163 832 -163 801 c 0
 -163 725 -222 690 -248 690 c 0xbc
 -262 690 -281 699 -288 716 c 1
 -342 782 l 1
 -396 691 l 1
 -441 691 -527 718 -527 807 c 0
 -527 886 -496 968 -373 968 c 0
 -251 968 -195 988 -147 1053 c 1
 -98 1027 l 1
 -163 923 -298 917 -346 917 c 2
 -379 917 l 2
 -458 917 -475 854 -475 820 c 0x7c
-242 732 m 0xbc
 -221 732 -196 768 -196 806 c 0
 -196 820 -202 829 -211 829 c 0
 -232 829 -260 783 -260 754 c 0
 -260 737 -245 732 -242 732 c 0xbc
EndSplineSet
Substitution2: "Single Substitution lookup 22 subtable" uni0E47.alt1
Substitution2: "Single Substitution lookup 22 subtable" uni0E47.alt1
EndChar

StartChar: uni0E48
Encoding: 3656 3656 279
Width: 0
VWidth: 1467
Flags: W
VStem: -173 64<952 1100 952 1100 952 952>
LayerCount: 2
Fore
SplineSet
-109 952 m 1
 -173 952 l 1
 -173 1100 l 1
 -109 1100 l 1
 -109 952 l 1
EndSplineSet
Substitution2: "Single Substitution lookup 22 subtable" uni0E48.alt2
Substitution2: "Single Substitution lookup 22 subtable" uni0E48.alt2
EndChar

StartChar: uni0E49
Encoding: 3657 3657 280
Width: 0
VWidth: 1467
Flags: W
HStem: 954 197<-192 -178 -186 -175 -186 -186> 954 36<-283 -223> 1016 25<-220.641 -189.339> 1124 27<-206.016 -178.875>
VStem: -244 23<1046.46 1119.98> -175 37<1045.18 1123.82> -7 45<1019.28 1115>
LayerCount: 2
Fore
SplineSet
-179 986 m 1x8e
 -79 995 -36 1014 -7 1115 c 1
 38 1115 l 1
 -3 969 -96 954 -175 954 c 2x8e
 -283 954 l 1
 -283 990 l 1
 -223 990 l 1
 -217 996 -209 1001 -198 1006 c 1
 -191 1015 -190 1017 -186 1021 c 1
 -189 1016 -201 1016 -207 1016 c 0x6e
 -237 1016 -244 1050 -244 1070 c 0
 -244 1140 -192 1151 -186 1151 c 0
 -178 1151 -138 1147 -138 1082 c 0
 -138 1054 -150 1008 -179 986 c 1x8e
-175 1096 m 0
 -175 1121 -181 1124 -189 1124 c 0
 -204 1124 -221 1099 -221 1070 c 0
 -221 1048 -216 1041 -208 1041 c 0x3e
 -191 1041 -175 1069 -175 1096 c 0
EndSplineSet
Substitution2: "Single Substitution lookup 22 subtable" uni0E49.alt2
Substitution2: "Single Substitution lookup 22 subtable" uni0E49.alt2
EndChar

StartChar: uni0E4A
Encoding: 3658 3658 281
Width: 0
VWidth: 1467
Flags: W
HStem: 941 24<-282.431 -224.412> 946 213<-247 3 48 48> 1019 24<-295.73 -253.772> 1097 30<-167 -149>
VStem: -342 39<976.169 1041.28> -223 21<968.412 1002.47> -108 40<1001.74 1082.54> 3 45<1052.92 1159>
LayerCount: 2
Fore
SplineSet
-68 1027 m 0xbf
 -68 1015 -70 1003 -75 992 c 1
 -34 1026 -5 1089 3 1159 c 1
 48 1159 l 1
 39 1052 -19 955 -116 946 c 1x4f
 -117 955 -123 960 -126 967 c 1
 -116 982 -108 1005 -108 1030 c 0
 -108 1080 -149 1097 -149 1097 c 1
 -156 1097 -181 1061 -198 1051 c 1
 -252 1096 l 1
 -266 1090 -287 1078 -296 1040 c 1
 -287 1042 -280 1043 -276 1043 c 0
 -238 1043 -202 1004 -202 974 c 0
 -202 947 -227 941 -247 941 c 0
 -261 941 -342 952 -342 1023 c 0
 -342 1076 -298 1127 -248 1127 c 1
 -197 1084 l 1
 -167 1127 l 1
 -93 1127 -68 1066 -68 1027 c 0xbf
-223 979 m 0
 -223 996 -271 1019 -284 1019 c 0
 -294 1019 -303 1008 -303 1001 c 0
 -303 988 -274 965 -242 965 c 0xaf
 -228 965 -223 974 -223 979 c 0
EndSplineSet
Substitution2: "Single Substitution lookup 22 subtable" uni0E4A.alt2
Substitution2: "Single Substitution lookup 22 subtable" uni0E4A.alt2
EndChar

StartChar: uni0E4B
Encoding: 3659 3659 282
Width: 0
VWidth: 1467
Flags: W
HStem: 1017 53<-227 -153 -97 -31>
VStem: -227 196<1017 1070> -153 56<951 1017 1070 1146 951 1146 951 951>
LayerCount: 2
Fore
SplineSet
-31 1017 m 1xc0
 -97 1017 l 1
 -97 951 l 1
 -153 951 l 1
 -153 1017 l 1xa0
 -227 1017 l 1
 -227 1070 l 1xc0
 -153 1070 l 1
 -153 1146 l 1
 -97 1146 l 1
 -97 1070 l 1xa0
 -31 1070 l 1
 -31 1017 l 1xc0
EndSplineSet
Substitution2: "Single Substitution lookup 22 subtable" uni0E4B.alt2
Substitution2: "Single Substitution lookup 22 subtable" uni0E4B.alt2
EndChar

StartChar: uni0E4C
Encoding: 3660 3660 283
Width: 0
VWidth: 1467
Flags: W
HStem: 872 41<-144.612 -98.9952>
VStem: -185 39<920.367 992.819> -91 34<933.281 1012.46> -10 47<1111.67 1144 1144 1157.68 1157.68 1171>
LayerCount: 2
Fore
SplineSet
-185 958 m 0
 -185 1067 -19 1078 -10 1144 c 0
 -10 1152 -9 1161 -9 1172 c 1
 37 1171 l 1
 37 1134 10 1071 -84 1043 c 1
 -64 1026 -57 1005 -57 970 c 0
 -57 903 -94 872 -123 872 c 0
 -148 872 -185 895 -185 958 c 0
-124 913 m 0
 -96 913 -91 965 -91 972 c 0
 -91 994 -101 1013 -115 1013 c 0
 -137 1013 -146 969 -146 950 c 0
 -146 932 -142 913 -124 913 c 0
EndSplineSet
Substitution2: "Single Substitution lookup 22 subtable" uni0E4C.alt2
Substitution2: "Single Substitution lookup 22 subtable" uni0E4C.alt2
EndChar

StartChar: uni0E4D
Encoding: 3661 3661 284
Width: 0
VWidth: 1467
Flags: W
HStem: 698 34<-219.329 -153.659> 864 37<-219.904 -151.98>
VStem: -285 52<742.889 853.237> -141 53<758.035 854.424>
LayerCount: 2
Fore
SplineSet
-185 698 m 0
 -244 698 -285 748 -285 801 c 0
 -285 862 -237 901 -188 901 c 0
 -140 901 -88 859 -88 800 c 256
 -88 738 -143 698 -185 698 c 0
-185 864 m 0
 -213 864 -233 832 -233 801 c 0
 -233 766 -215 732 -184 732 c 0
 -150 732 -141 783 -141 801 c 0
 -141 833 -159 864 -185 864 c 0
EndSplineSet
Substitution2: "Single Substitution lookup 22 subtable" uni0E4D.alt1
Substitution2: "Single Substitution lookup 22 subtable" uni0E4D.alt1
EndChar

StartChar: uni0E4E
Encoding: 3662 3662 285
Width: 0
VWidth: 1467
Flags: W
HStem: 706 43<-175.507 -94.0691 -96.1328 -92.0053 -92.0053 -79> 995 44<-113.846 -21.1814>
VStem: -271 89<758.989 825.564> -205 82<913.588 983.513>
LayerCount: 2
Fore
SplineSet
-205 958 m 0xd0
 -205 1023 -133 1039 -74 1039 c 0
 -48 1039 -21 1036 7 1031 c 1
 -3 989 l 1
 -21 992 -42 995 -56 995 c 0
 -84 995 -123 985 -123 946 c 0xd0
 -123 912 -79 902 -51 899 c 1
 -62 845 l 1
 -115 839 -182 841 -182 790 c 0
 -182 773 -171 749 -106 749 c 0
 -95 749 -83 749 -69 751 c 1
 -79 710 l 1
 -96 707 -113 706 -130 706 c 0
 -208 706 -271 731 -271 773 c 0xe0
 -271 857 -202 878 -145 878 c 0
 -140 878 -135 877 -129 877 c 1
 -158 884 -205 909 -205 958 c 0xd0
EndSplineSet
Substitution2: "Single Substitution lookup 22 subtable" uni0E4E.alt1
Substitution2: "Single Substitution lookup 22 subtable" uni0E4E.alt1
EndChar

StartChar: uni0E4F
Encoding: 3663 3663 286
Width: 745
VWidth: 1467
Flags: W
HStem: 3 60<277.835 471.562> 125 63<308.425 439.427> 414 61<307.76 439.427> 537 62<277.083 470.165>
VStem: 76 62<203.221 397.831> 200 61<235.272 366.563> 487 62<235.057 366.159> 610 62<204.855 398.024>
LayerCount: 2
Fore
SplineSet
374 188 m 0
 439 188 487 239 487 301 c 0
 487 360 439 414 374 414 c 0
 306 414 261 359 261 301 c 0
 261 240 308 188 374 188 c 0
374 475 m 256
 471 475 549 398 549 301 c 256
 549 204 471 125 374 125 c 256
 277 125 200 204 200 301 c 256
 200 401 280 475 374 475 c 256
610 301 m 0
 610 435 504 537 374 537 c 0
 245 537 138 435 138 301 c 256
 138 167 244 63 374 63 c 0
 506 63 610 171 610 301 c 0
672 301 m 0
 672 138 543 3 374 3 c 256
 210 3 76 134 76 301 c 256
 76 464 205 599 374 599 c 0
 538 599 672 465 672 301 c 0
EndSplineSet
EndChar

StartChar: uni0E50
Encoding: 3664 3664 287
Width: 868
VWidth: 1467
Flags: W
HStem: -1 55<325.092 533.032> 439 59<318.48 539.363>
VStem: 134 66<166.035 325.625> 651 65<162.682 331.452>
LayerCount: 2
Fore
SplineSet
409 498 m 0
 574 498 716 427 716 249 c 0
 716 99 586 -1 430 -1 c 0
 295 -1 134 76 134 254 c 0
 134 371 216 498 409 498 c 0
429 54 m 0
 556 54 651 138 651 244 c 256
 651 330 595 439 428 439 c 0
 276 439 200 336 200 244 c 0
 200 153 288 54 429 54 c 0
EndSplineSet
EndChar

StartChar: uni0E51
Encoding: 3665 3665 288
Width: 868
VWidth: 1467
Flags: W
HStem: -1 63<272.209 563.344> 155 35<343.125 456.159> 282 36<358.363 482.293> 439 46<292.626 542.659>
VStem: 129 66<243.405 363.118> 291 40<202.231 213.746 207.988 256.049> 485 40<216.707 277.217> 657 82<136.797 353.781>
LayerCount: 2
Fore
SplineSet
525 252 m 0
 525 224 493 155 365 155 c 0
 280 155 129 182 129 288 c 0
 129 407 255 485 442 485 c 0
 586 485 739 451 739 287 c 2
 739 182 l 2
 739 119 679 65 640 43 c 256
 604 23 533 -1 427 -1 c 0
 284 -1 186 46 167 88 c 1
 222 106 l 1
 232 96 295 62 419 62 c 0
 545 62 657 93 657 217 c 258
 657 293 l 2
 657 383 543 439 414 439 c 0
 314 439 195 402 195 293 c 0
 195 241 249 214 292 202 c 1
 291 204 291 205 291 206 c 0
 291 208 288 209 288 222 c 0
 288 273 359 318 426 318 c 0
 477 318 525 290 525 252 c 0
432 282 m 0
 389 282 331 255 331 223 c 0
 331 195 352 190 380 190 c 0
 436 190 485 223 485 248 c 0
 485 269 471 282 432 282 c 0
EndSplineSet
EndChar

StartChar: uni0E52
Encoding: 3666 3666 289
Width: 868
VWidth: 1467
Flags: W
HStem: 0 66<265.617 619.871> 241 39<297.682 355.504> 434 53<291.94 351.359>
VStem: 100 76<158.896 238 238 657> 232 48<295.336 425.013> 364 44<300.546 369.704> 684 77<131.664 379.615>
LayerCount: 2
Fore
SplineSet
232 367 m 0
 232 433 266 487 317 487 c 0
 341 487 371 474 384 459 c 2
 496 351 l 1
 603 477 l 1
 671 471 761 442 761 295 c 2
 761 219 l 2
 761 68 634 0 530 0 c 2
 352 0 l 2
 182 0 100 125 100 238 c 2
 100 657 l 1
 176 657 l 1
 176 268 l 2
 176 96 287 66 354 66 c 2
 505 66 l 2
 686 66 674 155 684 245 c 2
 684 277 l 2
 684 363 669 388 619 411 c 1
 502 277 l 1
 403 374 l 1
 403 374 408 354 408 337 c 0
 408 284 368 241 330 241 c 0
 287 241 232 278 232 367 c 0
327 280 m 0
 357 280 364 317 364 354 c 0
 364 400 347 434 321 434 c 0
 292 434 280 391 280 361 c 0
 280 336 296 280 327 280 c 0
EndSplineSet
EndChar

StartChar: uni0E53
Encoding: 3667 3667 290
Width: 868
VWidth: 1467
Flags: W
HStem: 1 36<196.023 238.301> 186 49<210.252 270.43>
VStem: 120 75<204 354.935> 120 64<38.5872 158.359> 273 44<59.2817 175.514> 659 78<1 317.411>
LayerCount: 2
Fore
SplineSet
317 144 m 0xec
 317 28 255 1 213 1 c 0
 139 1 120 66 120 92 c 2xdc
 120 307 l 2
 120 366 182 411 226 440 c 0
 251 454 288 469 368 481 c 1
 430 365 l 1
 458 409 461 438 489 481 c 1
 575 468 604 456 629 442 c 0
 727 387 737 344 737 320 c 2
 737 1 l 1
 659 1 l 1
 659 279 l 2
 659 314 655 384 554 412 c 2
 505 424 l 1
 430 289 l 1
 354 424 l 1
 303 412 l 2
 248 398 195 359 195 279 c 2
 195 204 l 1
 203 215 225 235 252 235 c 0
 278 235 317 215 317 144 c 0xec
240 186 m 0
 229 186 184 153 184 89 c 0
 184 45 202 37 213 37 c 0
 225 37 273 50 273 140 c 0
 273 161 271 186 240 186 c 0
EndSplineSet
EndChar

StartChar: uni0E54
Encoding: 3668 3668 291
Width: 868
VWidth: 1467
Flags: W
HStem: -1 68<349 489 523.948 706> 114 30<499.422 554.248> 274 34<529.285 607.008> 400 65<311.242 569.759>
VStem: 128 70<154.323 303.638> 432 42<144.409 215.521> 609 38<196.946 271.341> 643 74<536.521 634>
LayerCount: 2
Fore
SplineSet
584 308 m 0xfd
 635 308 647 266 647 239 c 0xfe
 647 199 611 114 499 114 c 1
 508 96 549 66 575 66 c 2
 637 66 l 1
 706 67 l 1
 706 -1 l 1
 346 -1 l 2
 258 11 128 70 128 217 c 0
 128 342 222 465 389 465 c 2
 481 465 l 2
 525 465 628 469 643 634 c 1
 717 634 l 1
 708 582 671 400 489 400 c 2
 419 400 l 2
 302 400 198 333 198 231 c 0
 198 126 286 90 349 67 c 1
 489 67 l 1
 450 99 432 127 432 168 c 0
 432 249 509 308 584 308 c 0xfd
609 243 m 0
 609 259 592 274 575 274 c 0
 531 274 474 198 474 167 c 0
 474 148 490 144 501 144 c 0
 554 144 609 213 609 243 c 0
EndSplineSet
EndChar

StartChar: uni0E55
Encoding: 3669 3669 292
Width: 868
VWidth: 1467
Flags: W
HStem: 3 66<361 497 569.303 716> 119 36<509.426 514.523 511.974 573.211> 279 35<541.173 617.969> 413 57<399.958 498.308> 555 35<358.354 496.536>
VStem: 137 63<157.678 311.4> 301 47<485.089 541.898> 456 39<136.127 233.54> 508 36<488.554 540.388> 619 35<202.695 277.4> 669 72<550.386 638>
LayerCount: 2
Fore
SplineSet
654 254 m 0
 654 184 577 118 520 118 c 0
 517 118 513 119 509 119 c 1
 518 96 524 104 550 82 c 256
 566 70 578 69 626 69 c 2
 649 69 l 1
 716 70 l 1
 716 3 l 1
 358 3 l 1
 156 36 137 185 137 237 c 0
 137 327 197 436 343 461 c 1
 321 480 301 493 301 512 c 0
 301 554 363 590 428 590 c 0
 490 590 544 560 544 514 c 0
 544 498 538 484 527 471 c 1
 570 476 656 495 669 638 c 1
 741 638 l 1
 702 428 555 413 498 413 c 2
 429 413 l 2
 310 413 200 342 200 235 c 0
 200 103 344 71 361 65 c 1
 497 65 l 1
 465 91 456 114 456 159 c 0
 456 270 547 314 597 314 c 0
 639 314 654 280 654 254 c 0
589 279 m 0
 550 279 495 222 495 187 c 0
 495 168 516 155 531 155 c 0
 563 155 619 214 619 250 c 0
 619 266 606 279 589 279 c 0
508 512 m 0
 505 543 459 555 428 555 c 0
 393 555 348 541 348 514 c 0
 350 482 402 470 428 470 c 0
 472 470 508 487 508 512 c 0
EndSplineSet
EndChar

StartChar: uni0E56
Encoding: 3670 3670 293
Width: 868
VWidth: 1467
Flags: W
HStem: -7 57<367.632 542.594> 238 28<334.17 409.698> 414 61<274.034 538.437>
VStem: 129 71<562.89 644> 241 32<110.36 178.93> 410 28<159.571 237.466> 647 67<151.758 312.097>
LayerCount: 2
Fore
SplineSet
454 50 m 0
 571 50 647 144 647 234 c 0
 647 335 556 414 437 414 c 2
 364 414 l 2
 225 414 129 498 129 644 c 1
 200 644 l 1
 220 487 298 475 373 475 c 2
 442 475 l 2
 619 475 714 345 714 230 c 0
 714 108 616 -7 463 -7 c 0
 386 -7 310 26 257 89 c 0
 246 100 241 114 241 131 c 0
 241 194 311 266 379 266 c 0
 417 266 438 236 438 207 c 0
 438 157 395 101 349 84 c 1
 376 64 408 50 454 50 c 0
384 238 m 0
 349 238 273 178 273 132 c 0
 273 117 282 107 302 107 c 0
 365 107 410 182 410 214 c 0
 410 227 399 238 384 238 c 0
EndSplineSet
EndChar

StartChar: uni0E57
Encoding: 3671 3671 294
Width: 868
VWidth: 1467
Flags: W
HStem: -2 25<118.737 173.691> 198 24<144.429 197.763>
VStem: 56 58<38.9325 163.125> 56 69<200 323.73> 204 36<58.5692 183.32> 566 71<112.717 337.858> 741 69<136.18 637>
LayerCount: 2
Fore
SplineSet
358 362 m 1xde
 386 406 391 434 418 478 c 1
 536 461 583 432 616 382 c 0
 630 359 637 333 637 304 c 2
 637 141 l 2
 637 122 636 94 591 47 c 1
 649 59 672 70 698 106 c 0
 717 126 741 159 741 257 c 2
 741 637 l 1
 810 637 l 1
 810 229 l 2
 810 110 737 18 606 6 c 0
 584 3 550 1 494 1 c 1
 500 32 l 1
 529 50 566 53 566 163 c 2
 566 291 l 2
 566 381 552 401 433 425 c 1
 358 286 l 1
 282 425 l 1
 236 415 182 404 140 354 c 0
 129 340 123 319 123 291 c 2
 125 200 l 1xde
 140 215 156 222 173 222 c 0
 226 222 240 166 240 134 c 0
 240 81 204 -2 141 -2 c 0
 103 -2 56 50 56 96 c 2xee
 56 305 l 2
 56 334 67 360 88 382 c 0
 140 435 190 462 298 478 c 1
 358 362 l 1xde
175 198 m 0
 152 198 114 145 114 78 c 0xee
 114 56 119 23 140 23 c 0
 168 23 204 76 204 142 c 0
 204 163 198 198 175 198 c 0
EndSplineSet
EndChar

StartChar: uni0E58
Encoding: 3672 3672 295
Width: 868
VWidth: 1467
Flags: W
HStem: -1 21G<287 335.5 494.767 569> 118 34<598.451 650.383> 283 43<543.148 622.11> 406 64<308.762 595.321>
VStem: 128 67<141.115 299.347> 510 32<208.462 281.525> 659 67<533.613 634> 678 46<154.772 226.77>
LayerCount: 2
Fore
SplineSet
471 470 m 2xfd
 578 470 659 485 659 634 c 1
 726 634 l 1xfe
 726 489 637 406 499 406 c 2
 406 406 l 2
 297 406 195 335 195 211 c 0
 195 147 247 83 313 70 c 1
 423 208 l 1
 516 63 l 1
 567 75 597 63 638 120 c 1
 633 119 628 118 624 118 c 0
 600 118 510 166 510 254 c 0
 510 309 552 326 578 326 c 0
 643 326 724 256 724 175 c 0
 724 70 630 14 508 -1 c 1
 420 132 l 1
 331 -2 342 22 329 -1 c 1
 245 8 128 79 128 211 c 0
 128 355 231 470 402 470 c 2
 471 470 l 2xfd
572 283 m 0
 556 283 542 271 542 256 c 0
 542 222 604 152 645 152 c 0
 663 152 678 164 678 182 c 0xfd
 678 213 620 283 572 283 c 0
EndSplineSet
EndChar

StartChar: uni0E59
Encoding: 3673 3673 296
Width: 868
VWidth: 1467
Flags: W
HStem: -7 42<210.226 305.234> 187 40<266.332 316.822>
VStem: 35 62<124.087 300.223> 196 44<49.5128 158.666> 334 44<64.8615 184.531> 773 57<602.485 651>
LayerCount: 2
Fore
SplineSet
277 427 m 1
 156 404 97 295 97 211 c 0
 97 166 116 78 214 35 c 1
 200 53 196 69 196 92 c 0
 196 165 249 227 296 227 c 0
 310 227 378 221 378 138 c 0
 378 64 334 -7 254 -7 c 0
 183 -7 35 57 35 218 c 0
 35 338 129 482 318 485 c 1
 425 312 l 1
 466 378 482 413 525 478 c 1
 590 478 l 2
 620 478 749 478 766 581 c 0
 771 607 773 631 773 654 c 1
 830 651 l 1
 830 529 797 432 610 421 c 2
 563 418 l 1
 468 249 l 1
 587 44 l 1
 549 -2 l 1
 277 427 l 1
300 187 m 0
 273 187 240 141 240 86 c 0
 240 44 258 35 271 35 c 0
 303 35 334 89 334 135 c 0
 334 179 314 187 300 187 c 0
EndSplineSet
EndChar

StartChar: uni0E5A
Encoding: 3674 3674 297
Width: 751
VWidth: 1467
Flags: W
HStem: 0 21G<354 433 568 647> 374 53<154.06 241.123> 387 47<433 509.543> 547 35<120.987 177.99>
VStem: 70 46<466.616 546.557> 213 32<432.714 506.693> 354 79<0 387 434 459> 568 79<0 453>
LayerCount: 2
Fore
SplineSet
433 434 m 1xbf
 526 462 552 514 568 549 c 1
 647 549 l 1
 647 0 l 1
 568 0 l 1
 568 453 l 1
 568 453 534 404 433 387 c 1xbf
 433 0 l 1
 354 0 l 1
 354 459 l 1
 309 403 260 374 197 374 c 0xdf
 150 374 70 434 70 511 c 0
 70 568 104 582 139 582 c 0
 181 582 245 540 245 470 c 0
 245 454 243 440 239 428 c 1
 294 444 335 513 354 547 c 1
 433 547 l 1
 433 434 l 1xbf
193 427 m 0xdf
 201 427 213 431 213 450 c 0
 213 483 175 547 139 547 c 0
 130 547 116 543 116 524 c 0
 116 481 162 427 193 427 c 0xdf
EndSplineSet
EndChar

StartChar: uni0E5B
Encoding: 3675 3675 298
Width: 1181
VWidth: 1467
Flags: W
HStem: 1 68<275.533 453.977> 185 42<339.344 398.663> 347 36<935.183 1075.47> 393 36<360.52 404.522 402.954 406.089> 514 55<245.271 373.221>
VStem: 85 81<202.013 421.696> 285 49<229.112 363.985> 426 51<256.72 420.428> 559 57<193.757 363.679> 869 43<302.387 375.951>
LayerCount: 2
Fore
SplineSet
869 456 m 1
 883 445 933 383 1020 383 c 0
 1059 383 1095 396 1124 425 c 1
 1110 397 1075 347 1001 347 c 0
 971 347 939 360 911 376 c 1
 912 375 912 371 912 364 c 0
 912 270 889 244 872 224 c 1
 845 222 l 1
 795 275 796 286 776 326 c 1
 774 256 754 225 710 191 c 1
 666 191 l 1
 667 202 667 212 667 222 c 0
 667 250 666 304 606 383 c 1
 613 351 616 320 616 289 c 0
 616 103 497 1 352 1 c 0
 210 1 85 135 85 314 c 0
 85 458 171 569 329 569 c 0
 418 569 477 466 477 345 c 0
 477 236 411 185 367 185 c 0
 324 185 285 225 285 287 c 0
 285 345 318 429 393 429 c 0
 408 429 410 427 414 427 c 1
 400 477 365 514 312 514 c 0
 225 514 166 425 166 318 c 0
 166 229 206 69 364 69 c 0
 504 69 559 186 559 328 c 0
 559 386 551 430 531 462 c 1
 597 462 l 1
 653 420 701 380 709 267 c 1
 745 322 754 370 754 432 c 0
 754 441 753 451 753 461 c 1
 794 374 l 2
 819 320 832 302 854 283 c 1
 866 291 869 314 869 335 c 2
 869 456 l 1
392 393 m 0
 375 393 334 359 334 283 c 0
 334 237 352 227 364 227 c 0
 391 227 426 270 426 340 c 0
 426 384 406 393 392 393 c 0
EndSplineSet
EndChar

StartChar: zerowidthnonjoiner
Encoding: 8204 8204 299
Width: 0
VWidth: 1467
Flags: W
LayerCount: 2
Back
SplineSet
40 -452 m 1
 -40 -452 l 1
 -40 352 l 1
 40 352 l 1
 40 -452 l 1
EndSplineSet
EndChar

StartChar: zerowidthjoiner
Encoding: 8205 8205 300
Width: 0
VWidth: 1467
Flags: W
LayerCount: 2
Back
SplineSet
40 -452 m 1
 -40 -452 l 1
 -40 220 l 1
 -66 189 l 1
 -99 222 l 1
 -46 274 l 1
 -93 327 l 1
 -64 361 l 1
 1 296 l 1
 61 359 l 1
 96 327 l 1
 45 270 l 1
 102 220 l 1
 69 189 l 1
 40 220 l 1
 40 -452 l 1
EndSplineSet
EndChar

StartChar: lefttorightmark
Encoding: 8206 8206 301
Width: 0
VWidth: 1467
Flags: W
LayerCount: 2
Back
SplineSet
40 -452 m 1
 -40 -452 l 1
 -40 299 l 1
 184 299 l 1
 159 326 l 1
 183 351 l 1
 261 273 l 1
 183 195 l 1
 159 222 l 1
 184 246 l 1
 40 246 l 1
 40 -452 l 1
EndSplineSet
EndChar

StartChar: righttoleftmark
Encoding: 8207 8207 302
Width: 0
VWidth: 1467
Flags: W
LayerCount: 2
Back
SplineSet
40 -452 m 1
 -40 -452 l 1
 -40 246 l 1
 -180 246 l 1
 -155 222 l 1
 -178 195 l 1
 -256 273 l 1
 -178 351 l 1
 -155 326 l 1
 -180 299 l 1
 40 299 l 1
 40 -452 l 1
EndSplineSet
EndChar

StartChar: endash
Encoding: 8211 8211 303
Width: 569
VWidth: 1467
Flags: W
HStem: 227 78<51 516 51 516 51 51>
LayerCount: 2
Fore
SplineSet
51 227 m 1
 51 305 l 1
 516 305 l 1
 516 227 l 1
 51 227 l 1
EndSplineSet
EndChar

StartChar: emdash
Encoding: 8212 8212 304
Width: 1091
VWidth: 1467
Flags: W
HStem: 227 78<50 1037>
LayerCount: 2
Fore
SplineSet
50 227 m 1
 50 305 l 1
 1037 305 l 1
 1037 227 l 1
 50 227 l 1
EndSplineSet
EndChar

StartChar: quoteleft
Encoding: 8216 8216 305
Width: 362
VWidth: 1467
Flags: W
HStem: 487 213<204 206 157 204 204 204>
VStem: 100 148<546 700 499 546> 100 130<528.847 589.736>
LayerCount: 2
Fore
SplineSet
157 487 m 0xa0
 108 487 100 530 100 546 c 0
 100 638 180 688 204 700 c 1
 248 700 l 1xc0
 208 677 163 640 154 591 c 1
 164 599 175 603 186 603 c 0
 208 603 230 594 230 559 c 0
 230 531 206 487 157 487 c 0xa0
EndSplineSet
EndChar

StartChar: quoteright
Encoding: 8217 8217 306
Width: 355
VWidth: 1467
Flags: W
HStem: 493 213<133 141 141 188 188 188>
VStem: 97 148<493 647 446 493> 115 130<603.338 664.153>
LayerCount: 2
Fore
SplineSet
188 706 m 0xa0
 237 706 245 663 245 647 c 0
 245 555 166 506 141 493 c 1
 97 493 l 1xc0
 137 516 182 553 191 602 c 1
 181 594 170 590 158 590 c 0
 139 590 115 599 115 633 c 0
 115 655 133 706 188 706 c 0xa0
EndSplineSet
EndChar

StartChar: quotesinglbase
Encoding: 8218 8218 307
Width: 218
VWidth: 1467
Flags: W
HStem: -109 214<66 67 67 114 114 114> -20 20<68.5 92 114.5 118>
VStem: 25 147<-109 45 -156 -109> 42 130<1.19097 82.9902>
LayerCount: 2
Fore
SplineSet
114 105 m 0x90
 153 105 172 75 172 45 c 0
 172 -47 90 -98 67 -109 c 1
 25 -109 l 1xa0
 103 -60 116 -19 120 0 c 1x60
 109 -8 98 -12 86 -12 c 0
 51 -12 42 8 42 31 c 0
 42 61 66 105 114 105 c 0x90
EndSplineSet
EndChar

StartChar: quotedblleft
Encoding: 8220 8220 308
Width: 535
VWidth: 1467
Flags: W
HStem: 487 116<168.619 208.303 366.619 405.794> 680 20G<192 248 390 446>
VStem: 100 130<528.847 589.736> 298 130<528.847 589.736>
LayerCount: 2
Fore
SplineSet
157 487 m 0
 108 487 100 530 100 546 c 0
 100 638 180 688 204 700 c 1
 248 700 l 1
 208 677 163 640 154 591 c 1
 164 599 175 603 186 603 c 0
 208 603 230 594 230 559 c 0
 230 531 206 487 157 487 c 0
355 487 m 0
 306 487 298 530 298 546 c 0
 298 638 378 688 402 700 c 1
 446 700 l 1
 406 677 361 640 352 591 c 1
 362 599 373 603 384 603 c 0
 406 603 428 594 428 559 c 0
 428 530 403 487 355 487 c 0
EndSplineSet
EndChar

StartChar: quotedblright
Encoding: 8221 8221 309
Width: 545
VWidth: 1467
Flags: W
HStem: 588 117<141.346 180.278 339.346 379.128>
VStem: 119 130<602.191 682.176> 317 130<602.191 682.176>
LayerCount: 2
Fore
SplineSet
389 705 m 0
 435 705 447 665 447 646 c 0
 447 554 369 503 343 492 c 1
 299 492 l 1
 337 513 384 550 393 600 c 1
 384 592 373 588 361 588 c 0
 335 588 317 600 317 633 c 0
 317 661 343 705 389 705 c 0
191 705 m 0
 237 705 249 665 249 646 c 0
 249 554 171 503 145 492 c 1
 101 492 l 1
 139 513 186 550 195 600 c 1
 185 592 174 588 162 588 c 0
 128 588 119 610 119 633 c 0
 119 661 145 705 191 705 c 0
EndSplineSet
EndChar

StartChar: quotedblbase
Encoding: 8222 8222 310
Width: 465
VWidth: 1467
Flags: W
HStem: -12 117<87.7529 128.428 288.753 329.325>
VStem: 65 130<1.11758 82.5> 266 130<1.11758 82.5>
LayerCount: 2
Fore
SplineSet
137 105 m 0
 183 105 195 65 195 45 c 0
 195 -47 112 -99 91 -109 c 1
 47 -109 l 1
 86 -86 132 -50 144 0 c 1
 133 -8 122 -12 110 -12 c 0
 74 -12 65 9 65 33 c 0
 65 63 92 105 137 105 c 0
338 105 m 0
 384 105 396 65 396 45 c 0
 396 -47 313 -99 292 -109 c 1
 248 -109 l 1
 287 -86 333 -50 345 0 c 1
 334 -8 323 -12 310 -12 c 0
 275 -12 266 9 266 33 c 0
 266 63 293 105 338 105 c 0
EndSplineSet
EndChar

StartChar: dagger
Encoding: 8224 8224 311
Width: 498
VWidth: 1467
Flags: W
HStem: 425 65<57 207 286 439 57 439 57 57>
VStem: 207 79<-51 425 490 716>
LayerCount: 2
Fore
SplineSet
439 490 m 1
 439 425 l 1
 286 425 l 1
 286 -51 l 1
 207 -51 l 1
 207 425 l 1
 57 425 l 1
 57 490 l 1
 207 490 l 1
 207 716 l 1
 286 716 l 1
 286 490 l 1
 439 490 l 1
EndSplineSet
EndChar

StartChar: daggerdbl
Encoding: 8225 8225 312
Width: 498
VWidth: 1467
Flags: W
HStem: 277 65<59 208 288 440> 424 65<59 208 288 440>
VStem: 59 381<277 342 424 489 277 424 277 277> 208 80<-53 277 342 424 489 715>
LayerCount: 2
Fore
SplineSet
440 424 m 1xe0
 288 424 l 1
 288 342 l 1xd0
 440 342 l 1
 440 277 l 1xe0
 288 277 l 1
 288 -53 l 1
 208 -53 l 1
 208 277 l 1xd0
 59 277 l 1
 59 342 l 1xe0
 208 342 l 1
 208 424 l 1xd0
 59 424 l 1
 59 489 l 1xe0
 208 489 l 1
 208 715 l 1
 288 715 l 1
 288 489 l 1xd0
 440 489 l 1
 440 424 l 1xe0
EndSplineSet
EndChar

StartChar: bullet
Encoding: 8226 8226 313
Width: 512
VWidth: 1467
Flags: W
HStem: 153 383<172.813 328.442>
VStem: 80 341<252.406 435.561>
LayerCount: 2
Fore
SplineSet
252 536 m 0
 353 536 421 447 421 343 c 0
 421 238 345 153 251 153 c 0
 162 153 80 224 80 336 c 0
 80 456 155 536 252 536 c 0
EndSplineSet
EndChar

StartChar: ellipsis
Encoding: 8230 8230 314
Width: 1056
VWidth: 1467
Flags: W
HStem: -16 133<133.369 212.875 480.916 560.375 828.916 907.875>
VStem: 120 106<-3.04959 104.344> 468 106<-4.2555 105.256> 816 105<-4.29297 73.6409>
LayerCount: 2
Fore
SplineSet
175 117 m 0
 208 117 226 89 226 51 c 0
 226 15 206 -16 175 -16 c 0
 142 -16 120 13 120 50 c 0
 120 87 141 117 175 117 c 0
522 117 m 0
 555 117 574 89 574 51 c 0
 574 15 553 -16 522 -16 c 0
 489 -16 468 12 468 50 c 0
 468 87 488 117 522 117 c 0
870 117 m 0
 903 117 921 89 921 51 c 0
 921 15 901 -16 870 -16 c 0
 837 -16 816 11 816 48 c 0
 816 73 826 117 870 117 c 0
EndSplineSet
EndChar

StartChar: perthousand
Encoding: 8240 8240 315
Width: 1478
VWidth: 1467
Flags: W
HStem: 15 61<716.3 819.767 1171.93 1275.49> 295 62<173.211 278.277> 361 64<713.382 818.19 1167.38 1272.97> 641 63<176.31 274.667>
VStem: 50 80<405.532 589.803> 319 83<403.531 588.083> 582 86<128.414 307.019> 864 87<124.186 307.753> 1037 86<127.75 305.698> 1319 87<124.038 308.59>
LayerCount: 2
Fore
SplineSet
747 707 m 1
 321 -4 l 1
 229 -4 l 1
 654 707 l 1
 747 707 l 1
227 704 m 0
 323 704 402 609 402 502 c 0
 402 399 340 295 222 295 c 0
 132 295 50 384 50 502 c 256
 50 611 126 704 227 704 c 0
228 357 m 0
 282 357 319 416 319 492 c 0
 319 572 282 641 227 641 c 0
 188 641 130 606 130 488 c 0
 130 399 184 357 228 357 c 0
762 425 m 0
 875 425 951 332 951 228 c 0
 951 126 892 15 772 15 c 0
 658 15 582 111 582 222 c 256
 582 318 654 425 762 425 c 0
771 76 m 0
 821 76 864 133 864 212 c 0
 864 285 833 361 763 361 c 0
 708 361 668 295 668 210 c 0
 668 113 734 76 771 76 c 0
1217 425 m 0
 1330 425 1406 333 1406 228 c 0
 1406 126 1347 15 1227 15 c 0
 1113 15 1037 111 1037 222 c 256
 1037 312 1103 425 1217 425 c 0
1226 76 m 0
 1275 76 1319 131 1319 215 c 0
 1319 287 1287 361 1218 361 c 0
 1163 361 1123 295 1123 210 c 0
 1123 110 1192 76 1226 76 c 0
EndSplineSet
EndChar

StartChar: minute
Encoding: 8242 8242 316
Width: 325
VWidth: 1467
Flags: W
HStem: 514 206<144 166 100 239 144 144>
LayerCount: 2
Fore
SplineSet
166 514 m 1
 100 514 l 1
 144 720 l 1
 239 720 l 1
 166 514 l 1
EndSplineSet
EndChar

StartChar: second
Encoding: 8243 8243 317
Width: 510
VWidth: 1467
Flags: W
HStem: 514 206<144 166 335 357 100 430 144 144>
LayerCount: 2
Fore
SplineSet
166 514 m 1
 100 514 l 1
 144 720 l 1
 239 720 l 1
 166 514 l 1
357 514 m 1
 291 514 l 1
 335 720 l 1
 430 720 l 1
 357 514 l 1
EndSplineSet
EndChar

StartChar: guilsinglleft
Encoding: 8249 8249 318
Width: 378
VWidth: 1467
Flags: W
HStem: 88 364<254 337 254 254>
VStem: 21 316<266 452 266 266>
LayerCount: 2
Fore
SplineSet
21 266 m 1
 91 298 187 359 254 452 c 1
 337 452 l 1
 262 342 149 276 131 268 c 1
 167 255 293 155 337 88 c 1
 257 88 l 1
 212 140 118 237 21 266 c 1
EndSplineSet
EndChar

StartChar: guilsinglright
Encoding: 8250 8250 319
Width: 387
VWidth: 1467
Flags: W
HStem: 85 364<21 104 21 21>
VStem: 21 316<85 271 85 85>
LayerCount: 2
Fore
SplineSet
337 271 m 1
 267 239 171 178 104 85 c 1
 21 85 l 1
 85 178 196 258 227 268 c 1
 184 284 59 391 21 449 c 1
 101 449 l 1
 129 415 231 302 337 271 c 1
EndSplineSet
EndChar

StartChar: fraction
Encoding: 8260 8260 320
Width: 305
VWidth: 1467
Flags: W
HStem: 0 21G<-41 43.1682>
VStem: -41 348<0 666 1.53064e-18 1.53064e-18>
LayerCount: 2
Fore
SplineSet
35 0 m 1
 -41 0 l 1
 232 666 l 1
 307 666 l 1
 35 0 l 1
EndSplineSet
EndChar

StartChar: Euro
Encoding: 8364 8364 321
Width: 735
VWidth: 1467
Flags: W
HStem: -0 59<332.283 524.352> 219 79<66 175 252 518> 403 78<66 175 252 518> 651 60<333.742 522.638>
VStem: 175 77<129.965 219 298 403 481 580.117>
LayerCount: 2
Fore
SplineSet
252 194 m 2
 252 140 296 59 443 59 c 0
 468 59 587 61 624 145 c 1
 663 103 l 1
 628 33 533 -0 434 -0 c 0
 221 0 175 143 175 219 c 1
 66 219 l 1
 66 298 l 1
 175 298 l 1
 175 403 l 1
 66 403 l 1
 66 481 l 1
 175 481 l 1
 175 514 l 2
 175 588 247 711 434 711 c 0
 529 711 628 678 663 607 c 1
 624 565 l 1
 585 649 465 651 443 651 c 0
 296 651 252 570 252 516 c 2
 252 481 l 1
 518 481 l 1
 518 403 l 1
 252 403 l 1
 252 298 l 1
 518 298 l 1
 518 219 l 1
 252 219 l 1
 252 194 l 2
EndSplineSet
EndChar

StartChar: uni2113
Encoding: 8467 8467 322
Width: 378
VWidth: 1467
Flags: W
HStem: -0 73<178.277 245.6> 621 55<180.198 230.853>
VStem: 100 75<75.0411 104 104 285 401 619.524> 236 68<456.087 620.06>
LayerCount: 2
Fore
SplineSet
304 572 m 0
 304 426 219 357 175 329 c 1
 175 120 l 2
 175 88 186 73 207 73 c 0
 226 73 253 85 289 110 c 1
 289 35 l 1
 249 11 213 -0 183 -0 c 0
 133 -0 100 29 100 104 c 2
 100 285 l 1
 54 252 l 1
 15 302 l 1
 100 361 l 1
 100 549 l 2
 100 648 163 676 202 676 c 0
 237 676 299 660 304 572 c 0
205 621 m 256
 181 621 175 595 175 549 c 2
 175 401 l 1
 217 439 236 482 236 552 c 0
 236 611 226 621 205 621 c 256
EndSplineSet
EndChar

StartChar: trademark
Encoding: 8482 8482 323
Width: 950
VWidth: 1467
Flags: W
HStem: 293 423<122 194 381 451 778 848 194 775 381 381> 643 70<-3 122 194 321>
VStem: 122 72<293 643> 381 70<293 644> 778 70<293 646>
LayerCount: 2
Fore
SplineSet
-3 713 m 1x78
 321 713 l 1
 321 643 l 1
 194 643 l 1x78
 194 293 l 1
 122 293 l 1xb8
 122 643 l 1
 -3 643 l 1
 -3 713 l 1x78
615 569 m 1
 657 635 745 703 775 716 c 1
 848 716 l 1
 848 293 l 1
 778 293 l 1
 778 646 l 1
 738 629 631 520 615 478 c 1
 570 556 496 625 451 644 c 1
 451 293 l 1
 381 293 l 1
 381 716 l 1
 452 716 l 1xb8
 495 695 567 639 615 569 c 1
EndSplineSet
EndChar

StartChar: Ohm
Encoding: 8486 8486 324
Width: 701
VWidth: 1467
Flags: W
HStem: 1 53<63 238 462 635> 603 68<251.476 457.767>
VStem: 67 76<298.011 490.945> 238 54<54 135> 408 54<57 138> 555 76<297.34 500.743>
LayerCount: 2
Fore
SplineSet
355 671 m 0
 525 671 631 553 631 399 c 0
 631 327 605 204 462 138 c 1
 462 57 l 1
 635 57 l 1
 635 1 l 1
 408 1 l 1
 408 192 l 1
 491 231 555 280 555 393 c 0
 555 488 515 603 355 603 c 0
 185 603 143 473 143 391 c 0
 143 283 211 228 292 183 c 1
 292 1 l 1
 63 1 l 1
 63 54 l 1
 238 54 l 1
 238 135 l 1
 112 203 67 288 67 390 c 0
 67 559 188 671 355 671 c 0
EndSplineSet
EndChar

StartChar: estimated
Encoding: 8494 8494 325
Width: 595
VWidth: 1467
Flags: W
HStem: -13 54<217.146 369.204> 238 66<167 411.903> 508 60<219.334 358.443>
VStem: 100 67<93.7344 238 304 454.915> 424 66<317.795 445.177> 424 48<71.9203 122.613>
LayerCount: 2
Fore
SplineSet
472 110 m 1xf4
 447 14 353 -13 291 -13 c 0
 176 -13 100 77 100 150 c 2
 100 396 l 2
 100 466 162 568 290 568 c 0
 434 568 490 454 490 373 c 0xf8
 490 262 428 238 298 238 c 2
 167 238 l 1
 167 170 l 2
 167 85 225 41 288 41 c 0
 349 41 405 75 424 126 c 1
 472 110 l 1xf4
424 379 m 0
 424 447 359 508 291 508 c 0
 250 508 167 485 167 376 c 2
 167 304 l 1
 298 304 l 2
 394 304 424 304 424 379 c 0
EndSplineSet
EndChar

StartChar: partialdiff
Encoding: 8706 8706 326
Width: 642
VWidth: 1467
Flags: W
HStem: -14 77<184.663 335.392> 622 61<231.157 412.29>
VStem: 78 78<91.8717 222.066> 466 74<436.375 486.523 458.441 566.853>
LayerCount: 2
Fore
SplineSet
156 148 m 0
 156 89 202 63 256 63 c 0
 333 63 388 117 439 170 c 1
 461 364 l 1
 410 307 346 298 280 282 c 0
 200 262 156 221 156 148 c 0
341 683 m 0
 501 683 541 568 541 495 c 0
 541 490 540 484 540 478 c 2
 512 145 l 1
 503 110 354 -14 250 -14 c 0
 202 -14 78 16 78 148 c 0
 78 200 91 316 276 354 c 0
 333 366 466 391 466 494 c 0
 466 531 446 622 334 622 c 0
 274 622 207 595 161 563 c 1
 176 634 l 1
 231 670 291 683 341 683 c 0
EndSplineSet
EndChar

StartChar: Delta
Encoding: 8710 8710 327
Width: 613
VWidth: 1467
Flags: W
HStem: 0 62<103 511>
LayerCount: 2
Fore
SplineSet
612 0 m 1
 0 0 l 1
 317 621 l 1
 612 0 l 1
511 62 m 1
 318 493 l 1
 103 62 l 1
 511 62 l 1
EndSplineSet
EndChar

StartChar: product
Encoding: 8719 8719 328
Width: 736
VWidth: 1467
Flags: W
HStem: 594 68<169 572>
VStem: 100 69<-156 594> 572 69<-156 594>
LayerCount: 2
Fore
SplineSet
641 -156 m 1
 572 -156 l 1
 572 594 l 1
 169 594 l 1
 169 -156 l 1
 100 -156 l 1
 100 662 l 1
 641 662 l 1
 641 -156 l 1
EndSplineSet
EndChar

StartChar: summation
Encoding: 8721 8721 329
Width: 868
VWidth: 1467
Flags: W
HStem: -200 75<188 262.815 262.815 814> 604 72<198 814>
LayerCount: 2
Fore
SplineSet
550 263 m 1
 456 269 274 315 101 604 c 1
 101 676 l 1
 814 678 l 1
 814 604 l 1
 198 604 l 1
 267 452 504 291 684 268 c 1
 518 248 192 -37 188 -126 c 1
 234 -125 284 -125 338 -125 c 2
 814 -125 l 1
 814 -200 l 1
 101 -200 l 1
 101 -128 l 1
 157 18 408 229 550 263 c 1
EndSplineSet
EndChar

StartChar: minus
Encoding: 8722 8722 330
Width: 494
VWidth: 1467
Flags: W
HStem: 249 78<44 440>
VStem: 44 396<249 327 249 327 249 249>
LayerCount: 2
Fore
SplineSet
440 249 m 1
 44 249 l 1
 44 327 l 1
 440 327 l 1
 440 249 l 1
EndSplineSet
EndChar

StartChar: radical
Encoding: 8730 8730 331
Width: 604
VWidth: 1467
Flags: W
HStem: 324 57<53 114>
LayerCount: 2
Fore
SplineSet
311 16 m 1
 205 16 l 1
 114 324 l 1
 53 324 l 1
 53 381 l 1
 172 381 l 1
 261 82 l 1
 483 666 l 1
 558 666 l 1
 311 16 l 1
EndSplineSet
EndChar

StartChar: infinity
Encoding: 8734 8734 332
Width: 846
VWidth: 1467
Flags: W
HStem: 58 61<514.499 639.041> 79 59<206.925 326.915> 413 66<203.245 320.558> 432 71<526.673 634.284>
VStem: 100 57<193.103 364.033> 370 93<201.784 357.442> 685 65<168.306 368.445>
LayerCount: 2
Fore
SplineSet
412 365 m 1x6e
 438 495 542 503 572 503 c 0
 683 503 750 407 750 274 c 0
 750 92 639 58 570 58 c 0x9e
 495 58 436 105 414 200 c 1
 405 168 382 79 267 79 c 0
 203 79 100 125 100 280 c 0
 100 443 199 479 264 479 c 0
 328 479 369 452 412 365 c 1x6e
266 138 m 0x6e
 317 138 370 177 370 264 c 0
 370 350 327 413 263 413 c 0
 221 413 157 380 157 281 c 0
 157 209 195 138 266 138 c 0x6e
575 432 m 0x9e
 499 432 463 355 463 278 c 0
 463 219 486 119 576 119 c 0
 617 119 685 144 685 262 c 0
 685 326 663 432 575 432 c 0x9e
EndSplineSet
EndChar

StartChar: integral
Encoding: 8747 8747 333
Width: 403
VWidth: 1467
Flags: W
HStem: -139 54<-34 -25.025 -25.025 -21.2723 -23.1486 57.4134> 609 56<275.467 346.916 345.954 347.878 347.878 361>
VStem: -41 411<-139 663 -126.046 -124.122>
LayerCount: 2
Fore
SplineSet
158 -13 m 2
 141 -133 52 -145 11 -145 c 0
 -5 -145 -23 -143 -41 -139 c 1
 -34 -85 l 1
 -23 -87 -12 -89 -2 -89 c 0
 48 -89 80 -58 92 3 c 2
 178 534 l 2
 192 621 243 665 333 665 c 0
 345 665 357 664 370 663 c 1
 361 606 l 1
 350 608 340 609 331 609 c 0
 296 609 263 600 245 518 c 2
 158 -13 l 2
EndSplineSet
EndChar

StartChar: approxequal
Encoding: 8776 8776 334
Width: 592
VWidth: 1467
Flags: W
HStem: 109 79<330.01 464.002> 170 78<140.619 272.932> 267 79<332.269 458.301> 329 77<136.729 273.508>
VStem: 101 395<329 346 276 396 276 276>
LayerCount: 2
Fore
SplineSet
403 346 m 0x28
 432 350 463 367 496 396 c 1
 496 315 l 1
 465 283 431 267 395 267 c 0x28
 351 267 245 329 198 329 c 0
 167 329 134 311 101 276 c 1
 101 355 l 1
 123 389 155 406 196 406 c 0x18
 289 406 348 346 403 346 c 0x28
210 248 m 0x48
 279 248 348 188 403 188 c 0
 434 188 465 205 496 239 c 1
 496 158 l 1
 468 125 439 109 407 109 c 0x88
 347 109 243 170 198 170 c 0
 168 166 136 149 101 119 c 1
 101 197 l 1
 126 231 163 248 210 248 c 0x48
EndSplineSet
EndChar

StartChar: notequal
Encoding: 8800 8800 335
Width: 519
VWidth: 1467
Flags: W
HStem: -10 21G<153 230.935> 144 54<65 191 277 464> 352 53<65 241 329 464>
VStem: 65 399<144 198 352 405>
LayerCount: 2
Fore
SplineSet
464 144 m 1
 264 144 l 1
 226 -10 l 1
 153 -10 l 1
 191 144 l 1
 65 144 l 1
 65 198 l 1
 202 198 l 1
 241 352 l 1
 65 352 l 1
 65 405 l 1
 255 405 l 1
 291 546 l 1
 364 546 l 1
 329 405 l 1
 464 405 l 1
 464 352 l 1
 315 352 l 1
 277 198 l 1
 464 198 l 1
 464 144 l 1
EndSplineSet
EndChar

StartChar: lessequal
Encoding: 8804 8804 336
Width: 514
VWidth: 1467
Flags: W
HStem: 18 57<45 470> 568 20G<420.5 470>
VStem: 45 425<18 75 18 183 18 18>
LayerCount: 2
Fore
SplineSet
176 348 m 1
 299 318 389 258 470 183 c 1
 470 109 l 1
 342 243 144 325 48 346 c 1
 224 399 371 487 470 588 c 1
 470 515 l 1
 326 395 244 366 176 348 c 1
45 18 m 1
 45 75 l 1
 470 75 l 1
 470 18 l 1
 45 18 l 1
EndSplineSet
EndChar

StartChar: greaterequal
Encoding: 8805 8805 337
Width: 513
VWidth: 1467
Flags: W
HStem: 18 57<45 470 45 470 45 45> 570 20G<45 101.5>
LayerCount: 2
Fore
SplineSet
45 18 m 1
 45 75 l 1
 470 75 l 1
 470 18 l 1
 45 18 l 1
339 351 m 1
 216 380 126 440 45 515 c 1
 45 590 l 1
 158 466 359 377 467 352 c 1
 297 303 143 211 45 110 c 1
 45 183 l 1
 198 311 285 336 339 351 c 1
EndSplineSet
EndChar

StartChar: lozenge
Encoding: 9674 9674 338
Width: 578
VWidth: 1467
Flags: W
HStem: -28 21G<269 304> 692 20G<265 314>
LayerCount: 2
Fore
SplineSet
286 712 m 1
 342 551 469 403 549 342 c 1
 550 342 l 1
 549 342 l 1
 426 253 319 70 289 -28 c 1
 249 83 162 234 25 342 c 1
 23 342 l 1
 25 342 l 1
 118 410 244 575 286 712 c 1
288 612 m 1
 251 493 162 394 103 342 c 1
 243 204 278 96 286 72 c 1
 323 192 412 290 472 342 c 1
 335 477 299 580 288 612 c 1
EndSplineSet
EndChar

StartChar: dottedcircle
Encoding: 9676 9676 339
Width: 787
VWidth: 1467
Flags: W
HStem: 41 67<366.262 415.264> 63 66<253.969 303.328 476.688 526.39> 119 66<161.527 212.252 580.019 619.016> 204 67<99.7048 149.303 642.01 680.252> 304 66<74.5268 126.484 654.516 703.61> 403 67<98.3663 149.125 630.114 680.125> 492 66<162.234 212.125 565.279 603.461> 549 64<253.736 303.718 485.846 525.252> 566 66<365.197 415.125>
VStem: 73 55<304.854 369.243> 96 55<204.803 269.339 403.859 469.059> 159 55<119.856 167.296 492.794 557.092> 252 53<63.5137 112.701 549.514 612.363> 364 53<41.8027 90.2755 566.856 631.197> 475 53<63.7518 112.001 547.778 597.4> 565 56<120.313 164.878 493.362 556.411> 628 54<204.818 253.085 402.91 467.444> 653 53<305.922 354.984>
LayerCount: 2
Fore
SplineSet
101 370 m 0x1c5f
 117 370 128 357 128 336 c 0
 128 319 117 304 101 304 c 256
 84 304 73 320 73 336 c 0
 73 356 84 370 101 370 c 0x1c5f
151 437 m 0x1c3f
 151 418 139 403 123 403 c 256
 109 403 96 416 96 434 c 0
 96 457 112 470 123 470 c 0
 139 470 151 455 151 437 c 0x1c3f
214 525 m 0
 214 508 203 492 186 492 c 256
 173 492 160 503 160 522 c 0
 160 540 170 558 186 558 c 256x1e1f
 202 558 214 542 214 525 c 0
279 613 m 0x1d1f
 295 613 305 599 305 581 c 0
 305 560 296 549 279 549 c 0
 263 549 252 561 252 579 c 0
 252 597 263 613 279 613 c 0x1d1f
417 600 m 0
 417 582 406 566 389 566 c 256
 374 566 363 578 363 596 c 0
 363 615 374 632 389 632 c 0x1c9f
 405 632 417 618 417 600 c 0
527 580 m 0
 527 563 516 547 499 547 c 256
 489 547 473 552 473 581 c 0
 473 596 480 612 499 612 c 0
 518 612 527 601 527 580 c 0
619 525 m 0
 619 503 603 492 593 492 c 0
 577 492 563 506 563 525 c 0
 563 542 578 558 593 558 c 0x1e1f
 607 558 619 542 619 525 c 0
682 436 m 0x1c1f80
 682 418 670 402 654 402 c 256
 640 402 628 416 628 434 c 0
 628 452 637 468 654 468 c 0
 673 468 682 457 682 436 c 0x1c1f80
653 336 m 0x1c1f40
 653 354 661 371 678 371 c 256
 694 371 706 357 706 339 c 256
 706 321 694 305 678 305 c 256
 663 305 653 318 653 336 c 0x1c1f40
654 270 m 0
 671 270 682 255 682 236 c 0
 682 218 670 204 654 204 c 256
 643 204 628 213 628 235 c 0x1c1f80
 628 246 633 270 654 270 c 0
565 148 m 0
 565 158 571 185 593 185 c 256
 610 185 621 166 621 153 c 0
 621 134 609 119 593 119 c 256x3c1f
 581 119 565 128 565 148 c 0
502 129 m 0x5c1f
 523 129 528 106 528 95 c 0
 528 76 518 63 502 63 c 0
 484 63 475 74 475 95 c 0
 475 106 480 129 502 129 c 0x5c1f
390 108 m 0x9c1f
 406 108 417 94 417 73 c 0
 417 55 405 41 389 41 c 256
 374 41 364 53 364 71 c 0
 364 83 369 108 390 108 c 0x9c1f
279 129 m 0x5c1f
 300 129 305 106 305 95 c 0
 305 74 296 63 279 63 c 0
 263 63 252 75 252 94 c 0
 252 112 263 129 279 129 c 0x5c1f
159 149 m 0
 159 166 170 185 186 185 c 256
 203 185 214 167 214 153 c 0
 214 135 203 119 186 119 c 256x3c1f
 172 119 159 131 159 149 c 0
125 271 m 0
 136 271 151 260 151 236 c 0
 151 218 139 204 123 204 c 256
 109 204 96 216 96 233 c 0x1c3f
 96 251 110 271 125 271 c 0
EndSplineSet
EndChar

StartChar: uni0E10.alt1
Encoding: 63232 63232 340
Width: 648
VWidth: 1467
Flags: W
HStem: 0 21G<269.5 383.5> 93 49<206.657 260.185> 274 46<192.47 242.699> 496 21G<518.5 537.97> 534 51<157.824 427.121>
VStem: 74 62<465.728 513.085> 140 46<161.486 258.75> 268 59<38 69.0603 69.0603 100.472> 475 69<110.125 312.883>
LayerCount: 2
Fore
SplineSet
140 221 m 0
 140 275 168 320 210 320 c 0
 248 320 300 274 317 188 c 0
 324 156 327 124 327 95 c 2
 327 38 l 1
 468 85 475 138 475 174 c 2
 475 285 l 2
 475 370 74 378 74 487 c 0
 74 526 110 585 288 585 c 0
 373 585 484 573 531 562 c 1
 541 496 l 1
 496 513 364 534 277 534 c 0
 167 534 136 505 136 487 c 0
 136 427 544 408 544 298 c 258
 544 144 l 2
 544 86 437 0 330 0 c 2
 270 0 l 1
 269 9 268 19 268 30 c 0
 268 44 270 66 270 101 c 1
 260 94 257 93 244 93 c 0
 196 93 140 149 140 221 c 0
239 142 m 0
 260 142 265 182 265 189 c 0
 265 225 236 274 215 274 c 0
 194 274 186 241 186 221 c 0
 186 188 211 142 239 142 c 0
EndSplineSet
EndChar

StartChar: uni0E48.alt2
Encoding: 63242 63242 350
Width: 0
VWidth: 1467
Flags: W
VStem: -179 76<694 872 694 872 694 694>
LayerCount: 2
Fore
SplineSet
-103 694 m 1
 -179 694 l 1
 -179 872 l 1
 -103 872 l 1
 -103 694 l 1
EndSplineSet
Substitution2: "Single Substitution lookup 20 subtable" uni0E48.alt3
Substitution2: "Single Substitution lookup 21 subtable" uni0E48
Substitution2: "Single Substitution lookup 22 subtable" uni0E48.alt1
Substitution2: "Single Substitution lookup 20 subtable" uni0E48.alt3
Substitution2: "Single Substitution lookup 21 subtable" uni0E48
Substitution2: "Single Substitution lookup 22 subtable" uni0E48.alt1
EndChar

StartChar: uni0E49.alt2
Encoding: 63243 63243 351
Width: 0
VWidth: 1467
Flags: W
HStem: 669 242<-341 -283 -316 -308 -308 -308> 669 47<-402 -358> 669 189<-402 -44 -52 -44> 746 31<-344.998 -315.144> 878 33<-338.198 -299.218>
VStem: -386 35<777.115 869.304> -292 49<782.434 877.882>
LayerCount: 2
Fore
SplineSet
-298 710 m 1x86
 -169 728 -154 761 -104 858 c 1
 -44 858 l 1x26
 -91 743 -156 669 -316 669 c 2x86
 -402 669 l 1
 -402 716 l 1
 -358 716 l 1
 -335 726 -317 733 -305 754 c 1
 -310 750 -322 746 -333 746 c 0x56
 -373 746 -386 782 -386 809 c 0
 -386 867 -341 911 -308 911 c 0
 -283 911 -243 891 -243 836 c 0
 -243 798 -260 739 -298 710 c 1x86
-328 777 m 0x1e
 -317 777 -292 788 -292 841 c 0
 -292 874 -309 878 -314 878 c 0
 -333 878 -351 839 -351 810 c 0
 -351 781 -337 777 -328 777 c 0x1e
EndSplineSet
Substitution2: "Single Substitution lookup 20 subtable" uni0E49.alt3
Substitution2: "Single Substitution lookup 21 subtable" uni0E49
Substitution2: "Single Substitution lookup 22 subtable" uni0E49.alt1
Substitution2: "Single Substitution lookup 20 subtable" uni0E49.alt3
Substitution2: "Single Substitution lookup 21 subtable" uni0E49
Substitution2: "Single Substitution lookup 22 subtable" uni0E49.alt1
EndChar

StartChar: uni0E4A.alt2
Encoding: 63244 63244 352
Width: 0
VWidth: 1467
Flags: W
HStem: 664 260<-368 -104 -104 -104> 664 30<-412.207 -341.179> 756 31<-416.93 -357.922>
VStem: -466 41<708.699 787.487> -341 25<697.609 738.007> -219 42<736.246 833.85> -104 48<804.212 924>
LayerCount: 2
Fore
SplineSet
-275 886 m 2x9e
 -210 886 -177 818 -177 764 c 0
 -177 751 -179 738 -183 725 c 1
 -127 781 -109 888 -104 924 c 1
 -56 924 l 1x9e
 -68 766 -150 679 -227 672 c 1
 -228 682 -235 687 -239 695 c 1
 -227 714 -219 741 -219 772 c 0
 -219 829 -261 851 -261 851 c 1
 -295 820 -290 815 -314 795 c 1
 -371 850 l 1
 -388 841 -408 827 -418 783 c 1
 -416 784 -400 787 -395 787 c 0x3e
 -368 787 -316 745 -316 704 c 0
 -316 680 -340 664 -368 664 c 0
 -389 664 -466 684 -466 762 c 0
 -466 814 -428 886 -370 886 c 1
 -313 836 l 1
 -282 886 l 1
 -275 886 l 2x9e
-341 711 m 0
 -341 728 -383 756 -406 756 c 0
 -415 756 -425 750 -425 739 c 0
 -425 724 -398 694 -363 694 c 0x7e
 -345 694 -341 704 -341 711 c 0
EndSplineSet
Substitution2: "Single Substitution lookup 20 subtable" uni0E4A.alt3
Substitution2: "Single Substitution lookup 21 subtable" uni0E4A
Substitution2: "Single Substitution lookup 22 subtable" uni0E4A.alt1
Substitution2: "Single Substitution lookup 20 subtable" uni0E4A.alt3
Substitution2: "Single Substitution lookup 21 subtable" uni0E4A
Substitution2: "Single Substitution lookup 22 subtable" uni0E4A.alt1
EndChar

StartChar: uni0E4B.alt2
Encoding: 63245 63245 353
Width: 0
VWidth: 1467
Flags: W
HStem: 697 63<-260 -169 -106 -19>
VStem: -260 241<697 760> -169 63<619 697 760 851 619 851 619 619>
LayerCount: 2
Fore
SplineSet
-19 697 m 1xc0
 -106 697 l 1
 -106 619 l 1
 -169 619 l 1
 -169 697 l 1xa0
 -260 697 l 1
 -260 760 l 1xc0
 -169 760 l 1
 -169 851 l 1
 -106 851 l 1
 -106 760 l 1xa0
 -19 760 l 1
 -19 697 l 1xc0
EndSplineSet
Substitution2: "Single Substitution lookup 20 subtable" uni0E4B.alt3
Substitution2: "Single Substitution lookup 21 subtable" uni0E4B
Substitution2: "Single Substitution lookup 22 subtable" uni0E4B.alt1
Substitution2: "Single Substitution lookup 20 subtable" uni0E4B.alt3
Substitution2: "Single Substitution lookup 21 subtable" uni0E4B
Substitution2: "Single Substitution lookup 22 subtable" uni0E4B.alt1
EndChar

StartChar: uni0E4C.alt2
Encoding: 63246 63246 354
Width: 0
VWidth: 1467
Flags: W
HStem: 648 46<-205.714 -158.783>
VStem: -254 44<706.532 805.315> -149 40<717.732 793.052> -53 53<930.572 993>
LayerCount: 2
Fore
SplineSet
-181 648 m 0
 -201 648 -254 660 -254 748 c 0
 -254 790 -230 823 -203 844 c 2
 -178 864 l 1
 -48 930 -56 947 -53 995 c 1
 0 993 l 1
 0 964 -15 883 -141 847 c 1
 -114 819 -109 797 -109 770 c 0
 -109 677 -152 648 -181 648 c 0
-183 694 m 0
 -156 694 -149 745 -149 764 c 0
 -149 780 -154 810 -175 810 c 0
 -196 810 -210 779 -210 745 c 0
 -210 727 -206 694 -183 694 c 0
EndSplineSet
Substitution2: "Single Substitution lookup 20 subtable" uni0E4C.alt3
Substitution2: "Single Substitution lookup 21 subtable" uni0E4C
Substitution2: "Single Substitution lookup 22 subtable" uni0E4C.alt1
Substitution2: "Single Substitution lookup 20 subtable" uni0E4C.alt3
Substitution2: "Single Substitution lookup 21 subtable" uni0E4C
Substitution2: "Single Substitution lookup 22 subtable" uni0E4C.alt1
EndChar

StartChar: uni0E0D.alt1
Encoding: 63247 63247 355
Width: 955
VWidth: 1467
Flags: W
HStem: -6 51<155.817 204.643 565 704.884> 198 51<183.874 226.762> 526 55<186 210.514 210.514 221.807 221.807 412.442>
VStem: 101 47<52.8438 172.394> 101 78<242 354.25> 235 45<76.1014 194.314> 490 75<45 452.545> 773 78<113.99 227 227 581>
LayerCount: 2
Fore
SplineSet
851 235 m 2xef
 851 6 704 -6 565 -6 c 2
 490 -6 l 1
 489 326 l 2
 489 460 454 515 326 526 c 2
 256 526 l 2
 242 525 235 525 186 525 c 1
 189 519 245 465 245 461 c 2
 245 415 l 1
 245 415 179 388 179 279 c 2
 179 242 l 1xef
 183 245 200 249 207 249 c 0
 229 249 280 235 280 151 c 0
 280 90 247 -2 171 -2 c 0
 129 -2 105 42 101 84 c 2xf7
 101 243 l 2
 101 313 125 402 194 446 c 1
 97 538 l 1
 97 580 l 1
 222 581 208 581 236 581 c 0
 379 581 476 579 536 474 c 0
 555 439 565 388 565 323 c 2
 565 45 l 1
 583 45 l 2
 685 45 773 58 773 227 c 2
 773 581 l 1
 851 581 l 1
 851 235 l 2xef
203 198 m 0
 185 198 148 155 148 110 c 0xf7
 148 70 160 51 176 51 c 0
 204 51 235 98 235 138 c 0
 235 169 221 198 203 198 c 0
EndSplineSet
EndChar

StartChar: uni0E0E.alt1
Encoding: 63259 63259 367
Width: 676
VWidth: 1467
Flags: W
HStem: -285 34<205.3 320.01> -189 43<187.077 288.39> -7 53<124.253 179.197> 195 52<105.932 152.953> 521 57<194.666 249.792 249.792 410.125>
VStem: 51 47<73.3786 191.019> 138 48<-243.624 -192.692> 164 66<235 475> 185 46<48.2645 134.903 101.977 167.828> 499 73<-301 -299 -232 47 47 383.797>
LayerCount: 2
Fore
SplineSet
51 149 m 0xfcc0
 51 197 75 247 126 247 c 0
 139 247 152 243 164 235 c 1
 164 475 l 1xfd40
 98 536 l 1
 97 536 l 1
 97 577 l 1
 202 578 l 2
 363 578 473 577 539 473 c 0
 561 438 572 388 572 323 c 2
 572 -301 l 1
 499 -301 l 1
 499 -299 l 1
 497 -299 l 1
 485 -278 460 -255 390 -224 c 1
 364 -266 322 -285 251 -285 c 0
 189 -285 138 -256 138 -219 c 256xfe40
 138 -191 171 -146 260 -146 c 0
 280 -146 303 -148 362 -166 c 1
 374 -137 369 -122 373 -103 c 1
 431 -103 l 1
 431 -123 420 -169 411 -182 c 1
 444 -195 474 -212 499 -232 c 1
 494 326 l 2
 494 383 486 425 468 452 c 0
 441 490 395 524 305 524 c 0
 293 524 260 522 192 521 c 1
 194 518 230 482 230 477 c 2
 230 109 l 2xfd40
 230 104 231 99 231 95 c 0
 231 44 209 -7 157 -7 c 0
 101 -7 51 75 51 149 c 0xfcc0
156 46 m 0
 167 46 185 59 185 106 c 0xfcc0
 185 148 149 195 131 195 c 0
 112 195 98 166 98 135 c 0
 98 89 137 46 156 46 c 0
242 -189 m 0
 196 -189 186 -201 186 -219 c 256xfe40
 186 -245 228 -251 251 -251 c 256
 288 -251 330 -226 343 -213 c 1
 309 -193 262 -189 242 -189 c 0
EndSplineSet
EndChar

StartChar: uni0E0F.alt1
Encoding: 63260 63260 368
Width: 669
VWidth: 1467
Flags: W
HStem: -280 34<99.6598 190.902> -224 21G<471.474 489.892> -180 30<102.655 198.573> -2 52<117.003 167.184> 199 52<98.687 148.056> 527 57<185 243.338 243.338 403.879>
VStem: 45 46<77.1978 179.792> 54 43<-232.347 -196.161> 157 67<239 481> 181 44<53.9417 139.401 105.977 172.826> 492 73<-296 -295 -224 387.85>
LayerCount: 2
Fore
SplineSet
45 150 m 0xfe60
 45 188 60 251 119 251 c 0
 132 251 145 247 157 239 c 1
 158 481 l 1
 91 541 l 1
 91 582 l 1xfea0
 198 584 l 2
 360 584 466 583 532 478 c 0
 554 443 565 392 565 327 c 2
 565 -296 l 1
 492 -296 l 1
 492 -295 l 1
 490 -295 l 1
 402 -198 l 1
 324 -295 l 1
 312 -276 264 -232 264 -232 c 1
 235 -264 198 -280 154 -280 c 0
 93 -280 54 -247 54 -216 c 0
 54 -168 115 -150 152 -150 c 0
 188 -150 222 -167 241 -179 c 1
 255 -159 269 -130 273 -101 c 1
 326 -101 l 1
 321 -120 316 -141 289 -195 c 1
 306 -212 313 -213 324 -229 c 1
 402 -129 l 1
 490 -224 l 1
 487 330 l 2
 487 387 480 429 461 457 c 0
 428 507 376 530 299 530 c 0
 288 530 254 528 185 527 c 1
 206 506 224 486 224 483 c 2
 224 113 l 2xfda0
 224 108 225 103 225 99 c 0
 225 51 205 -2 154 -2 c 0
 97 -2 45 75 45 150 c 0xfe60
147 50 m 0
 154 50 181 57 181 98 c 0xfe60
 181 133 159 199 125 199 c 0
 101 199 91 163 91 140 c 0
 91 98 125 50 147 50 c 0
97 -216 m 256xfd20
 97 -222 106 -246 151 -246 c 0
 172 -246 213 -232 226 -204 c 1
 203 -185 156 -180 148 -180 c 0
 108 -180 97 -209 97 -216 c 256xfd20
EndSplineSet
EndChar

StartChar: uni0E2C.alt1
Encoding: 63261 63261 369
Width: 849
VWidth: 1467
Flags: W
HStem: 0 21G<179 294.5 552 673> 324 54<130.299 178.222> 423 39<514.607 590.686> 525 55<113.134 165.976> 541 41<500.855 600.664>
VStem: 51 53<405.85 503.98> 179 78<57 326> 192 65<408.127 497.994> 439 54<470.985 531.091> 591 82<59 425>
LayerCount: 2
Fore
SplineSet
671 530 m 1xeec0
 700 556 715 572 734 606 c 1
 808 606 l 1
 772 536 721 487 671 456 c 1
 673 0 l 1
 597 0 l 1
 507 35 441 176 421 222 c 1
 396 146 334 42 255 0 c 1
 179 0 l 1
 179 326 l 1xeec0
 174 325 170 324 165 324 c 0
 121 324 51 381 51 470 c 0
 51 511 72 580 139 580 c 0
 203 580 257 502 257 434 c 2xf5c0
 257 57 l 1
 349 151 396 289 417 362 c 1
 480 202 558 80 591 59 c 1
 591 425 l 1
 578 423 562 423 559 423 c 0
 494 423 439 455 439 502 c 256
 439 550 498 582 559 582 c 0
 616 582 654 570 671 530 c 1xeec0
161 378 m 0
 185 378 192 416 192 433 c 0
 192 483 155 525 136 525 c 0xf5c0
 117 525 104 487 104 465 c 0
 104 418 144 378 161 378 c 0
493 499 m 0
 493 469 536 462 559 462 c 256
 592 462 618 477 618 504 c 0
 618 534 586 541 559 541 c 256xecc0
 526 541 493 527 493 499 c 0
EndSplineSet
EndChar

StartChar: uni0E24.liga
Encoding: 63617 63617 371
Width: 956
VWidth: 1448
Flags: W
HStem: -3 46<145.372 195.146> 177 49<175.971 212.323> 526 55<214.395 403.259 542.907 719.348>
VStem: 97 43<43.9743 156.757> 97 78<222 353.281> 218 48<64.9179 161.763> 487 75<-246 393.58> 775 80<-245 471.852>
LayerCount: 2
Fore
SplineSet
447 555 m 1xef
 461 557 551 583 615 583 c 0
 747 583 855 505 855 387 c 2
 855 -245 l 1
 775 -245 l 1
 775 376 l 2
 775 505 707 531 624 531 c 0
 584 531 530 519 505 514 c 1
 553 459 562 386 562 323 c 2
 562 -248 l 1
 487 -246 l 1
 486 330 l 2
 486 378 485 441 442 484 c 0
 422 504 388 526 288 526 c 0
 258 526 243 523 213 523 c 0
 202 523 192 523 182 524 c 1
 241 462 l 1
 241 417 l 1
 229 407 223 408 216 398 c 0
 205 385 177 351 175 280 c 2
 175 222 l 1xef
 182 225 189 226 195 226 c 0
 232 226 266 181 266 130 c 0
 266 58 210 -3 163 -3 c 0
 123 -3 97 35 97 84 c 2xf7
 97 239 l 2
 97 326 131 408 191 446 c 1
 92 537 l 1
 91 537 l 1
 91 581 l 1
 216 581 l 2
 367 581 406 573 447 555 c 1xef
190 177 m 0
 172 177 140 139 140 97 c 0xf7
 140 69 151 43 167 43 c 0
 184 43 218 84 218 121 c 0
 218 141 212 177 190 177 c 0
EndSplineSet
Ligature2: "'liga' Standard Ligatures in Latin lookup 19 subtable" uni0E24 uni0E45
Ligature2: "'liga' Standard Ligatures in Latin lookup 19 subtable" uni0E24 uni0E32
EndChar

StartChar: uni0E26.liga
Encoding: 63618 63618 372
Width: 985
VWidth: 1467
Flags: W
HStem: -6 55<131.995 186.705> 198 53<115.159 160.037> 531 56<201 255.708 255.708 356.662 565.786 744.379>
VStem: 58 48<76.0257 194.621> 172 76<239 483> 193 55<77.5292 170.953> 512 75<-248 42 42 447.168> 800 80<-242 474.248>
LayerCount: 2
Fore
SplineSet
243 587 m 2xfb
 351 587 408 584 470 556 c 1
 503 565 572 585 640 585 c 0
 775 585 880 507 880 390 c 2
 880 -242 l 1
 800 -242 l 1
 800 379 l 2
 800 509 729 534 649 534 c 0
 625 534 587 530 527 516 c 1
 576 465 587 395 587 329 c 2
 587 -248 l 1
 512 -248 l 1
 508 332 l 2
 508 421 488 534 310 534 c 0
 284 534 236 532 201 531 c 1
 247 486 246 487 248 486 c 1
 248 101 l 2xf7
 248 37 208 -6 167 -6 c 0
 114 -6 58 72 58 149 c 0
 58 194 82 251 131 251 c 0
 145 251 158 247 172 239 c 1
 172 483 l 1
 106 544 l 1
 106 587 l 1
 243 587 l 2xfb
106 136 m 0
 106 89 146 49 163 49 c 0
 187 49 193 87 193 102 c 0
 193 149 160 198 138 198 c 0
 118 198 106 162 106 136 c 0
EndSplineSet
LCarets2: 1 0 
Ligature2: "'liga' Standard Ligatures in Latin lookup 19 subtable" uni0E26 uni0E45
Ligature2: "'liga' Standard Ligatures in Latin lookup 19 subtable" uni0E26 uni0E32
EndChar

StartChar: fi
Encoding: 64257 64257 373
Width: 573
VWidth: 1467
Flags: W
HStem: 1 21G<383 470> 449 76<0 73 161 383> 706 63<209.286 373.869>
VStem: 73 88<-210 449 525 645.391> 383 87<1 449>
LayerCount: 2
Fore
SplineSet
286 706 m 0
 167 706 161 612 161 525 c 1
 470 525 l 1
 470 1 l 1
 383 1 l 1
 383 449 l 1
 161 449 l 1
 161 -210 l 1
 73 -210 l 1
 73 449 l 1
 0 449 l 1
 0 525 l 1
 73 525 l 1
 73 720 194 769 296 769 c 0
 344 769 400 748 425 728 c 1
 398 669 l 1
 372 690 331 706 286 706 c 0
EndSplineSet
LCarets2: 1 0 
Ligature2: "'liga' Standard Ligatures in Latin lookup 19 subtable" f i
EndChar

